<svg version="1.1" id="Capa_1" xmlns="http://www.w3.org/2000/svg" x="0" y="0" width="64" height="64" viewBox="0 0 612 612" style="enable-background:new 0 0 612 612;fill:red" xml:space="preserve"><path d="M556.141 306c0-153.581-124.494-278.076-278.065-278.076C124.495 27.924 0 152.419 0 306c0 153.571 124.495 278.076 278.076 278.076 153.57-.011 278.065-124.505 278.065-278.076zM278.076 111.555c26.236 0 50.958 6.52 72.621 18.013l-41.726 64.997a120.757 120.757 0 0 0-30.906-3.996 121.186 121.186 0 0 0-30.905 3.996l-41.715-64.997c21.672-11.493 46.384-18.013 72.631-18.013zM88.405 249.352c8.108-24.954 21.936-46.448 39.571-63.504l48.845 59.666a120.059 120.059 0 0 0-19.286 58.95l-74.44 19.527c-4.238-24.164-2.798-49.685 5.31-74.639zm72.453 222.963c-21.231-15.426-37.394-35.217-48.172-57.258l71.496-27.877c13.187 16.3 30.537 29.098 50.433 36.784l-4.417 76.48c-24.291-3.448-48.119-12.702-69.34-28.129zm234.436 0c-21.231 15.416-45.06 24.681-69.341 28.119l-4.416-76.48c19.896-7.676 37.246-20.474 50.433-36.783l71.496 27.877c-10.778 22.05-26.942 41.841-48.172 57.267zm3.312-167.851a120.059 120.059 0 0 0-19.286-58.95l48.845-59.666c17.625 17.057 31.463 38.55 39.571 63.504 8.107 24.954 9.548 50.475 5.31 74.63l-74.44-19.518z"/><path d="M370.382 582.098c33.682 3.523 69.004 3.334 100.656-9.18 55.712-20.59 73.651-65.965 140.898-58.078l.064-52.725c-104.946 9.727-133.202 110.425-241.618 119.983z"/>fill=&quot;#85D2FF&quot;</svg>