<svg aria-hidden="true" style="width:0;height:0;position:absolute;overflow:hidden" xmlns="http://www.w3.org/2000/svg"><defs><symbol id="icon-arrow-left" viewBox="0 0 32 32"><path stroke-linejoin="round" stroke-linecap="round" stroke-width="2.667" d="M25.333 16H6.666M16 25.333 6.667 16 16 6.667"/></symbol><symbol id="icon-arrow-right" viewBox="0 0 32 32"><path stroke-linejoin="round" stroke-linecap="round" stroke-width="2.667" d="M6.667 16h18.667M16 25.333 25.333 16 16 6.667"/></symbol><symbol id="icon-circle-up" viewBox="0 0 32 32"><path d="M0 16c0 8.837 7.163 16 16 16s16-7.163 16-16S24.837 0 16 0 0 7.163 0 16zm29 0c0 7.18-5.82 13-13 13S3 23.18 3 16 8.82 3 16 3s13 5.82 13 13z"/><path d="m22.086 20.914 2.829-2.829-8.914-8.914-8.914 8.914 2.828 2.828 6.086-6.086z"/></symbol><symbol id="icon-arrow-up" viewBox="0 0 32 32"><path d="m27.414 12.586-10-10a2 2 0 0 0-2.828 0l-10 10a2 2 0 1 0 2.828 2.828L14 8.828V28a2 2 0 1 0 4 0V8.828l6.586 6.586c.39.39.902.586 1.414.586s1.024-.195 1.414-.586a2 2 0 0 0 0-2.828z"/></symbol><symbol id="icon-heart" viewBox="0 0 34 32"><path d="m17.231 31.705-2.412-2.412C5.859 21.367.001 16.025.001 9.478.001 4.136 4.136.001 9.478.001c2.929 0 5.858 1.378 7.754 3.618 1.895-2.24 4.825-3.618 7.754-3.618 5.342 0 9.477 4.135 9.477 9.477 0 6.548-5.858 11.889-14.818 19.815l-2.412 2.412z"/></symbol><symbol id="icon-icon-film" viewBox="0 0 32 32"><path stroke-linejoin="round" stroke-linecap="round" stroke-width="2.667" d="M26.427 2.667H5.574a2.907 2.907 0 0 0-2.907 2.907v20.853a2.907 2.907 0 0 0 2.907 2.907h20.853a2.907 2.907 0 0 0 2.907-2.907V5.574a2.907 2.907 0 0 0-2.907-2.907zm-17.094 0v26.667M22.667 2.667v26.667M2.667 16h26.667M2.667 9.333h6.667M2.667 22.667h6.667m13.333 0h6.667M22.667 9.333h6.667"/></symbol><symbol id="icon-search" viewBox="0 0 32 32"><path stroke-linejoin="round" stroke-linecap="round" stroke-width="2.667" d="M14.667 25.333c5.891 0 10.667-4.776 10.667-10.667S20.558 3.999 14.667 3.999 4 8.775 4 14.666s4.776 10.667 10.667 10.667zM28 28.001l-5.8-5.8"/></symbol><symbol id="icon-youtube" viewBox="0 0 80 32"><path d="M10.75 5.294a.449.449 0 0 0 .012-.056l.033-.236-1.48-.008c-1.337-.008-1.746 0-1.783.034-.018.016-.479 1.77-1.302 4.946-.392 1.515-.723 2.725-.734 2.689s-.481-1.766-1.044-3.843c-.563-2.078-1.034-3.789-1.048-3.803-.019-.019-1.812-.028-3.263-.016-.21.002-.327-.41 1.876 6.598.305.97.762 2.344 1.015 3.052.292.817.5 1.448.642 1.974.251 1.002.26 1.63.205 2.363-.063.847-.072 6.826-.011 6.926.047.076 2.851.112 3.116.04.042-.012.071-.053.09-.279.066-.194.071-.968.071-4.18v-4.103l.179-.566c.117-.37.412-1.344.656-2.163s.538-1.801.654-2.18c1.057-3.447 2.067-6.838 2.094-7.032l.022-.158zm15.691 4.976-.001.214h-.033l-.019 5.906-.018 5.726-.458.466c-.513.523-.925.722-1.297.629-.405-.102-.395.056-.429-6.712l-.031-6.23h-2.947v.214h-.034v6.759c0 7.242 0 7.238.367 7.965.293.579.719.861 1.45.959.962.128 2-.308 2.962-1.244l.418-.407v.701c0 .606.017.706.127.737.18.05 2.412.053 2.653.004l.2-.041v-.207l.034-.007V10.23l-2.944.039zm-7.476 3.053c-.279-1.198-.802-2.004-1.663-2.561-1.353-.875-2.897-.967-4.331-.259-1.045.516-1.717 1.372-2.065 2.628-.041.15-.072.275-.095.463-.088.443-.099 1.105-.122 4.186-.035 4.748.019 5.313.614 6.391.583 1.058 1.794 1.833 3.112 1.993.397.048 1.201-.027 1.663-.155 1.051-.291 2.058-1.122 2.504-2.065.192-.407.309-.691.379-1.208.13-.707.14-1.849.14-4.762 0-3.715-.012-4.121-.136-4.651zM15.604 23c-.247.188-.679.27-1.031.195-.271-.058-.636-.482-.748-.869-.14-.482-.151-7.187-.03-8.502.199-.658.756-1.002 1.364-.838.474.128.716.424.854 1.046.103.461.115 1.035.093 4.414-.014 2.241-.022 3.336-.096 3.924-.074.371-.197.47-.407.63zm56.283-6.308h1.424l-.023-1.29c-.022-1.183-.039-1.319-.198-1.64-.249-.507-.618-.731-1.201-.731-.701 0-1.146.339-1.356 1.036-.089.296-.183 2.334-.116 2.51.038.098.241.116 1.469.116zm-9.518-2.935c-.19-.383-.543-.571-.954-.556-.319.011-.674.146-1.015.407l-.254.193v9.269l.254.193c.576.439 1.209.532 1.644.241.172-.115.285-.274.373-.527.114-.329.124-.75.109-4.649-.015-4.064-.024-4.303-.157-4.57z"/><path d="M80.027 9.582c-.284-3.401-.509-4.505-1.211-5.923-.929-1.878-2.272-2.868-4.184-3.086-1.478-.168-7.041-.405-12.189-.52-8.912-.198-23.564.183-25.436.662-.865.221-1.513.597-2.188 1.269-1.183 1.177-1.887 2.865-2.17 5.2-.647 5.331-.66 11.773-.037 17.297.268 2.376.82 3.92 1.857 5.192.647.794 1.761 1.469 2.758 1.67.7.141 4.201.337 9.3.521.76.027 2.771.074 4.47.105 3.541.063 10.051.026 13.773-.079 2.504-.07 7.069-.255 7.922-.321.24-.018.796-.054 1.236-.079 1.477-.083 2.417-.393 3.3-1.086 1.142-.897 2.027-2.556 2.4-4.501.354-1.84.59-5.118.638-8.839.04-3.109-.013-4.787-.238-7.482zM44.54 8.35l-1.656.02-.073 17.661-1.435.018c-1.11.015-1.447-.001-1.474-.073-.019-.051-.042-4.032-.052-8.849l-.018-8.758-3.234-.041v-2.76l9.557.039.041 2.721-1.656.02zm10.154 10.122v7.595h-2.616v-.799c0-.601-.023-.799-.093-.799-.051 0-.288.198-.527.441-.517.526-1.13.949-1.653 1.145-1.083.405-2.112.169-2.551-.586-.401-.691-.409-.845-.409-8.011v-6.58h2.614l.02 6.196c.02 6.088.022 6.2.168 6.448.193.329.488.417.956.288.276-.076.464-.21.911-.654l.563-.561V10.878h2.616v7.595zm10.205 6.51c-.23.513-.744 1.016-1.165 1.14-1.099.324-1.98.06-2.998-.897-.316-.297-.61-.538-.654-.538-.053 0-.082.233-.082.69v.69h-2.616V5.572H60v3.343c0 1.839.025 3.343.054 3.343s.306-.244.613-.541c.707-.683 1.298-.981 2.049-1.038 1.338-.101 2.135.587 2.501 2.16.114.491.125 1.051.125 5.596 0 5.537-.001 5.56-.443 6.546zm11.069-3.039c-.023.57-.092 1.223-.154 1.454-.364 1.349-1.332 2.304-2.732 2.696-1.885.527-3.96-.337-4.788-1.994-.465-.93-.481-1.116-.481-5.662 0-3.707.013-4.162.132-4.667.336-1.431 1.168-2.357 2.578-2.871a3.916 3.916 0 0 1 1.26-.234c1.521-.031 3.031.787 3.663 2.119.427.899.48 1.283.522 3.816l.039 2.271-5.578.039-.02 1.526c-.029 2.153.116 2.815.697 3.207.489.329 1.24.305 1.649-.055.383-.337.491-.698.529-1.753l.034-.927h2.694l-.043 1.036z"/></symbol><symbol id="icon-bird-up" viewBox="0 0 27 32"><path d="M20.478.733c-.203.605-.79 1.878-1.15 2.495-.064.113-.229.401-.363.643a11.01 11.01 0 0 1-.993 1.492c-.941 1.173-2.729 3.038-4.018 4.193l-.334.301-.018-.448c-.057-1.296-.257-2.472-.677-3.969-.147-.517-.404-1.224-.435-1.194a6.066 6.066 0 0 0-.064.473c-.159 1.356-.244 1.857-.432 2.598a11.381 11.381 0 0 1-.869 2.351c-.9 1.808-1.906 2.986-4.334 5.073a573.15 573.15 0 0 1-5.003 4.216c-.792.651-1.158.965-1.155.99.003.023.113.098.795.52 1.862 1.158 2.889 1.924 3.758 2.814l.337.345.057.322c.08.437.234 1.024.373 1.43.394 1.145.895 1.95 1.721 2.76a9.785 9.785 0 0 0 2.089 1.574c1.119.64 2.606 1.116 4.049 1.294 1.556.193 3.722.054 5.263-.334 1.433-.363 2.806-1.132 3.81-2.13.424-.424.646-.697.988-1.217 1.109-1.682 1.608-3.985 1.374-6.349-.242-2.444-1.093-4.736-2.41-6.49a2.268 2.268 0 0 1-.17-.244c.005-.005.144-.095.306-.203a7.988 7.988 0 0 0 1.237-1.021 7.997 7.997 0 0 0 1.549-2.161c.139-.27.25-.504.25-.517 0-.015-.062.01-.134.054-.18.105-.81.409-1.037.499-.098.041-.324.121-.502.18s-.471.162-.651.229c-.391.141-.941.288-1.561.414-.247.049-.478.098-.514.105-.046.01.026-.075.257-.304 1.093-1.083 1.875-2.482 2.354-4.211.265-.96.401-2.022.345-2.704-.041-.499-.036-.496-.232-.098-.232.468-.404.741-.857 1.345-.522.702-.723.931-1.428 1.636-.875.872-1.194 1.127-2.673 2.117-.448.301-.831.556-.849.566-.044.026-.036.013.139-.28.177-.298.576-1.104.741-1.497.674-1.608 1.057-3.285 1.186-5.191.059-.885.039-1.937-.049-2.405l-.031-.167-.033.103zm-.36 2.423a17.747 17.747 0 0 1-.491 2.853c-.404 1.644-.867 2.886-1.531 4.1-.358.656-.494.926-.471.926.08 0 1.032-.442 1.394-.648a23.266 23.266 0 0 0 1.443-.954 16.52 16.52 0 0 0 3.161-3.01 9.48 9.48 0 0 1 .311-.378c.01 0 .01.003-.116.512-.322 1.294-.646 2.22-1.07 3.064-.507 1.003-.911 1.559-1.644 2.256-.198.188-.35.347-.34.36.033.031.913-.039 1.314-.108.774-.131 1.633-.383 2.557-.754.244-.098.442-.172.442-.165 0 .028-.35.584-.458.731-.203.27-.769.836-1.124 1.119-.36.288-1.08.785-1.304.898-.075.036-.141.072-.147.077s.026.051.067.105c.316.412.808 1.278 1.129 1.994.653 1.451 1.109 3.159 1.302 4.857.049.448.041 1.559-.013 1.955-.376 2.686-1.546 4.89-3.208 6.05-1.186.826-3.005 1.353-5.119 1.487a11.627 11.627 0 0 1-4.527-.589c-1.659-.561-2.848-1.317-3.864-2.459-.679-.761-1.111-1.682-1.564-3.331-.283-1.029-.268-.993-.666-1.389-.823-.815-2.323-1.886-4.064-2.902-.026-.013.028-.067.193-.185.126-.093.386-.288.576-.44l1.196-.936c1.451-1.134 3.033-2.431 3.756-3.074.579-.514 1.672-1.597 2.076-2.058.522-.594 1.201-1.538 1.705-2.379.373-.617.615-1.17 1.096-2.49.198-.548.401-1.32.502-1.927.026-.152.054-.268.064-.257.033.036.229.671.304.983.044.178.095.455.116.617.033.255.09 1.122.085 1.312-.018.821-.049 1.363-.093 1.595-.026.149-.044.275-.039.28s.069-.028.144-.072c.731-.445 3.082-2.773 4.466-4.427.862-1.032 2.107-2.812 2.413-3.452.026-.054.051-.093.057-.085.008.005-.003.159-.018.34z"/><path d="M15.1 12.612c-.093.126-3.552 4.779-4.365 5.865a3.656 3.656 0 0 0-.188.265c0 .005.731.01 1.621.01h1.621V28.99h2.881V18.752h1.621c.893 0 1.621-.005 1.621-.01 0-.008-.085-.126-.188-.265a1401.396 1401.396 0 0 1-4.37-5.88.923.923 0 0 0-.118-.147.98.98 0 0 0-.134.162z"/></symbol></defs></svg>