<svg id="Warstwa_1" data-name="Warstwa 1" xmlns="http://www.w3.org/2000/svg" viewBox="0 0 326.55 326.55"><defs><style>.cls-10,.cls-12,.cls-13,.cls-14,.cls-17,.cls-18,.cls-20,.cls-21,.cls-23,.cls-24,.cls-25,.cls-4,.cls-6{fill-rule:evenodd}.cls-4{fill:#dfdfdb}.cls-6{fill:#fe0000}.cls-10{fill:#ff9e0d}.cls-13{fill:#ff8b00}.cls-14{fill:#ffaf00}.cls-17{fill:#6a6a6a}.cls-18{fill:#282828}.cls-20{fill:maroon}.cls-21{fill:#837979}.cls-23{fill:#fdfdfd}.cls-24{fill:#030303}.cls-25{fill:#fbfbfb}</style></defs><rect x=".28" y=".28" width="325.98" height="325.98" rx="45.38" style="stroke:#fff;stroke-width:.57px;fill:none;stroke-miterlimit:22.93"/><path d="M196.82 367.31v107.76c0 11 1.68 20.38 6.85 28.9a45.2 45.2 0 0 0 7.85 10.16 35.32 35.32 0 0 0 3.09 2.9c.61.49.88.79 1.58 1.31a45.58 45.58 0 0 0 13.81 7.27c8 2.27 11.63 1.91 19.57 1.53L277 525c4.73-.12 11.62-1.07 16.57-1.19 1.64 0 3.87-.44 5.51-.49 4.59-.11 12.08-1.13 16.33-1.19L343 520c1.74-.09 3.68-.13 5.38-.38 1.86-.28 3.68-.18 5.56-.44 16.18-2.28 28.19-9.16 37.43-21.85a24.6 24.6 0 0 0 3.34-5.82c.51-1.4 1.92-4.52 1.72-5.9s-2-1-3.21-2.16a7.2 7.2 0 0 0-3.34-1.88c-3 6.19-9.17 11.58-15.14 13.39a40.82 40.82 0 0 1-18.64 9.34c-5.73 1.14-19.23 1.78-25.57 2.27-1.51.12-3.7.45-5.29.47s-3.84.24-5.11.41c-3.13.42-12.35.68-15.64 1.16l-62.29 4.67c-10.49 0-19.92-6.65-25.4-15.17a36.69 36.69 0 0 1-5.56-18.91V363a36.68 36.68 0 0 1 5.71-19.49c.42-.68.86-1.32 1.32-1.95.83-6.25 2.57-10.21 9.24-15.82a7.64 7.64 0 0 0-3.71-3.63c-2.21-.94-1.3-2.31-3-1.51a52.33 52.33 0 0 0-5.68 3.59 48.78 48.78 0 0 0-8.48 9 63.13 63.13 0 0 0-4.93 8.27c-3.97 9.63-4.89 14.22-4.89 25.85Z" transform="translate(-134.16 -257.68)" style="fill-rule:evenodd;fill:#9c3603"/><path d="m252.11 313.73 105.66 10c22.53 2.14 41.11 18.52 41.16 41.16l.21 98.21c.05 22.64-18.58 39.44-41.16 41.16l-105.87 8.06c-22.58 1.76-41.11-18.48-41.11-41.11V354.89c0-22.64 18.57-43.31 41.11-41.16Z" transform="translate(-134.16 -257.68)" style="stroke:#f60;stroke-width:9.92px;fill-rule:evenodd;fill:none;stroke-miterlimit:22.93"/><path class="cls-4" d="M286.17 330.69a13.46 13.46 0 0 0 1.28-1.34c.13.23.24.47.38.7a14.08 14.08 0 0 0 8.37 6.27 30.7 30.7 0 0 0-4.05 1.24 14.79 14.79 0 0 0-1-2 14 14 0 0 0-5-4.87Zm26.19.07a14.43 14.43 0 0 0 1-16.17 14.67 14.67 0 0 0-20.23-4.6 15.44 15.44 0 0 0-3.74 3.19c-.12-.23-.23-.47-.37-.69a14.49 14.49 0 0 0-16.42-6.24 14.1 14.1 0 0 0-1.39-11.44 14.68 14.68 0 0 0-20.21-4.58 14.86 14.86 0 0 0-6.88 16.3 15.29 15.29 0 0 0-3.34 1.5 14.67 14.67 0 0 0-5.31 20.05 13.89 13.89 0 0 0 3.68 4c-5.91 4.48-8 12-4.69 17.55 2.43 4 7.12 6 12.06 5.53a13.5 13.5 0 0 0 1.56 9.84 14.2 14.2 0 0 0 12.32 6.54 16.8 16.8 0 0 0 2 5A17 17 0 0 0 291.47 359a17.18 17.18 0 0 0-4-4.51 15 15 0 0 0 5.31-8.34c3 11.75 20.23 17.72 29.06 11.29 6.67-4.85 9.43-13.24 5.31-20.05a14.45 14.45 0 0 0-14.79-6.63Z" transform="translate(-134.16 -257.68)"/><path class="cls-4" d="M233.29 331.71a16 16 0 0 1-4.26-4.65c-4.77-7.88-2-18.28 6.14-23.22a17.1 17.1 0 0 1 2.59-1.25 13.24 13.24 0 0 0-21.45 12.78 17 17 0 0 0-3.43 1.57c-7.64 4.63-10.21 14.35-5.75 21.72a15.75 15.75 0 0 0 18.87 6.41 17.54 17.54 0 0 1 7.29-13.36ZM290.32 307.85a15.25 15.25 0 0 1 4.53-3.84c7.58-4.2 17.27-1.24 21.62 6.63a15.81 15.81 0 0 1 1.08 2.47 12.47 12.47 0 0 0-11.24-20.64 16 16 0 0 0-1.35-3.28A14.65 14.65 0 0 0 278 300.55a16.48 16.48 0 0 1 12.32 7.3Z" transform="translate(-134.16 -257.68)"/><path d="M284.16 330.1a14.33 14.33 0 0 0 1.14-1.2c.11.21.21.42.33.63a12.63 12.63 0 0 0 7.49 5.61 28.7 28.7 0 0 0-3.62 1.1 13.36 13.36 0 0 0-.88-1.78 12.49 12.49 0 0 0-4.46-4.36Zm23.42.07a12.9 12.9 0 0 0 .89-14.47 13.11 13.11 0 0 0-18.09-4.11 14 14 0 0 0-3.35 2.85c-.11-.21-.21-.42-.33-.62a13 13 0 0 0-14.7-5.58 12.67 12.67 0 0 0-1.23-10.24 13.14 13.14 0 0 0-18.09-4.11 13.32 13.32 0 0 0-6.16 14.59 13.72 13.72 0 0 0-3 1.34 13.13 13.13 0 0 0-4.75 17.94 12.46 12.46 0 0 0 3.29 3.59c-5.29 4-7.19 10.73-4.19 15.69 2.18 3.59 6.37 5.33 10.79 4.95a12.09 12.09 0 0 0 1.39 8.8 12.71 12.71 0 0 0 11 5.85 15 15 0 0 0 1.81 4.5 15.2 15.2 0 1 0 26-15.74 14.93 14.93 0 0 0-3.57-4 13.42 13.42 0 0 0 4.75-7.47c2.72 10.52 18.1 15.85 26 10.1 6-4.34 8.43-11.85 4.75-17.93a12.9 12.9 0 0 0-13.21-5.93Z" transform="translate(-134.16 -257.68)" style="fill:#f2f2f1;fill-rule:evenodd"/><path class="cls-6" d="M324.65 321.54c-4.3 0-21.79.75-23-4.14-1.88-7.71 35.17-38.67 35.17-38.67s-39.77 31.85-47.64 26c-6.2-4.64 2-28.36 2-28.36s-12.63 26.08-18.28 25.23c-5.48-.82-11-20.79-11-20.79s3.43 21.38-2.3 24.51c-6.24 3.41-36.82-32.7-36.82-32.7s30.75 37.57 27.07 41.54-17.39-1.26-17.39-1.26 11.63 7.3 11.26 11.59c-.43 5.06-27.39 8-45.56 6.85 18.63 1.83 44.39 1.82 46.05 5.9 3.52 8.7-59.33 42.73-59.33 42.73s63.14-31.76 67.25-28.77c3.56 2.58-8.51 38.65-8.51 38.65s15.4-34.85 21-33.51c6.05 1.46 8.89 51.19 8.89 51.19s-.09-53.27 7.83-54.91c5.47-1.14 28.54 23.74 28.54 23.74s-17.84-29-13.77-33.37c4.31-4.62 36.41 6.53 36.41 6.53S301 337.2 302.21 329.73c.79-4.54 22.44-8.19 22.44-8.19Z" transform="translate(-134.16 -257.68)"/><path d="M290.8 330.51a26.43 26.43 0 0 1 .24 3 29.28 29.28 0 0 1-3.55 15.07 19.92 19.92 0 0 0-10-36 19.93 19.93 0 0 1 13 0c-1.3-.93-2.72-1.89-3.29-2.2-9.62-5.35-19.33-1.5-24.68 8.13a19.89 19.89 0 0 0-.3 18.78 19.92 19.92 0 0 1-5.1-24.72 19.92 19.92 0 0 0 9.34 35.13 19.91 19.91 0 0 1-15.38-2.31c4.32 5.82 10.76 9.44 17.86 9.24 11.68-.38 20.97-10.9 21.86-24.12Z" transform="translate(-134.16 -257.68)" style="fill:#ffa;fill-rule:evenodd"/><path d="M251.1 345.35a19.91 19.91 0 0 0 15.38 2.31 19.92 19.92 0 0 1-9.34-35.13 19.92 19.92 0 0 0 5.1 24.72 19.89 19.89 0 0 1 .3-18.78c5.35-9.63 15.06-13.48 24.68-8.13.57.31 2 1.27 3.29 2.2a19.93 19.93 0 0 0-13 0 19.92 19.92 0 0 1 10 36 29.28 29.28 0 0 0 3.49-15.06 26.43 26.43 0 0 0-.24-3c-.89 13.22-10.18 23.74-21.84 24.08-7.1.2-13.54-3.42-17.86-9.24Zm34.73 5.83a19.91 19.91 0 0 0 6.5-37.92 31.76 31.76 0 0 0-10.14-9.19c-8.32-4.62-16.81-2.42-22.41 4.46a19.89 19.89 0 0 0-13.1 33.14c2.92 11.17 12 19.18 22.45 18.88 6.75-.2 12.7-3.81 16.7-9.37Z" transform="translate(-134.16 -257.68)" style="fill:#ffe700;fill-rule:evenodd"/><path d="M269.78 319.61a12 12 0 1 1-2 16.51 11.76 11.76 0 0 1 2-16.51Z" transform="translate(-134.16 -257.68)" style="fill:#ffc;fill-rule:evenodd"/><path class="cls-10" d="M99.49 49.64 81.87 37.56l2.7-4.04 14.92 16.12z"/><path class="cls-6" d="m132.16 23.68-6.07-22.34 6.29.11-.22 22.23z"/><path class="cls-10" d="m127.56 115-7.15 25.57 8.37-2.19-1.22-23.38z"/><path class="cls-6" d="m181.5 48.61.88-.91 14.23-9.59 1.85 7.05-16.96 3.45zM177.86 73.45l17.1 6.89 2.3-5.7-15.37-3.63-4.03 2.44z"/><path class="cls-10" d="m161.7 26.59 4.91-10.29 2.39 3.95-7.3 6.34z"/><path style="fill:#d30000;fill-rule:evenodd" d="m106.19 110.34-4.87 12.34-6.1-.8 10.22-13.34.75 1.8z"/><path class="cls-10" d="m78.41 97.33-7.36 4.57-2.94-2.76L78.7 96.1l-.29 1.23z"/><path class="cls-12" d="M272 312.06h.15l.49.55c1.29.45 2.4 1.29 3.65 1.85a83.94 83.94 0 0 0 17.27 6.46c.83.16 1.35.87 1.95 1.4a39.94 39.94 0 0 1 10 14.28c4 9.59 4.81 20.09 5.89 30.32 0 .6.27 1.27-.11 1.8a67.14 67.14 0 0 1 51.38 10.65 61.78 61.78 0 0 1 5.86 4.57l-1.19.17A64.86 64.86 0 0 0 343.21 371a69.63 69.63 0 0 0-31.15-1.6 9.12 9.12 0 0 0-1.42.4 62.26 62.26 0 0 0-17.35 6.2 65.46 65.46 0 0 0-29.79 32.8 63.26 63.26 0 0 0-2.5 40.46 64.77 64.77 0 0 0 24.4 35 25.31 25.31 0 0 1 2.43 1.83 66.55 66.55 0 0 0 24.64 9.56 68.47 68.47 0 0 0 31.29-1.65 66.09 66.09 0 0 0 14.24-6.16 51 51 0 0 0 6.67-4.51c1.87-1.76 3.95-3.3 5.76-5.14a21.58 21.58 0 0 0 3.14-3.48 80.59 80.59 0 0 0 6.17-8 60 60 0 0 0 9.11-22.55 63.45 63.45 0 0 0-2.2-30.85 65.63 65.63 0 0 0-16.94-27c-.07-.52-.15-1-.23-1.56a64.7 64.7 0 0 1 21.27 46.66V434a64.54 64.54 0 0 1-8.75 31 66.19 66.19 0 0 1-39.16 30.29 68 68 0 0 1-37.07 0 66.71 66.71 0 0 1-25.72-14 64.63 64.63 0 0 1-22.21-47.56v-2.22a64.79 64.79 0 0 1 5.7-25.3 65.68 65.68 0 0 1 19.66-24.81 66.66 66.66 0 0 1 27.52-12.59 100.41 100.41 0 0 0-9.47-22.62 109.66 109.66 0 0 0-23.71-28.48c-2-1.65-4-3.26-6-4.94l.45-.69Zm3 2.59c2.26 2.38 5 4.26 7.33 6.53a48.63 48.63 0 0 1 5.41 5.52c2.66-.22 5.22.74 7.65 1.71l2.44 1c-.48-1-1-2.06-1.48-3.1.48.5 1 1 1.45 1.46a27.23 27.23 0 0 0 1.69 2.58c-.05.13-.15.41-.21.54-3-1.24-6-2.78-9.21-3.37a9.1 9.1 0 0 0-1.38-.05 106 106 0 0 1 14.79 21.16 111.28 111.28 0 0 1 6.72 15.64 4.74 4.74 0 0 0-.18-2.48c-.09-1.33-.2-2.66-.38-4-.89-7.24-2.16-14.52-5-21.27a37.77 37.77 0 0 0-8.33-12.52v-.11a15.92 15.92 0 0 0-2.48-2c-.82-.69-2.1-.52-3.08-.9-1.21-.33-2.42-.68-3.62-1a105.28 105.28 0 0 1-9.84-4.19 9.25 9.25 0 0 0-2.24-1.15Z" transform="translate(-134.16 -257.68)"/><path class="cls-12" d="m308.63 392.07.88.13a7.12 7.12 0 0 0-3.37 4.8 6.77 6.77 0 0 0 4.44 7.26 35.49 35.49 0 0 1 8.24-.14 6.81 6.81 0 0 0 4.11-6.82 7 7 0 0 0-1.31-3.24l.82.13a7.09 7.09 0 0 1 1.07 4.68 7.6 7.6 0 0 1-3.76 5.46 20.41 20.41 0 0 1 3.66 1.06 19 19 0 0 1 3.29 1.77l-.69.38a22.44 22.44 0 0 0-5.84-2.31 26.72 26.72 0 0 0-17.09 2.35c-1 .41-1.62 1.5-2.68 1.84a1.72 1.72 0 0 1 .52-1.31 13.47 13.47 0 0 1 3.38-2 40.18 40.18 0 0 1 5.14-1.59 8.09 8.09 0 0 1-3.88-5.32 7.27 7.27 0 0 1 3.07-7.13ZM342.2 394l.68.31a6.29 6.29 0 0 0 .47 6.89h-.71a7.49 7.49 0 0 1-.44-7.2ZM355.94 403.83a22.58 22.58 0 0 1 4.62.73c1.77.66 3.83 1.24 5 2.84-1 .05-1.78-.75-2.65-1.16a14.33 14.33 0 0 0-5.55-1.53 4.87 4.87 0 0 1-1.42-.88Z" transform="translate(-134.16 -257.68)"/><path class="cls-13" d="M275.05 314.65a9.25 9.25 0 0 1 2.18 1 105.28 105.28 0 0 0 9.84 4.19c.84 1.22 2.33 1.73 3.34 2.8 1.8 1.79 3.77 3.5 5 5.76-2.43-1-5-1.93-7.65-1.71a48.63 48.63 0 0 0-5.41-5.52c-2.35-2.26-5.04-4.17-7.3-6.52ZM331.54 405.72a29.8 29.8 0 0 1 6.41-2.5 11.68 11.68 0 0 1 4.52 4.57 19.2 19.2 0 0 1 1.35 4.13q-13.43.52-26.84 1.19a15.35 15.35 0 0 1-3.25 0c1-.3 2-.3 3-.61 5.2-1.5 9.96-4.32 14.81-6.78ZM311.91 414.46c10.64-.57 21.28-1.32 31.94-1.39v.08a14.45 14.45 0 0 1-.14 3.35 19.23 19.23 0 0 1-4.44 8.87l-.07.09c-7.35.64-14.56-1.88-20.86-5.49a39.31 39.31 0 0 1-6.93-5.24c.05-.23.22-.32.5-.27Z" transform="translate(-134.16 -257.68)"/><path class="cls-14" d="M287.09 319.85c1.2.37 2.41.72 3.62 1a7.67 7.67 0 0 0 1.42 1.31 51 51 0 0 1 3.87 3.54l.36.65c.48 1 1 2.06 1.48 3.1l-2.44-1c-1.24-2.26-3.21-4-5-5.76-.98-1.11-2.47-1.62-3.31-2.84ZM338 403.22a24.46 24.46 0 0 1 5.76-1 16.47 16.47 0 0 0 3.35.77 23 23 0 0 1 7.77 3.1 27 27 0 0 1 5.72 5.42 8.63 8.63 0 0 0 2 2 97.53 97.53 0 0 0-18.69-1.56 19.2 19.2 0 0 0-1.35-4.13 11.68 11.68 0 0 0-4.56-4.6ZM343.85 413.15a99 99 0 0 1 14 .91c-4.42 5.94-11 10.63-18.56 11.31a19.23 19.23 0 0 0 4.44-8.87 14.45 14.45 0 0 0 .12-3.35Z" transform="translate(-134.16 -257.68)"/><path d="M290.74 320.93c1 .38 2.26.21 3.08.9a30.26 30.26 0 0 1 2.18 3.87 51 51 0 0 0-3.88-3.46 7.67 7.67 0 0 1-1.38-1.31Z" transform="translate(-134.16 -257.68)" style="fill:#ffc74e;fill-rule:evenodd"/><path d="M293.82 321.83a15.92 15.92 0 0 1 2.48 2v.17c.22 1.39 1.11 2.54 1.54 3.86-.47-.5-1-1-1.45-1.46l-.36-.65a30.26 30.26 0 0 0-2.21-3.92Z" transform="translate(-134.16 -257.68)" style="fill:#4e4e4e;fill-rule:evenodd"/><path class="cls-17" d="M297.85 327.81c-.43-1.32-1.32-2.47-1.54-3.86a37.77 37.77 0 0 1 8.37 12.63c2.85 6.75 4.12 14 5 21.27.18 1.32.29 2.65.38 4-.33-1-.3-2.12-.53-3.16-1.54-9-3.92-17.95-8.47-25.91a21.25 21.25 0 0 0-1.53-2.37 27.23 27.23 0 0 1-1.68-2.6ZM312.06 369.43a69.63 69.63 0 0 1 31.15 1.6 64.86 64.86 0 0 1 24.11 13.08c-1.72.24-3.45.49-5.18.71a62.71 62.71 0 0 0-17-9.58 83.82 83.82 0 0 0-16.48-4.31c-2.72-.55-5.49-.71-8.24-1s-5.57-.19-8.36-.5ZM369.73 386.35a65.63 65.63 0 0 1 16.94 27 63.45 63.45 0 0 1 2.2 30.85 60 60 0 0 1-9.11 22.55 80.59 80.59 0 0 1-6.17 8 2.93 2.93 0 0 1 .62-1.32 50.24 50.24 0 0 0 6.79-12.66 73.83 73.83 0 0 0 3.46-37.06 62.46 62.46 0 0 0-16.13-33.38l1.91-.28c-.16-1.23-.34-2.47-.51-3.7ZM325 460.43a51.72 51.72 0 0 1 24.33 3.1c4.95 2 9.7 5.1 12.68 9.64a16.54 16.54 0 0 1 2.71 10.16 51 51 0 0 1-6.67 4.51 66.09 66.09 0 0 1-14.29 6.16 15.06 15.06 0 0 0-3.85-.23 70.48 70.48 0 0 1-39.53-14.1 44.43 44.43 0 0 1-5.63-4.78c7.65-8.58 18.9-13.34 30.25-14.46Z" transform="translate(-134.16 -257.68)"/><path class="cls-18" d="M288.74 327.51a9.1 9.1 0 0 1 1.38.05c3.25.59 6.19 2.13 9.21 3.37.06-.13.16-.41.21-.54a21.25 21.25 0 0 1 1.53 2.37c4.55 8 6.93 16.94 8.47 25.91.23 1 .2 2.13.53 3.16a4.74 4.74 0 0 1 .18 2.48 111.28 111.28 0 0 0-6.72-15.64 106 106 0 0 0-14.79-21.16ZM310.64 369.83a9.12 9.12 0 0 1 1.42-.4c2.79.31 5.61.16 8.4.48s5.52.47 8.24 1a83.82 83.82 0 0 1 16.48 4.31 62.71 62.71 0 0 1 17 9.58c-8.36 1.22-16.74 2.3-25.09 3.56.29 2.06.59 4.11.86 6.18l.58-.07a7.9 7.9 0 0 0 1.14 7.2 45.35 45.35 0 0 0-12.93 5.47 19 19 0 0 0-3.29-1.77c2.16-1.48 4.17-3.55 4.66-6.21a8 8 0 0 0-.4-4.22c.17-2.08.64-4.13.87-6.2-11.26-1.75-22.53-3.43-33.78-5.17a32.24 32.24 0 0 1 4-4c3.63-3.57 7.87-6.51 11.84-9.74Z" transform="translate(-134.16 -257.68)"/><path class="cls-18" d="M284.07 396.86a63.72 63.72 0 0 1 7.46-9.69c-.11.75-.2 1.49-.3 2.24 3.53.58 7.08 1.07 10.62 1.65-2 1.71-3.69 4.05-3.6 6.78 0 3.72 2.95 6.65 6.05 8.25a13.47 13.47 0 0 0-3.38 2 1.72 1.72 0 0 0-.52 1.31c1.06-.34 1.64-1.43 2.68-1.84a26.72 26.72 0 0 1 17.09-2.35 22.44 22.44 0 0 1 5.84 2.31 34.13 34.13 0 0 1-13 4.78 24 24 0 0 0-6.35 1.25 2.19 2.19 0 0 0 .08.95c1.28.17 2.81-.38 3.84.62a49.33 49.33 0 0 0 16.57 9.88 27.7 27.7 0 0 0 16.51.63 28.75 28.75 0 0 0 13.94-9.53 9.66 9.66 0 0 1 1.76-2 17.65 17.65 0 0 1 3.45.52c2.32.41 4.58 1.07 6.88 1.58a49.13 49.13 0 0 0-4.4-4.84 37.7 37.7 0 0 0-6.35-5.41c-.56-.37-1.06-.8-1.6-1.2a14.33 14.33 0 0 1 5.55 1.53c.87.41 1.62 1.21 2.65 1.16-1.15-1.6-3.21-2.18-5-2.84 2.26-1.57 4.25-3.86 4.58-6.7a8.53 8.53 0 0 0-2.6-6.73l5.79-.8a62.46 62.46 0 0 1 16.13 33.38 73.83 73.83 0 0 1-3.44 37.02 50.24 50.24 0 0 1-6.79 12.62 2.93 2.93 0 0 0-.62 1.32 21.58 21.58 0 0 1-3.14 3.48c-1.81 1.84-3.89 3.38-5.76 5.14a16.54 16.54 0 0 0-2.69-10.16c-3-4.54-7.73-7.62-12.68-9.64a51.72 51.72 0 0 0-24.33-3.1c-11.32 1.12-22.57 5.88-30.22 14.48h-.05a65.89 65.89 0 0 1-16.85-23.89 56.23 56.23 0 0 1-4-17.53c0-1.61-.1-3.21-.17-4.81a75.12 75.12 0 0 1 1.15-9.69 63.88 63.88 0 0 1 9.22-22.13Z" transform="translate(-134.16 -257.68)"/><path d="M293.29 376a62.26 62.26 0 0 1 17.35-6.16c-4 3.23-8.21 6.16-11.84 9.79a32.24 32.24 0 0 0-4 4c-.86-.14-1.72-.25-2.59-.38-.23 1.32-.42 2.64-.64 4A70.06 70.06 0 0 0 274.79 419a75.12 75.12 0 0 0-1.15 9.69c.07 1.6.2 3.2.17 4.81a56.23 56.23 0 0 0 4 17.53A65.89 65.89 0 0 0 294.7 475a37.73 37.73 0 0 0-6.85 11.16 25.31 25.31 0 0 0-2.43-1.83 64.77 64.77 0 0 1-24.4-35 63.26 63.26 0 0 1 2.48-40.47A65.46 65.46 0 0 1 293.29 376Z" transform="translate(-134.16 -257.68)" style="fill:#1c1c1c;fill-rule:evenodd"/><path class="cls-20" d="M292.17 383.21c.87.13 1.73.24 2.59.38 11.25 1.74 22.52 3.42 33.78 5.17-.23 2.07-.7 4.12-.87 6.2-1.74-.23-3.48-.53-5.23-.77l-.82-.13c-4-.63-8.08-1.23-12.11-1.86l-.88-.13c-2.26-.33-4.52-.7-6.78-1-3.54-.58-7.09-1.07-10.62-1.65.1-.75.19-1.49.3-2.24.22-1.33.41-2.65.64-3.97ZM367.32 384.11l1.19-.17.85-.13c0 .33.09.66.14 1 .08.52.16 1 .23 1.56.17 1.23.35 2.47.51 3.7l-1.91.28-5.79.8-5.49.77-.82.12c-4.32.62-8.66 1.17-13 1.84l-.12.08c-1.57-.09-3.09.46-4.65.55l-.58.07c-.27-2.07-.57-4.12-.86-6.18 8.35-1.26 16.73-2.34 25.09-3.56 1.76-.24 3.49-.49 5.21-.73Z" transform="translate(-134.16 -257.68)"/><path class="cls-21" d="M301.85 391.06c2.26.31 4.52.68 6.78 1a7.27 7.27 0 0 0-3.07 7.11 8.09 8.09 0 0 0 3.88 5.32 40.18 40.18 0 0 0-5.14 1.59c-3.1-1.6-6.06-4.53-6.05-8.25-.09-2.72 1.63-5.06 3.6-6.77ZM357.05 391.9l5.49-.77a8.53 8.53 0 0 1 2.6 6.73c-.33 2.84-2.32 5.13-4.58 6.7a22.58 22.58 0 0 0-4.62-.73l-.23-.09a7.91 7.91 0 0 0 3.82-5.6 7.28 7.28 0 0 0-2.48-6.24ZM338.49 394.49c1.56-.09 3.08-.64 4.65-.55l-.26.34-.68-.31a7.49 7.49 0 0 0 .44 7.24c-1 .12-2 .3-3 .48a7.9 7.9 0 0 1-1.15-7.2ZM322.44 394.19c1.75.24 3.49.54 5.23.77a8 8 0 0 1 .4 4.22c-.49 2.66-2.5 4.73-4.66 6.21a20.41 20.41 0 0 0-3.66-1.06 7.6 7.6 0 0 0 3.76-5.46 7.09 7.09 0 0 0-1.07-4.68Z" transform="translate(-134.16 -257.68)"/><path d="m356.23 392 .82-.12a7.28 7.28 0 0 1 2.48 6.24 7.91 7.91 0 0 1-3.82 5.6l-.76-.28a7.39 7.39 0 0 0 3.93-5.12 6.65 6.65 0 0 0-2.65-6.32Z" transform="translate(-134.16 -257.68)" style="fill:#010101;fill-rule:evenodd"/><path class="cls-23" d="M309.51 392.2c4 .63 8.08 1.23 12.11 1.86a7 7 0 0 1 1.31 3.24 6.81 6.81 0 0 1-4.11 6.82 35.49 35.49 0 0 0-8.24.14 6.77 6.77 0 0 1-4.44-7.26 7.12 7.12 0 0 1 3.37-4.8Zm6.79 2.8a3.23 3.23 0 0 0-2 2.54 3.18 3.18 0 1 0 2-2.54ZM343.26 393.86c4.31-.67 8.65-1.22 13-1.84a6.65 6.65 0 0 1 2.65 6.32 7.39 7.39 0 0 1-3.93 5.12 23.6 23.6 0 0 0-11.6-2.29 6.29 6.29 0 0 1-.47-6.89l.26-.34.12-.08Zm3.58.56a3 3 0 0 0-2 1.15 3.06 3.06 0 1 0 2-1.15Z" transform="translate(-134.16 -257.68)"/><path class="cls-24" d="M346.84 394.42a3.06 3.06 0 1 1-2 1.15 3 3 0 0 1 2-1.15Zm.29.81a1.06 1.06 0 1 0 1.47 1.28 1.07 1.07 0 0 0-1.47-1.28ZM316.3 395a3.2 3.2 0 1 1-2 2.54 3.21 3.21 0 0 1 2-2.54Zm1.51.72a1.08 1.08 0 0 0-.18 1.92 1.06 1.06 0 0 0 1.59-.89 1.05 1.05 0 0 0-1.41-1.01Z" transform="translate(-134.16 -257.68)"/><path class="cls-25" d="M347.13 395.23a1.06 1.06 0 1 1-.25 1.75 1.08 1.08 0 0 1 .25-1.75ZM317.81 395.74a1.05 1.05 0 0 1 1.41 1 1.06 1.06 0 0 1-1.59.89 1.08 1.08 0 0 1 .18-1.89Z" transform="translate(-134.16 -257.68)"/><path d="M342.64 401.21h.71a23.6 23.6 0 0 1 11.6 2.29l.76.28.23.09a4.87 4.87 0 0 0 1.4.88c.54.4 1 .83 1.6 1.2a37.7 37.7 0 0 1 6.35 5.41 49.13 49.13 0 0 1 4.4 4.84c-2.3-.51-4.56-1.17-6.88-1.58a17.65 17.65 0 0 0-3.45-.52 9.66 9.66 0 0 0-1.76 2 28.75 28.75 0 0 1-13.94 9.53 27.7 27.7 0 0 1-16.51-.63 49.33 49.33 0 0 1-16.55-9.83c-1-1-2.56-.45-3.84-.62a2.19 2.19 0 0 1-.08-.95 24 24 0 0 1 6.35-1.25 34.13 34.13 0 0 0 13-4.78l.69-.38a45.35 45.35 0 0 1 12.93-5.47c1-.18 2-.36 3-.48Zm-4.69 2a29.8 29.8 0 0 0-6.41 2.5c-4.85 2.46-9.61 5.24-14.84 6.82-1 .31-2 .31-3 .61a15.35 15.35 0 0 0 3.25 0q13.42-.64 26.84-1.19a97.53 97.53 0 0 1 18.69 1.56c1.17.18 2.32.5 3.49.65.08.7 1.08-.14.35-.22a44.76 44.76 0 0 0-8.19-7.43 22.69 22.69 0 0 0-14.45-4.24 24.46 24.46 0 0 0-5.76 1Zm-26 11.24c-.28 0-.45 0-.5.27a39.31 39.31 0 0 0 6.93 5.24c6.3 3.61 13.51 6.13 20.86 5.49l.07-.09c7.53-.68 14.14-5.37 18.56-11.31a99 99 0 0 0-14-.91v-.08c-10.68.08-21.32.83-31.96 1.4Z" transform="translate(-134.16 -257.68)" style="fill:#442a12;fill-rule:evenodd"/><path d="M343.71 402.24a22.69 22.69 0 0 1 14.45 4.24 44.76 44.76 0 0 1 8.19 7.43l-.35.22c-1.17-.15-2.32-.47-3.49-.65a8.63 8.63 0 0 1-2-2 27 27 0 0 0-5.72-5.42 23 23 0 0 0-7.77-3.1 16.47 16.47 0 0 1-3.31-.72Z" transform="translate(-134.16 -257.68)" style="fill:#e9c5ae;fill-rule:evenodd"/><path d="M366.35 413.91c.73.08-.27.92-.35.22Z" transform="translate(-134.16 -257.68)" style="fill:#b78639;fill-rule:evenodd"/><path d="M294.7 475h.05a44.43 44.43 0 0 0 5.63 4.78 70.48 70.48 0 0 0 39.53 14.1 15.06 15.06 0 0 1 3.85.23 68.47 68.47 0 0 1-31.27 1.66 66.55 66.55 0 0 1-24.64-9.56A37.73 37.73 0 0 1 294.7 475Z" transform="translate(-134.16 -257.68)" style="fill:#494949;fill-rule:evenodd"/></svg>