<svg id="Warstwa_1" data-name="Warstwa 1" xmlns="http://www.w3.org/2000/svg" viewBox="0 0 326.55 326.55"><defs><style>.cls-12{stroke-miterlimit:22.93}.cls-12{stroke-width:.57px}.cls-10,.cls-11,.cls-12,.cls-5,.cls-7,.cls-8,.cls-9{fill-rule:evenodd}.cls-12,.cls-5{fill:#fdaa39}.cls-7{fill:#fa5305}.cls-8{fill:#232724}.cls-9{fill:#fff800}.cls-10{fill:#fff}.cls-11{fill:#0a9d49}.cls-12{stroke:#fdaa39}</style></defs><rect x=".28" y=".28" width="325.98" height="325.98" rx="45.38" style="stroke-width:.57px;stroke-miterlimit:22.93;stroke:#fff;fill:none"/><path d="M196.41 366.49v107.76c0 11 1.69 20.39 6.86 28.9a44.94 44.94 0 0 0 7.84 10.16 37.05 37.05 0 0 0 3.1 2.91c.61.49.87.78 1.57 1.3a45.69 45.69 0 0 0 13.85 7.27c8 2.27 11.64 1.92 19.58 1.54l27.36-2.16c4.73-.12 11.62-1.07 16.56-1.2 1.65 0 3.88-.44 5.52-.48 4.59-.12 12.08-1.14 16.32-1.2l27.6-2.16c1.74-.08 3.69-.13 5.38-.38 1.86-.28 3.69-.17 5.57-.44 16.17-2.27 28.19-9.16 37.43-21.84a24.62 24.62 0 0 0 3.33-5.82c.51-1.41 1.92-4.53 1.72-5.91s-2-1-3.2-2.16a7.32 7.32 0 0 0-3.34-1.87c-3 6.18-9.17 11.57-15.14 13.39a40.94 40.94 0 0 1-18.65 9.33c-5.73 1.14-19.22 1.79-25.56 2.27-1.52.12-3.71.45-5.3.47s-3.84.24-5.1.41c-3.14.42-12.36.68-15.64 1.17l-62.3 4.66c-10.49 0-19.91-6.65-25.39-15.16a36.71 36.71 0 0 1-5.57-18.92V362.17a36.77 36.77 0 0 1 5.71-19.49q.64-1 1.32-1.95c.84-6.25 2.58-10.2 9.25-15.82a7.64 7.64 0 0 0-3.72-3.62c-2.2-1-1.29-2.31-3-1.51a37.54 37.54 0 0 0-14.16 12.63 62 62 0 0 0-4.94 8.26c-3.94 9.6-4.86 14.2-4.86 25.82Z" transform="translate(-134.16 -257.68)" style="fill-rule:evenodd;fill:#9c3603"/><path d="m251.7 312.91 105.66 10c22.54 2.15 41.11 18.53 41.16 41.16l.22 98.21c.05 22.64-18.59 39.44-41.16 41.16l-105.88 8.11c-22.57 1.72-41.16-18.52-41.16-41.16V354.07c0-22.64 18.63-43.3 41.16-41.16Z" transform="translate(-134.16 -257.68)" style="stroke:#f60;stroke-width:9.92px;fill-rule:evenodd;stroke-miterlimit:22.93;fill:none"/><path d="M322.36 401.9c6.94-1.2 14-2.44 21.07-2 3.38.34 6.75.84 10.14 1.1 4.82.46 9.48 1.89 14.14 3.15l-.63 1.69a48.13 48.13 0 0 0-7.29-2.07 45.21 45.21 0 0 0-7.75-1.26c-4.46-.36-8.88-1.31-13.37-1.1a108.19 108.19 0 0 0-25.24 4.49c-3.13 1.16-6.24 2.38-9.38 3.54a21.87 21.87 0 0 0-6.72 3.82c-1.51 1.31-2.11 3.3-2.65 5.16-1.7 6.48-2.43 13.16-3.21 19.8a84.51 84.51 0 0 0-.51 9.41c5.08-1.4 10-3.39 15.32-3.9a210.55 210.55 0 0 1 28.51-1.19 159.17 159.17 0 0 0 17.6.72c4-.17 7.78 1 11.63 1.71 4.13.76 8.24 1.58 12.32 2.58 2.4.79 4.69 1.9 7.14 2.6 6.84 2.08 13.18 5.44 19.56 8.6a38.66 38.66 0 0 0 6.07 1.85c.39.89.76 1.8 1.19 2.68l-2.3-1.02c-2.94 1.6-5.8 3.44-9 4.55-1.8.59-3.6 1.21-5.43 1.71-3.48 1-6.76 2.51-10.29 3.28-4.66 1.09-9.23 2.65-14 3-5.41.68-10.87.26-16.28.89a41.11 41.11 0 0 1-6.84-.13c-2.85-.16-5.71-.13-8.55-.54l-2.19-.23c-.95-.1-1.91-.19-2.87-.27-6-.63-12-.55-18.06-1-3.28-.08-6.73.2-9.76-1.3a26.36 26.36 0 0 1-10-8.76c-1.49-2.41-3.13-4.82-3.8-7.61-.84-3.47-1.83-7-1.47-10.61.6-6.88 1-13.8 2.43-20.58a46.61 46.61 0 0 1 2.35-9.39 11.23 11.23 0 0 1 3.51-4.37c3.73-2.66 8.28-3.77 12.48-5.47 3.87-1.76 8.07-2.5 12.17-3.54Zm-8.74 42.65c-5 .45-10 .67-14.79 2.31-2.63.89-5.45 1.28-7.88 2.7a61.56 61.56 0 0 0 2.22 8 25.6 25.6 0 0 0 8.05 10.7 15.4 15.4 0 0 0 7 3.53c2.44.27 4.91-.09 7.36.17 3.12.47 6.29.19 9.41.61 6.95.14 13.84 1.23 20.79 1.29a32.13 32.13 0 0 0 6.79.14q5.77-.4 11.56-.52c7.45-.05 14.64-2.17 21.77-4.13 3.73-1.23 7.42-2.59 11.21-3.65a40.84 40.84 0 0 0 9-4.25 36.78 36.78 0 0 1-6-2.41 96.23 96.23 0 0 0-17.46-7.6c-2.55-.76-5-1.88-7.53-2.64-5.58-1.39-11.26-2.27-16.88-3.46-3.73-.76-7.54-.29-11.31-.63-3.28-.32-6.58 0-9.85-.47-4.39-.48-8.81 0-13.21-.15-3.46-.09-6.87.35-10.25.46Z" transform="translate(-134.16 -257.68)" style="fill:#894221;fill-rule:evenodd"/><path class="cls-5" d="M313.43 405.93a108.19 108.19 0 0 1 25.24-4.49c4.49-.21 8.91.74 13.37 1.1a45.21 45.21 0 0 1 7.75 1.26 48.13 48.13 0 0 1 7.29 2.07c2.51 1.32 4.55 3.31 6.82 5 3.07 2.41 6.07 4.9 9.19 7.25 4.43 3.2 8.13 7.25 12.05 11 1.32 1.28 3 2.33 3.78 4.08-.21 1.57-.9 3-1.18 4.59a14.2 14.2 0 0 0 1.74 10.86c1.62 2.15 3.81 3.76 5.73 5.62a20.5 20.5 0 0 1 3.9 6.36 38.66 38.66 0 0 1-6.07-1.85c-6.38-3.16-12.72-6.52-19.56-8.6-2.45-.7-4.74-1.81-7.14-2.6-4.08-1-8.19-1.82-12.32-2.58-3.85-.7-7.67-1.88-11.63-1.71a159.17 159.17 0 0 1-17.6-.72 210.55 210.55 0 0 0-28.51 1.19c-5.28.51-10.24 2.5-15.32 3.9a84.51 84.51 0 0 1 .51-9.41c.78-6.64 1.51-13.32 3.21-19.8.54-1.86 1.14-3.85 2.65-5.16a21.87 21.87 0 0 1 6.72-3.82c3.14-1.16 6.25-2.38 9.38-3.54Z" transform="translate(-134.16 -257.68)"/><path class="cls-5" d="M313.62 444.55c3.41-.11 6.79-.6 10.21-.46 4.4.15 8.82-.33 13.21.15 3.27.43 6.57.15 9.85.47 3.77.34 7.58-.13 11.31.63 5.62 1.19 11.3 2.07 16.88 3.46 2.55.76 5 1.88 7.53 2.64a96.23 96.23 0 0 1 17.46 7.6 36.78 36.78 0 0 0 6 2.41 40.84 40.84 0 0 1-9 4.25c-3.79 1.06-7.48 2.42-11.21 3.65-7.13 2-14.32 4.08-21.77 4.13q-5.79.11-11.56.52a32.13 32.13 0 0 1-6.79-.14c-6.95-.06-13.84-1.15-20.79-1.29-3.12-.42-6.29-.14-9.41-.61-2.45-.26-4.92.1-7.36-.17a15.4 15.4 0 0 1-7-3.53 25.6 25.6 0 0 1-8.05-10.7 61.56 61.56 0 0 1-2.22-8c2.43-1.42 5.25-1.81 7.88-2.7 4.8-1.64 9.87-1.86 14.83-2.31Z" transform="translate(-134.16 -257.68)"/><path d="M367.71 404.18c4.42 1.44 8.68 3.33 13.05 4.91 6.82 3.31 12.76 8.1 19.15 12.14a64 64 0 0 1 9.26 7.57c3.42 4.13 7.41 7.76 10.64 12.05 1.14 1.58 2.61 2.89 3.69 4.51 1.21 1.89 2.75 3.56 3.89 5.51 1.47 2.46 2.75 5 4.24 7.49 2.4 4.62 5.71 8.77 7.43 13.74a43.62 43.62 0 0 0 2.06 4.58c1 2.48 2.91 4.61 3.43 7.31-.74 1.65-2.8.54-3.73-.35-3.76-4-8.45-7-12.77-10.32a37.54 37.54 0 0 0-5.37-3.24 69 69 0 0 0-9.1-4.65 8.61 8.61 0 0 1-3.28-2.12c-.43-.88-.8-1.79-1.19-2.68a20.5 20.5 0 0 0-3.9-6.36c-1.92-1.86-4.11-3.47-5.73-5.62a14.2 14.2 0 0 1-1.74-10.86c.28-1.56 1-3 1.18-4.59-.77-1.75-2.46-2.8-3.78-4.08-3.92-3.78-7.62-7.83-12.05-11-3.12-2.35-6.12-4.84-9.19-7.25-2.27-1.66-4.31-3.65-6.82-5l.63-1.69Zm5.66 4a25.64 25.64 0 0 0 4.63 4.06c3.08 2.55 6.35 4.86 9.45 7.38 2.36 2.2 4.69 4.44 6.91 6.79 1.72 1.83 3.85 3.25 5.45 5.2a26.19 26.19 0 0 1 4.3-5 32.87 32.87 0 0 0-4-3.21c-5.5-3.47-10.72-7.35-16.26-10.74a52.61 52.61 0 0 0-10.52-4.44Zm26.49 38.17c1 2.25 3 3.82 4.75 5.41a19.18 19.18 0 0 1 6.14 8.74c.58 1.91 2.4 3 4.1 3.74a124.8 124.8 0 0 1 12.52 6.63c3.5 2.48 6.9 5.09 10.32 7.69a36.45 36.45 0 0 0 4 3.23c-1.15-3.08-3-5.85-4.13-8.95a35 35 0 0 0-3.21-6.63c-2.62-4.19-5-8.51-7.42-12.85a61.72 61.72 0 0 0-5.52-7.83 116.21 116.21 0 0 0-8.61-10.17 39.1 39.1 0 0 0-8-7.38 17.18 17.18 0 0 0-4.94 18.34Z" transform="translate(-134.16 -257.68)" style="fill:#740002;fill-rule:evenodd"/><path class="cls-7" d="M373.37 408.15a52.61 52.61 0 0 1 10.52 4.44c5.54 3.39 10.76 7.27 16.26 10.74a32.87 32.87 0 0 1 4 3.21 26.19 26.19 0 0 0-4.3 5c-1.6-1.95-3.73-3.37-5.45-5.2-2.22-2.35-4.55-4.59-6.91-6.79-3.1-2.52-6.37-4.83-9.45-7.38a25.64 25.64 0 0 1-4.67-4.02ZM399.86 446.32a17.18 17.18 0 0 1 4.91-18.32 39.1 39.1 0 0 1 8 7.38 116.21 116.21 0 0 1 8.61 10.17 61.72 61.72 0 0 1 5.52 7.83c2.38 4.34 4.8 8.66 7.42 12.85a35 35 0 0 1 3.21 6.63c1.11 3.1 3 5.87 4.13 8.95a36.45 36.45 0 0 1-4-3.23c-3.42-2.6-6.82-5.21-10.32-7.69a124.8 124.8 0 0 0-12.52-6.63c-1.7-.77-3.52-1.83-4.1-3.74a19.18 19.18 0 0 0-6.14-8.74c-1.75-1.64-3.73-3.21-4.72-5.46Z" transform="translate(-134.16 -257.68)"/><path class="cls-8" d="M292.49 410.75a12.59 12.59 0 0 1 5.22.16 11.23 11.23 0 0 0-3.51 4.37 46.61 46.61 0 0 0-2.35 9.39c-1.39 6.78-1.83 13.7-2.43 20.58-.36 3.61.63 7.14 1.47 10.61.67 2.79 2.31 5.2 3.8 7.61a26.36 26.36 0 0 0 10 8.76c3 1.5 6.48 1.22 9.76 1.3 6 .42 12.06.34 18.06 1-.79 1.66-1.65 3.3-2.42 5 2-1.26 4.06-2.62 5.29-4.71l2.19.23a45.53 45.53 0 0 1-15.35 10.59 52.15 52.15 0 0 1-5.92 2.24c-5.05 1.09-9.92 3.22-15.17 3.22-4.44-.05-8.88.22-13.31.18-6 .22-11.9-1.1-17.69-2.45a59.73 59.73 0 0 1-14.8-4.74c-3.58-1.85-7.4-3.68-9.85-7a76.07 76.07 0 0 1-4.23-6.83 14.76 14.76 0 0 1-2.89 2.75 1.13 1.13 0 0 1-1.48-.19c-1.21-1.29-2.18-2.8-3.45-4a1.14 1.14 0 0 1 .05-1.88c1.11-.68 2.42-.93 3.55-1.57-5 1.26-10.39 2.75-15.51 1a4.12 4.12 0 0 1 .75-2.5c1.95-2.69 3.89-5.49 6.57-7.53 3.63.89 7.27 2.6 11.1 2.16-1-.72-2.31-.83-3.41-1.39a12.29 12.29 0 0 1-4.53-3.78 1 1 0 0 1 .26-1.36 31.21 31.21 0 0 1 2.91-3.06 1.63 1.63 0 0 1 2 .88 9.93 9.93 0 0 0 3.07 3.15 86.88 86.88 0 0 1 4.76-13.7 56.2 56.2 0 0 1 6.59-11c-1.6-.07-3.2 0-4.79-.15a.8.8 0 0 1-.73-1.07c.44-3.27-.28-6.59.23-9.85 2.52-.24 5 .37 7.52.36a65.53 65.53 0 0 0 7.8.41 5.79 5.79 0 0 0 2.14-1c5.2-3.36 11.35-4.93 17.43-5.72 3.75-.49 7.54-.29 11.31-.43Zm-27.55 7.65c4.57.41 9.16.75 13.75 1-2.35-1.07-4.95-1.3-7.46-1.72a10.88 10.88 0 0 0-6.29.74Zm-13.08 12.41c-1.18 2.13-.82 4.66-.78 7 .48 2.47.56 5.17 2.09 7.28a26.73 26.73 0 0 0 9.21 7.65 17.45 17.45 0 0 0 9.79 1.14c2.34-.34 4.83-.44 6.91-1.7a20.89 20.89 0 0 0 9.77-13.37 16.35 16.35 0 0 0-1.4-10.51h-2.8a15.59 15.59 0 0 1 1.53 8.32 22.08 22.08 0 0 1-2.67 7.47c-.44 1-1.47 1.38-2.17 2.12A21 21 0 0 1 276 450a23.17 23.17 0 0 1-11.55-.05 12.21 12.21 0 0 1-5.1-2.45c-2.44-1.92-4.78-4.33-5.5-7.46a17.23 17.23 0 0 1 1.05-12.11c-1.59.15-2.33 1.67-3.07 2.88Zm5.11-2.73a10 10 0 0 0-2 4.31c-.28 3.11-.28 6.46 1.15 9.33a19 19 0 0 0 6.49 6.06 15.22 15.22 0 0 0 4.75 1.05 19.08 19.08 0 0 0 5.49.29c3.58-.52 6.63-2.88 8.89-5.6a21.6 21.6 0 0 0 2.8-6.16 13 13 0 0 0-1.66-8.84c-2.39-.49-4.84.09-7.24-.28q-9.35-.19-18.71-.16Zm-14.18 21.72c-1.14 2.91-1.34 6.06-1.6 9.15a22 22 0 0 0 2.53 12.41c1.78 3.05 3.66 6.24 6.74 8.15a58.63 58.63 0 0 0 21.39 8 69.06 69.06 0 0 0 12.45 2h15.26a21.89 21.89 0 0 0 4.78-.46c-1.87-8.38-6.27-16.51-13.38-21.54a52.4 52.4 0 0 0-7.26-4.12 11.88 11.88 0 0 0-5.64-1.32c-5.23 0-10.46-.1-15.68-.08-5.67-.36-11.69-1.92-15.78-6.11-1.77-1.62-2.71-3.88-3.81-6.08Z" transform="translate(-134.16 -257.68)"/><path class="cls-8" d="M276.21 431.6c1.07-.1 2.31-.23 3.13.62a3.23 3.23 0 1 1-4.87 4.08 3.33 3.33 0 0 1 1.74-4.7Zm-1 2.73c1.08.86 2.17-.26 2.13-1.39l-1-.67a2.77 2.77 0 0 0-1.11 2.06Z" transform="translate(-134.16 -257.68)"/><path class="cls-9" d="M264.94 418.4a10.88 10.88 0 0 1 6.29-.74c2.51.42 5.11.65 7.46 1.72-4.59-.23-9.18-.57-13.75-.98ZM251.86 430.81c.74-1.21 1.48-2.73 3.07-2.88a17.23 17.23 0 0 0-1.05 12.07c.72 3.13 3.06 5.54 5.5 7.46a12.21 12.21 0 0 0 5.1 2.45A23.17 23.17 0 0 0 276 450a21 21 0 0 0 5.31-3.78c.7-.74 1.73-1.16 2.17-2.12a22.08 22.08 0 0 0 2.67-7.47 15.59 15.59 0 0 0-1.53-8.32h2.8a16.35 16.35 0 0 1 1.4 10.51 20.89 20.89 0 0 1-9.77 13.37c-2.08 1.26-4.57 1.36-6.91 1.7a17.45 17.45 0 0 1-9.79-1.14 26.73 26.73 0 0 1-9.21-7.65c-1.53-2.11-1.61-4.81-2.09-7.28-.05-2.35-.37-4.88.81-7.01Z" transform="translate(-134.16 -257.68)"/><path class="cls-10" d="M257 428.08q9.36 0 18.71.16c2.4.37 4.85-.21 7.24.28a13 13 0 0 1 1.66 8.84 21.6 21.6 0 0 1-2.8 6.16c-2.26 2.72-5.31 5.08-8.89 5.6a19.08 19.08 0 0 1-5.49-.29 15.22 15.22 0 0 1-4.75-1.05 19 19 0 0 1-6.49-6.06c-1.43-2.87-1.43-6.22-1.15-9.33a10 10 0 0 1 2-4.31Zm19.24 3.52a3.33 3.33 0 0 0-1.74 4.7 3.23 3.23 0 1 0 4.87-4.08c-.85-.85-2.09-.72-3.16-.62Z" transform="translate(-134.16 -257.68)"/><path class="cls-10" d="M275.23 434.33a2.77 2.77 0 0 1 1.14-2.06l1 .67c.03 1.13-1.06 2.25-2.14 1.39Z" transform="translate(-134.16 -257.68)"/><path class="cls-11" d="M242.79 449.8c1.1 2.15 2 4.46 3.81 6.16 4.09 4.19 10.11 5.75 15.78 6.11 5.22 0 10.45.12 15.68.08a11.88 11.88 0 0 1 5.64 1.32 52.4 52.4 0 0 1 7.26 4.12c7.11 5 11.51 13.16 13.38 21.54a21.89 21.89 0 0 1-4.78.46c-5.09-.06-10.18 0-15.26 0a69.06 69.06 0 0 1-12.45-2 58.63 58.63 0 0 1-21.39-8c-3.08-1.91-5-5.1-6.74-8.15a22 22 0 0 1-2.53-12.44c.26-3.14.46-6.29 1.6-9.2ZM332.52 474.5c1 .08 1.92.17 2.87.27-1.23 2.09-3.28 3.45-5.29 4.71.77-1.68 1.63-3.32 2.42-4.98Z" transform="translate(-134.16 -257.68)"/><path class="cls-12" d="M341.79 368.69c-.49-.18-1-.36-10.9-.95s-29.29-1.62-46.65 2-32.69 11.95-48 20.25c16.92-11.3 33.85-22.61 51.44-26.16s35.84.66 54.11 4.86Z" transform="translate(-134.16 -257.68)"/><path d="M348 363.85c-.49-.18-1-.36-10.9-1s-29.29-1.62-46.65 2-32.69 11.95-48 20.25c16.92-11.3 33.85-22.6 51.44-26.16s35.85.72 54.11 4.91Z" transform="translate(-134.16 -257.68)" style="stroke:#000;stroke-width:.71px;fill-rule:evenodd;stroke-miterlimit:22.93;fill:none"/><path class="cls-12" d="M309.7 345.82a17.48 17.48 0 0 0-3.46-.2 57.67 57.67 0 0 0-14.73 1.08c-5.46 1.31-10.24 4.09-15 6.86 5.25-3.74 10.49-7.47 16-8.76s11.37-.14 17.19 1.02Z" transform="translate(-134.16 -257.68)"/></svg>