<svg id="Warstwa_1" data-name="Warstwa 1" xmlns="http://www.w3.org/2000/svg" viewBox="0 0 326.55 326.55"><defs><style>.cls-4,.cls-7,.cls-8,.cls-9{fill-rule:evenodd}.cls-4{fill:#2358a9}.cls-7{fill:#fff1ba}.cls-8{fill:#142f53}.cls-9{fill:#fdbb29}</style></defs><rect x=".28" y=".28" width="325.98" height="325.98" rx="45.38" style="stroke:#fff;stroke-width:.57px;fill:none;stroke-miterlimit:22.93"/><path d="M196 368v107.73c0 11 1.68 20.39 6.85 28.91a45.2 45.2 0 0 0 7.85 10.15 35.35 35.35 0 0 0 3.09 2.91c.61.49.88.79 1.58 1.3a45.25 45.25 0 0 0 13.85 7.27c8 2.28 11.64 1.92 19.58 1.54l27.36-2.16c4.73-.12 11.62-1.07 16.56-1.19 1.65-.05 3.87-.45 5.52-.49 4.59-.12 12.08-1.14 16.32-1.19l27.6-2.16c1.74-.09 3.69-.13 5.38-.38 1.86-.28 3.69-.18 5.56-.44 16.18-2.28 28.19-9.16 37.44-21.85a24.23 24.23 0 0 0 3.33-5.82c.51-1.4 1.92-4.52 1.72-5.91s-2-1-3.2-2.15a7.23 7.23 0 0 0-3.35-1.88c-3 6.19-9.16 11.58-15.14 13.39a40.77 40.77 0 0 1-18.64 9.34c-5.73 1.14-19.22 1.78-25.57 2.27-1.51.11-3.7.44-5.29.47s-3.84.24-5.11.41c-3.13.42-12.35.67-15.63 1.16l-62.3 4.66c-10.49 0-19.91-6.64-25.4-15.16a36.8 36.8 0 0 1-5.56-18.92V363.65a36.67 36.67 0 0 1 5.71-19.48q.65-1 1.32-1.95c.83-6.25 2.57-10.21 9.25-15.82a7.7 7.7 0 0 0-3.72-3.63c-2.2-.94-1.29-2.31-3-1.51a51.5 51.5 0 0 0-5.69 3.59 49.06 49.06 0 0 0-8.47 9 62.1 62.1 0 0 0-4.94 8.27c-3.99 9.64-4.86 14.23-4.86 25.88Z" transform="translate(-134.16 -257.68)" style="fill-rule:evenodd;fill:#9c3603"/><path d="m251.24 314.4 105.66 10.05c22.54 2.14 41.11 18.52 41.16 41.16l.22 98.21c.05 22.63-18.59 39.44-41.16 41.16l-105.88 8c-22.57 1.72-41.16-18.52-41.16-41.16V355.56c0-22.64 18.62-43.31 41.16-41.16Z" transform="translate(-134.16 -257.68)" style="stroke:#f60;stroke-width:9.92px;fill-rule:evenodd;fill:none;stroke-miterlimit:22.93"/><path class="cls-4" d="M302.42 515.37a383.69 383.69 0 0 1-70-60.86c-20.31-22.74-37.08-48.18-44.49-73.06-8.43-28.3-4.22-51.09 12.78-63.09 21-14.86 60.43-13.5 110.38 16.4 24.82 14.86 50.07 36.36 68.45 60.61 17.82 23.49 28.56 47.43 26.89 66.54-1.07 12.25-7.39-7.26-8.76-10.3-13.82-31.27-40.67-60.81-73.16-82.13-31.6-20.74-63.7-30.64-88.5-27-28.5 4.14-34.69 26.58-27.89 52.74 5.19 20 19.56 43.55 41.28 66.32 3.21 3.36 7.64 8 11.57 11.3 0 0-1.61-1.56-2-2-17.11-17-30.88-34.73-39.09-51.06-9.46-18.82-13-37.49-5.32-51.16 10.1-18.09 39.32-19.18 74.61-5.45 39.38 15.33 78.23 46.24 93.83 87.91 8.92 23.84 1.59 40.86-14 47.07-13.3 5.29-32.95 3.35-55.66-8-17.67-8.82-41.75-28.12-47.78-42.28-1.17-2.73 2.2 2.09 2.73 2.71 13.34 17.66 35.19 33.67 56.44 41.85-14.87-5-29.55-14.13-42.36-25.29-5.61-4.9 2.58 3.13 3.41 3.84 18 16.09 42.59 27.21 61.54 29.07 19.95.79 33.12-6.36 36.5-20.41 4-16.51-4.9-41-28.54-67.35-25.59-28.49-58.68-46.9-87.38-53.88-25.67-6.23-45.31-2.65-53.13 11.37-8.55 15.33-2.45 37.81 10.24 58.95 11.24 18.7 29.24 38.92 50.82 56.82 13.16 10.91 25.12 18.58 39.31 27 .77.46-.72-.27-.84-.36-27.27-14.65-52.72-36-71.57-57.16-20.17-22.65-36.14-49-38.86-71.9-2.8-23.57 7-38.65 27.63-43.48 24.43-5.72 61.7 2 102.73 29 7 4.59 16.21 12.73 23.68 15.56 3.27 1.24-1.8-5.27-2-5.52-22.35-29.17-52.55-46.4-81.41-55.93-26.92-8.88-50.38-10.52-64.89-5.25-21 7.63-26.76 28-23.17 51.63 2.9 19 12.35 40.41 26.58 60.63 16.89 24 39.55 47 63.73 66.48 24.54 19.74 53.06 35.93 82.28 46a255.65 255.65 0 0 1-56.61-26.88Z" transform="translate(-134.16 -257.68)"/><path d="M292.2 295.94a100.86 100.86 0 0 1 13.8 21.71 112.14 112.14 0 0 1 9.57 30.2c1.89 11.32 1.07 23.23-3.33 33.89a60 60 0 0 0 20.86-.89 21.56 21.56 0 0 1-11.4 6.3 46.31 46.31 0 0 0 4.15 3.07c9 6.68 16.47 15.07 23.61 23.62 4.58 5.56 9.88 10.5 14.05 16.39 4 5.29 7.73 10.9 9.82 17.23a55.18 55.18 0 0 1 2.74 15.5c-2-3.55-3.7-7.38-6.63-10.25a42.49 42.49 0 0 1-2.75 12.54c-3.49 7.67-10.06 13.55-17.46 17.36-8.95 4.7-18.93 7.05-28.88 8.41-16.75 2-34 1.73-50.37-2.67-10.22-2.92-20.46-7.6-27.44-15.89a38.21 38.21 0 0 1-4.32-6.57 28.35 28.35 0 0 1-1.61-3.76l-.13-.41c-.8-2.14-.69-4.57-1.89-6.54-.86 1.89-1.62 3.82-2.46 5.72-.39.76-.54 1.73-1.36 2.19 0-.84-.05-1.66 0-2.49a35.3 35.3 0 0 1 1.66-9.17c.88-3.82 3.45-7 4.08-10.91a26 26 0 0 1-7.61 2.56 54.16 54.16 0 0 0 12.95-13.25c5.38-7.89 12-14.81 18.5-21.79 4.31-4.72 8.71-9.36 13.43-13.67a60.9 60.9 0 0 0 4.61-4.19c-5.28-.28-10.54.49-15.81.67 6.72-6.72 16.46-9 25.65-9.53-1.51-1.7-3.85-2.4-5.49-4-5.83-5.26-9.49-12.43-15.22-17.78a112.43 112.43 0 0 0-13.83-10.35c13.09-1.16 26.11 3.63 36.73 11.06 1.77 1.08 3.21 2.65 5.1 3.53-2.43-9.74-3.45-19.76-4.38-29.74-1-12.68-1.46-25.58 1-38.12Zm1.11 4.55c-1.45 15-.14 30.15 1.62 45.1.51 3.34 1 6.69 1.73 10 1.36 6.42 2.3 12.93 3.63 19.36-5.73-8.57-14.42-14.62-23.48-19.27-6.07-2.7-12.5-5-19.22-5.21a74.22 74.22 0 0 1 15 12.07c3.58 3.72 7.09 7.52 10.88 11a83.84 83.84 0 0 0 11.82 8.7c-5.19.5-10.44.73-15.53 2a27.71 27.71 0 0 0-10.51 4.35c5.21-.44 10.4-1.16 15.63-1.39a122.42 122.42 0 0 0-17.46 16.14c-5.33 6-10.87 11.74-16 17.87a222 222 0 0 1-17.93 19.63c2.62-1.35 5.2-2.79 7.87-4-2.63 4.11-5.6 8.09-7.23 12.74a36.06 36.06 0 0 0-2 8.19c1.7-3.6 3.29-7.36 6.31-10.09a34.13 34.13 0 0 0 2.74 16c3.8 8.47 11.46 14.55 19.66 18.51 14.84 7 31.7 8.75 47.93 7.54 12.23-.81 24.46-3.17 35.73-8.11 8.09-3.82 16-9.47 19.62-17.91 2.2-4.88 2.52-10.35 2-15.59 3.5 1.83 5.72 5.25 8 8.36a39.82 39.82 0 0 0-4.85-15.72 58.92 58.92 0 0 0-12-14.93 16.24 16.24 0 0 1-2.06-1.91c-3.89-4.95-8-9.71-12.06-14.51-7.88-8.89-16.58-17.35-27.08-23.09a33.46 33.46 0 0 0 11.15-3.3c-2.52 0-5 .45-7.53.39-3.7.15-7.36-.45-11.05-.68a68.81 68.81 0 0 0 4.3-35.64 104.44 104.44 0 0 0-6-21.66 117.06 117.06 0 0 0-11.72-22.57 5.23 5.23 0 0 0-1.91-2.37Z" transform="translate(-134.16 -257.68)" style="fill:#4678b0;fill-rule:evenodd"/><path d="M293.31 300.49a5.23 5.23 0 0 1 1.85 2.32l-1.16-1.37c-1 2.16-.79 4.66-1.13 7 0 4.94-.29 9.9.38 14.8a18.1 18.1 0 0 0 .54 4.82c4-2.18 8.63-2.67 13.14-2.67a104.44 104.44 0 0 1 6 21.66 68.81 68.81 0 0 1-4.3 35.64c3.69.23 7.35.83 11.05.68 2.52.06 5-.36 7.53-.39a33.46 33.46 0 0 1-11.15 3.3c10.5 5.74 19.2 14.2 27.08 23.09 4.07 4.8 8.17 9.56 12.06 14.51a16.24 16.24 0 0 0 2.06 1.91 58.92 58.92 0 0 1 12 14.93 39.82 39.82 0 0 1 4.85 15.72c-2.26-3.11-4.48-6.53-8-8.36.55 5.24.23 10.71-2 15.59-3.67 8.44-11.53 14.09-19.62 17.91v-1.29c-6.92-6.1-16-9-24.88-10.87-5.36-.77-10.77-1.63-16.2-1.39-11.84-.09-23.9 2.07-34.43 7.63-2.92 1.85-6.09 3.61-8.13 6.49-8.2-4-15.86-10-19.66-18.51a34.13 34.13 0 0 1-2.74-16c-3 2.73-4.61 6.49-6.31 10.09a36.06 36.06 0 0 1 2-8.19c1.63-4.65 4.6-8.63 7.23-12.74-2.67 1.25-5.25 2.69-7.87 4a222 222 0 0 0 17.93-19.63c5.14-6.13 10.68-11.91 16-17.87a122.42 122.42 0 0 1 17.46-16.14c-5.23.23-10.42.95-15.63 1.39a27.71 27.71 0 0 1 10.51-4.35c5.09-1.23 10.34-1.46 15.53-2a83.84 83.84 0 0 1-11.82-8.7c-3.79-3.52-7.3-7.32-10.88-11 1.66-2.11 2.44-4.78 4.18-6.86 9.06 4.65 17.75 10.7 23.48 19.27-1.26-6.4-2.26-12.91-3.6-19.33-.76-3.3-1.22-6.65-1.73-10-1.76-14.95-3.07-30.07-1.62-45.1Zm-11 91.66A14.88 14.88 0 0 0 276 397v10.34c4.75-3.05 10.08-5.71 15.88-5.4 0-3.57-.13-7.14-.2-10.7-3.13-.09-6.35-.16-9.34.92Zm-4.83 20.66a28.28 28.28 0 0 0-12.35 22.49c-.25 7.32 1.57 15.23 7 20.49 5.2 5.13 12.9 6.68 20 6.31a24 24 0 0 0 14.64-6.28c-1.81 3-4.94 5.1-6 8.51.9 2.24 3.49 2.92 5.66 3.2 2.85.3 5.39-1.36 7.52-3.06-.12-1.37-.3-2.75-.45-4.11a57.22 57.22 0 0 0 12.42 4.09 19.1 19.1 0 0 0-1.12-4.06 19 19 0 0 0 9.64 1.37 20.78 20.78 0 0 0 15.76-10.68c3.39-6.07 4-13.43 2.53-20.15a26 26 0 0 0-15.94-18.78c-5.1-2-11.14-2.48-16.13.08-4 2-6.89 5.81-8.68 9.87-.51-.75-1-1.51-1.42-2.29a22.85 22.85 0 0 0-16.77-10.89 23.33 23.33 0 0 0-16.31 3.89Z" transform="translate(-134.16 -257.68)" style="fill:#aad9f5;fill-rule:evenodd"/><path class="cls-7" d="M292.82 308.43c.34-2.33.15-4.83 1.13-7l1.21 1.37a117.06 117.06 0 0 1 11.72 22.57c-4.51 0-9.1.49-13.14 2.67a18.1 18.1 0 0 1-.54-4.82c-.67-4.89-.34-9.85-.38-14.79ZM257.59 350.46c6.72.17 13.15 2.51 19.22 5.21-1.74 2.08-2.52 4.75-4.18 6.86a74.22 74.22 0 0 0-15.04-12.07ZM269 475.65c10.53-5.56 22.59-7.72 34.43-7.63 5.43-.24 10.84.62 16.2 1.39 8.89 1.84 18 4.77 24.88 10.87v1.29c-11.27 4.94-23.5 7.3-35.73 8.11-16.23 1.21-33.09-.5-47.93-7.54 2.05-2.88 5.22-4.64 8.15-6.49Z" transform="translate(-134.16 -257.68)"/><path class="cls-8" d="M338.31 399.94c.16-3.3.25-6.61.32-9.91 4.53-.25 9.24.85 12.64 4v11.68c-3.63-3.14-8.08-5.55-12.96-5.77ZM282.31 392.15c3-1.08 6.21-1 9.34-.92.07 3.56.22 7.13.2 10.7-5.8-.31-11.13 2.35-15.88 5.4v-10.34a14.88 14.88 0 0 1 6.34-4.84ZM277.48 412.81a23.33 23.33 0 0 1 16.3-3.89 22.85 22.85 0 0 1 16.77 10.89c.45.78.91 1.54 1.42 2.29 1.79-4.06 4.65-7.83 8.68-9.87 5-2.56 11-2 16.13-.08a26 26 0 0 1 15.94 18.78c1.45 6.72.86 14.08-2.53 20.15a20.78 20.78 0 0 1-15.76 10.68 19 19 0 0 1-9.64-1.37 19.1 19.1 0 0 1 1.12 4.06 57.22 57.22 0 0 1-12.42-4.09c.15 1.36.33 2.74.45 4.11-2.13 1.7-4.67 3.36-7.52 3.06-2.17-.28-4.76-1-5.66-3.2 1-3.41 4.15-5.55 6-8.51a24 24 0 0 1-14.64 6.28c-7.07.37-14.77-1.18-20-6.31-5.41-5.26-7.23-13.17-7-20.49a28.28 28.28 0 0 1 12.35-22.49Zm7.45-1.3a24.85 24.85 0 0 0-15.35 13.58c-3 6.1-3.09 13.3-1.35 19.77a19.53 19.53 0 0 0 10.31 12.87 27.47 27.47 0 0 0 15.95 2c7.6-1.3 14-7.1 16.69-14.24a28.48 28.48 0 0 0 .3-18.85 23 23 0 0 0-10-13 21.77 21.77 0 0 0-16.52-2.11Zm39.36 2c-5.38 1.33-9.48 5.88-11.31 11 2 6.24 2.77 13.09.88 19.45a11.33 11.33 0 0 0-.71 2.67 44 44 0 0 1 5.05 4c2.17 2 3.56 4.61 5.23 7a17.58 17.58 0 0 0 12.57 1.81 19.37 19.37 0 0 0 12.75-9.73 26.1 26.1 0 0 0 2.11-18.37 23.79 23.79 0 0 0-12.15-15.7c-4.41-2.21-9.6-3.34-14.46-2.14Zm-11.9 34.25a22.39 22.39 0 0 1-5 7.27c4.67 4.4 10.91 6.7 17 8.22a17.28 17.28 0 0 0-1-2.8c-2.16-5-6-9.11-10.15-12.55l-.9-.14Zm-6.08 9.86a57.22 57.22 0 0 1-3.75 4.9c-.62.66-.39 1.6-.38 2.42.71.31 1.41.64 2.12 1a12.32 12.32 0 0 0 4.09.55 24.8 24.8 0 0 0 4.71-2.71l-.91-.22a20.39 20.39 0 0 1-4.8-5.9ZM223.7 459.34c2.13-3 4.3-5.94 6.42-8.92l2 2.12c.09-.27.28-.83.36-1.11a35.3 35.3 0 0 0-1.66 9.17c-2.39-.4-4.74-.91-7.12-1.26ZM232.17 460.9c.84-1.9 1.6-3.83 2.46-5.72 1.2 2 1.09 4.4 1.89 6.54-1.44-.34-2.89-.6-4.35-.82ZM230.61 463.11c2.07.29 4.06-.51 6-1a28.35 28.35 0 0 0 1.61 3.76 2.38 2.38 0 0 0-1.56 1.1c-2.12 2.81-4.18 5.66-6.36 8.43-1.17-3.72-2.6-7.35-3.8-11.06 1.32-.24 2.65-.52 4-.83l.63.94c-.13-.33-.39-1-.52-1.34Z" transform="translate(-134.16 -257.68)"/><path class="cls-4" d="M295.77 427.23a13.16 13.16 0 0 1 12.06 3.7 12.92 12.92 0 1 1-12.06-3.7Zm-4.45 2.85a5.39 5.39 0 0 0-2.45 4.74 3 3 0 0 0 2.77 3c3.18-.21 5.24-4.17 3.87-7a2.85 2.85 0 0 0-4.19-.74ZM324.82 427.85a11.08 11.08 0 0 1 9.94 2.16 12.88 12.88 0 0 1 2.91 15.99 11.2 11.2 0 0 1-19.87 0 13 13 0 0 1 2.67-15.76 11.31 11.31 0 0 1 4.35-2.35Zm-2 2.35c-2.74 1-4.28 5.18-1.85 7.21 2.46 1.47 5.2-1.14 5.55-3.57.67-2.12-1.45-4.67-3.69-3.64Z" transform="translate(-134.16 -257.68)"/><path class="cls-9" d="m312.39 447.75.9.14c4.19 3.44 8 7.51 10.15 12.55a17.28 17.28 0 0 1 1 2.8c-6.12-1.52-12.36-3.82-17-8.22a22.39 22.39 0 0 0 4.95-7.27ZM306.31 457.61h1.08a20.39 20.39 0 0 0 4.8 5.9l.91.22a24.8 24.8 0 0 1-4.71 2.71 12.32 12.32 0 0 1-4.09-.55c-.71-.33-1.41-.66-2.12-1 0-.82-.24-1.76.38-2.42a57.22 57.22 0 0 0 3.75-4.86Z" transform="translate(-134.16 -257.68)"/></svg>