<svg id="Warstwa_1" data-name="Warstwa 1" xmlns="http://www.w3.org/2000/svg" viewBox="0 0 326.55 326.55"><defs><style>.cls-10,.cls-11,.cls-4,.cls-5,.cls-8{fill-rule:evenodd}.cls-4{fill:#f8e32f}.cls-8{fill:#b35244}.cls-10{fill:#eba929}.cls-11{fill:#fff}</style></defs><rect x=".28" y=".28" width="325.98" height="325.98" rx="45.38" style="stroke:#fff;stroke-width:.57px;fill:none;stroke-miterlimit:22.93"/><path d="M196.16 367.14V474.9c0 11 1.68 20.39 6.85 28.91a45.13 45.13 0 0 0 7.85 10.19 34 34 0 0 0 3.09 2.91c.61.49.88.78 1.58 1.3a45.58 45.58 0 0 0 13.85 7.27c8 2.28 11.63 1.92 19.57 1.54l27.36-2.16c4.73-.12 11.62-1.07 16.57-1.2 1.64 0 3.87-.44 5.51-.48 4.59-.12 12.08-1.14 16.33-1.2l27.6-2.16a53.2 53.2 0 0 0 5.38-.38c1.86-.27 3.68-.17 5.56-.44 16.18-2.27 28.19-9.16 37.43-21.84a25 25 0 0 0 3.31-5.86c.51-1.41 1.92-4.53 1.72-5.91s-2-1-3.2-2.16a7.3 7.3 0 0 0-3.35-1.87c-3 6.18-9.17 11.57-15.14 13.39a40.8 40.8 0 0 1-18.64 9.33c-5.73 1.15-19.23 1.79-25.57 2.28-1.51.11-3.7.44-5.29.46s-3.84.25-5.11.42c-3.13.41-12.35.67-15.63 1.16l-62.3 4.66c-10.49 0-19.92-6.65-25.4-15.16a36.8 36.8 0 0 1-5.53-18.9V362.82a36.68 36.68 0 0 1 5.71-19.49q.63-1 1.32-1.95c.83-6.25 2.57-10.2 9.24-15.82a7.62 7.62 0 0 0-3.71-3.62c-2.21-.95-1.3-2.31-3-1.51a49.43 49.43 0 0 0-5.68 3.59 48.78 48.78 0 0 0-8.48 9 63 63 0 0 0-4.93 8.26c-3.95 9.64-4.87 14.24-4.87 25.86Z" transform="translate(-134.16 -257.68)" style="fill-rule:evenodd;fill:#9c3603"/><path d="m251.45 313.56 105.66 10.05c22.53 2.15 41.11 18.53 41.16 41.17l.22 98.2c.05 22.64-18.59 39.45-41.16 41.16l-105.88 8.06c-22.58 1.72-41.16-18.52-41.16-41.16V354.72c0-22.64 18.62-43.3 41.16-41.16Z" transform="translate(-134.16 -257.68)" style="stroke:#f60;stroke-width:9.92px;fill-rule:evenodd;fill:none;stroke-miterlimit:22.93"/><path class="cls-4" d="M197 370.31c4.58-2.76 9.76-5.29 15.73-5.65 7.9-.45 14.79 1.65 22 3.58-6.1-9.45-9.7-21.3-7.48-31.89a112.72 112.72 0 0 0-30.43 34.06 1 1 0 0 1 .18-.1Z" transform="translate(-134.16 -257.68)"/><path class="cls-5" d="M224.68 340.59a112.16 112.16 0 0 0-22.77 25.25 30.88 30.88 0 0 1 10.73-2.74c6.57-.38 12.57.94 18.31 2.46-4.59-8.28-6.79-17-6.27-25Zm-27.76 31.3a2.36 2.36 0 0 1-1.21-.3 1.32 1.32 0 0 1-.69-1.8 114.36 114.36 0 0 1 30.85-34.57 2.56 2.56 0 0 1 2.35-.26 1.51 1.51 0 0 1 1.08 1.63c-1.92 9.24.76 20.66 7.13 30.66a1.28 1.28 0 0 1 .46 1 1.86 1.86 0 0 1-2 1.57h-.07a3.23 3.23 0 0 1-.66-.07l-1.75-.49c-6.5-1.75-12.6-3.42-19.44-3-5.6.33-10.56 2.89-14.65 5.32a2.86 2.86 0 0 1-1.4.31Z" transform="translate(-134.16 -257.68)"/><path class="cls-4" d="M286.87 336.35c5.94-10.53 19.47-21 34.42-17.82a23.53 23.53 0 0 1 1.71-13.66c-15.87-1.59-32.11 1.52-47.06 8.41 6.91 4.66 9.77 15.37 10.93 23.07Z" transform="translate(-134.16 -257.68)"/><path class="cls-5" d="M279.23 313.62c4.69 4.3 7.3 11.24 8.75 17.65 6.13-7.95 16.23-14.89 27.85-14.89a25.16 25.16 0 0 1 3.13.18 25.43 25.43 0 0 1 1.4-10.34 88.85 88.85 0 0 0-41.13 7.4Zm7.65 24.29h-.29a1.87 1.87 0 0 1-1.72-1.37c-1.68-10.89-5.31-18.74-10.26-22.11a1.44 1.44 0 0 1-.67-1.32 1.65 1.65 0 0 1 1-1.19c15.64-7.16 32.57-10.18 48.34-8.58a2.11 2.11 0 0 1 1.49.73 1.28 1.28 0 0 1 .17 1.32 22.54 22.54 0 0 0-1.72 12.61 1.17 1.17 0 0 1 .17.55c0 .89-1 1.55-2.08 1.58a2 2 0 0 1-.56-.05 22.68 22.68 0 0 0-4.92-.54c-11.91 0-22.17 8.79-27.09 17.48a2.12 2.12 0 0 1-1.86.89Z" transform="translate(-134.16 -257.68)"/><path class="cls-4" d="M243.33 385.93a120.62 120.62 0 0 0-23.66 5.34 98.46 98.46 0 0 0-3.84 17c7.27-8.56 17.33-16.09 27.5-22.34Z" transform="translate(-134.16 -257.68)"/><path class="cls-5" d="M221.41 392.39a95.9 95.9 0 0 0-2.55 10 120.05 120.05 0 0 1 17-13.67 111.11 111.11 0 0 0-14.45 3.7Zm-5.59 17.5a2.93 2.93 0 0 1-.65-.1 1.6 1.6 0 0 1-1.36-1.63 103.46 103.46 0 0 1 3.86-17.27 1.86 1.86 0 0 1 1.15-1 124.05 124.05 0 0 1 24.18-5.5 2.22 2.22 0 0 1 2.21.91 1.36 1.36 0 0 1-.59 1.85c-11.72 7.22-20.83 14.61-27.07 22a2.27 2.27 0 0 1-1.73.74Z" transform="translate(-134.16 -257.68)"/><path class="cls-4" d="M320.21 354.17a29.88 29.88 0 0 1-3.44-6.66c-4.09 1.55-8.17 3.14-12.34 4.53a33.3 33.3 0 0 1-.69 11.29 97.16 97.16 0 0 1 16.47-9.16Z" transform="translate(-134.16 -257.68)"/><path class="cls-5" d="M306.6 353a30.1 30.1 0 0 1-.16 6.45 110.07 110.07 0 0 1 11.12-5.9 29.66 29.66 0 0 1-2.05-3.85c-2.9 1.12-5.88 2.26-8.91 3.3Zm-2.84 11.87a3 3 0 0 1-.95-.15 1.5 1.5 0 0 1-1.06-1.62 34.27 34.27 0 0 0 .69-10.91 1.56 1.56 0 0 1 1.19-1.6c3.47-1.17 6.93-2.48 10.26-3.75l2-.73a2.35 2.35 0 0 1 1.73 0 1.64 1.64 0 0 1 1.12 1 28.08 28.08 0 0 0 3.29 6.36 1.36 1.36 0 0 1-.76 2 90.45 90.45 0 0 0-16.1 9 2.41 2.41 0 0 1-1.41.42Z" transform="translate(-134.16 -257.68)"/><path class="cls-4" d="M396.67 375.32c-8.25 4.74-17.33 8.64-27.4 9.91 4.1 3.49 6.22 8.74 7 14a128.93 128.93 0 0 1 22.38-5c-2.51-5.89-2.81-12.6-1.98-18.91Z" transform="translate(-134.16 -257.68)"/><path d="M372.86 386.25a24.7 24.7 0 0 1 5.08 10.75 132 132 0 0 1 18.18-4 36.16 36.16 0 0 1-1.81-14.54 74.57 74.57 0 0 1-21.45 7.73Zm3.43 14.56a2.25 2.25 0 0 1-1-.23 1.59 1.59 0 0 1-1-1.16c-.63-4-2.25-9.53-6.54-13.17a1.28 1.28 0 0 1-.39-1.55 2 2 0 0 1 1.58-1c8.45-1 17.13-4.17 26.53-9.59a2.57 2.57 0 0 1 2.22-.1 1.55 1.55 0 0 1 1 1.52c-.93 6.88-.27 13.21 1.94 18.28a1.29 1.29 0 0 1-.2 1.29 2.08 2.08 0 0 1-1.38.74 126.27 126.27 0 0 0-21.95 4.86 2.25 2.25 0 0 1-.81.11Z" transform="translate(-134.16 -257.68)" style="fill:#0c4b4f;fill-rule:evenodd"/><path class="cls-4" d="M319.34 439.49c-6.64 3.82-14 6.94-22.08 7.95 3.33 2.83 5 7.07 5.68 11.32a102.6 102.6 0 0 1 18-4 29.61 29.61 0 0 1-1.6-15.27Z" transform="translate(-134.16 -257.68)"/><path class="cls-5" d="M300.78 448.48a19.92 19.92 0 0 1 3.77 8.08 104.65 104.65 0 0 1 13.86-3 29 29 0 0 1-1.41-10.9 60.43 60.43 0 0 1-16.25 5.82Zm2.16 11.83a2.9 2.9 0 0 1-1-.2 1.65 1.65 0 0 1-1-1.17c-.5-3.19-1.78-7.57-5.15-10.46a1.29 1.29 0 0 1-.43-1.54 2 2 0 0 1 1.58-1c6.84-.86 13.57-3.29 21.19-7.67a2.52 2.52 0 0 1 2.22-.12 1.46 1.46 0 0 1 1 1.51 27.92 27.92 0 0 0 1.55 14.62 1.23 1.23 0 0 1-.17 1.29 2.25 2.25 0 0 1-1.38.73 101.86 101.86 0 0 0-17.63 3.9 2.45 2.45 0 0 1-.78.11Z" transform="translate(-134.16 -257.68)"/><path class="cls-4" d="M247.4 405.26a38.7 38.7 0 0 1-14.55 5.24 12 12 0 0 1 3.76 7.45 67.26 67.26 0 0 1 11.88-2.64 19.25 19.25 0 0 1-1.09-10.05Z" transform="translate(-134.16 -257.68)"/><path class="cls-5" d="M236.23 411.52a13.35 13.35 0 0 1 2 4.25 76 76 0 0 1 7.76-1.67 19.69 19.69 0 0 1-.8-5.75 40.65 40.65 0 0 1-8.91 3.17Zm.36 8a2.38 2.38 0 0 1-1-.2 1.61 1.61 0 0 1-1-1.16 10.68 10.68 0 0 0-3.24-6.59A1.3 1.3 0 0 1 231 410a2 2 0 0 1 1.58-1 35.85 35.85 0 0 0 13.62-5 2.52 2.52 0 0 1 2.21-.13 1.54 1.54 0 0 1 1 1.52 17.69 17.69 0 0 0 1 9.39 1.31 1.31 0 0 1-.2 1.3 2.08 2.08 0 0 1-1.38.74 69 69 0 0 0-11.45 2.52 2 2 0 0 1-.79.15Z" transform="translate(-134.16 -257.68)"/><path class="cls-4" d="M345.86 354.25c5.87-2.4 12.15-3.36 19-1.39 6.33 1.82 11.22 6 15.34 10.21-.29-4.91 1.06-10.44 8.75-10.26a17.69 17.69 0 0 1 7.06 1.64A68.81 68.81 0 0 0 358.8 314c3.53 13.21-4.52 28.53-12.94 40.25Z" transform="translate(-134.16 -257.68)"/><path class="cls-5" d="M357.43 350.23a29.85 29.85 0 0 1 8.12 1.17 34 34 0 0 1 12.84 7.44 8.81 8.81 0 0 1 3.1-5.44 10.94 10.94 0 0 1 7.09-2.15h.4a19.45 19.45 0 0 1 3.86.45 67.38 67.38 0 0 0-31.39-34.62c1.23 9.58-2.5 21-11.12 34a29.9 29.9 0 0 1 7.1-.86Zm22.74 14.39a2.31 2.31 0 0 1-1.62-.63c-3.47-3.58-8.28-7.88-14.45-9.68-5.61-1.62-11.12-1.21-17.26 1.31a2.53 2.53 0 0 1-2.41-.27 1.27 1.27 0 0 1-.33-1.85c11.19-15.63 15.47-28.82 12.7-39.2a1.43 1.43 0 0 1 .83-1.57 2.43 2.43 0 0 1 2.18-.11 70.76 70.76 0 0 1 38 41.11 1.16 1.16 0 0 1 .26.73 1.87 1.87 0 0 1-2 1.57 2.59 2.59 0 0 1-1.06-.23 15.06 15.06 0 0 0-6.11-1.44 6.62 6.62 0 0 0-4.41 1.19c-1.62 1.29-2.38 3.75-2.25 7.1a.82.82 0 0 1 .1.4 1.86 1.86 0 0 1-2 1.57Z" transform="translate(-134.16 -257.68)"/><path class="cls-4" d="M412 408.31s5.12 42.37-30.46 63.82c0 0-16.44-26.52-40.07-18.38 0 0 21.82-11.32 7.33-26.39 0 0 33.8 11.52 47.22.88S412 408.31 412 408.31Z" transform="translate(-134.16 -257.68)"/><path class="cls-5" d="M350.45 450.65c16.57 0 28.09 14 31.71 19.06 23.6-15.42 27.57-40.94 28-53.61a61 61 0 0 1-12.68 13.23c-4.15 3.31-10.42 5-18.58 5-9.4 0-19.33-2.24-25.31-3.86a13.34 13.34 0 0 1 1.89 10.11c-.93 4.2-3.84 7.64-6.67 10.13.56 0 1.12-.05 1.68-.05Zm31.05 23a2.79 2.79 0 0 1-.46-.05 2.05 2.05 0 0 1-1.35-.83c-.13-.2-12-19.05-29.24-19.05a25 25 0 0 0-8.18 1.42 2.34 2.34 0 0 1-2.61-.66 1.33 1.33 0 0 1 .62-2c.11-.05 9.51-5 11.16-12.43.89-3.93-.6-7.88-4.32-11.75a1.32 1.32 0 0 1 0-1.93 2.49 2.49 0 0 1 2.41-.43c.16.05 15.64 5.27 29.3 5.27 7 0 12.29-1.37 15.68-4.06C407.35 417 410 408.08 410 408a2.11 2.11 0 0 1 2.11-1.24 1.87 1.87 0 0 1 1.92 1.42 74.36 74.36 0 0 1-1.92 24.28c-4.22 17.73-14.35 31.89-29.3 40.9a2.49 2.49 0 0 1-1.31.33Z" transform="translate(-134.16 -257.68)"/><path class="cls-4" d="M232.32 452.45c1.59-3.5 5.08-5.65 9.38-7-9.68-.51-19.87-2.56-24.42-8.44-9.87-12.73-9.54-22.21-9.54-22.21s-16.27 37.06 7.19 64.05c.93-6.53 7.69-13.3 13.46-17.09a31.41 31.41 0 0 1 7.54-3.55c-3.04-1.21-4.93-2.95-3.61-5.76Z" transform="translate(-134.16 -257.68)"/><path d="M207.2 422.67c-3.14 11.34-6.61 33.68 6.86 52.07 2.47-5.73 8.18-11 13-14.21a32.62 32.62 0 0 1 4.86-2.61 4.6 4.6 0 0 1-1.55-6 12.64 12.64 0 0 1 5.08-5.5c-9.74-1.24-16.44-4.15-19.94-8.66a51.4 51.4 0 0 1-8.34-15.12Zm7.8 57.71a2.18 2.18 0 0 1-1.68-.7c-23.76-27.33-8.12-63.88-7.46-65.42a2.2 2.2 0 0 1 2.27-1c1 .15 1.73.81 1.69 1.56 0 .1-.17 9.25 9.24 21.4 4.35 5.57 14.82 7.24 22.8 7.67a1.93 1.93 0 0 1 1.89 1.3 1.55 1.55 0 0 1-1.23 1.7c-4.29 1.36-7 3.38-8.25 6.1-.56 1.26-.65 2.58 2.58 3.8a1.58 1.58 0 0 1 1.15 1.41 1.63 1.63 0 0 1-1.23 1.39 28.84 28.84 0 0 0-7 3.32c-5.77 3.8-12 10.23-12.77 16.08a1.77 1.77 0 0 1-1.51 1.34 2.92 2.92 0 0 1-.49.05Z" transform="translate(-134.16 -257.68)" style="stroke-miterlimit:10;stroke-width:.22px;stroke:#000;fill-rule:evenodd"/><path class="cls-4" d="m345.86 400.81-28.11-3.7s9.07 6.21 2.47 17.8l14.65 10.44s-2.21-16.59 10.99-24.54Z" transform="translate(-134.16 -257.68)"/><path class="cls-5" d="m322.63 414.5 10.07 7.17c.13-5 1.51-13.73 8.77-19.86l-19.14-2.5c2.11 3.06 3.86 8.17.3 15.19Zm12.24 12.41a2.4 2.4 0 0 1-1.38-.43l-14.66-10.43a1.37 1.37 0 0 1-.5-1.78c5.92-10.33-1.64-15.78-1.94-16a1.31 1.31 0 0 1-.46-1.85 2.17 2.17 0 0 1 2.14-.86l28.12 3.7a2 2 0 0 1 1.65 1.14 1.39 1.39 0 0 1-.72 1.62c-12.15 7.29-10.23 23-10.23 23.14a1.49 1.49 0 0 1-1.13 1.55 2.09 2.09 0 0 1-.89.2Z" transform="translate(-134.16 -257.68)"/><path class="cls-4" d="M269.88 444.47s-5.75 22.06-26.54 27.66c0 0 30.66-.43 32.64 15.14.02 0 11.52-13.01-6.1-42.8Z" transform="translate(-134.16 -257.68)"/><path class="cls-5" d="M250.9 471c8.35.87 20.86 3.45 25.45 11.3 1.81-5.4 2.94-16.16-6-33.08-2.45 5.88-8.12 16.13-19.41 21.78Zm25.1 17.84a3 3 0 0 1-.53 0 1.77 1.77 0 0 1-1.51-1.35c-1.69-13.36-27.46-13.74-30.37-13.74a2.11 2.11 0 0 1-2.14-1.32 1.5 1.5 0 0 1 1.22-1.73c19.47-5.24 25.18-26.28 25.21-26.49a2 2 0 0 1 1.78-1.24 2.18 2.18 0 0 1 2.09.91c17.88 30.22 6.4 43.77 5.9 44.32a2.18 2.18 0 0 1-1.65.64Z" transform="translate(-134.16 -257.68)"/><path class="cls-8" d="m186.88 214.44 28.06 74.61 12.31-7.35-40.37-67.26zM98.7 226.77l-52.74 44.69-5.35-8.36 58.09-36.33zM136.87 107.98 91.76 50.95l11.81-2.15 33.3 59.18z"/><path style="stroke:#b35244;fill:#b35244;stroke-miterlimit:10;stroke-width:.22px;fill-rule:evenodd" d="m317.01 88.26-112.34 34.81 114.35-29.39-2.01-5.42z"/><path class="cls-4" d="M226.84 515.58s30.62 22.68 69.33 15.85c0 0-20.42-15.07-17.78-32.34 0 0-27.07 16.86-39.67-5 0 0 5.05 21-.49 19.3s-11.39 2.19-11.39 2.19Z" transform="translate(-134.16 -257.68)"/><path class="cls-5" d="M230.13 515.73c6.08 3.9 26.08 15.42 51.33 15.42a80.68 80.68 0 0 0 10.73-.71C287 526 276.12 515 276.12 502.2c-4 2-11 4.66-18.36 4.66a23.31 23.31 0 0 1-15.55-5.49c.84 5.19 1.13 10.91-.89 12.76a4 4 0 0 1-3.86.74c-2.38-.74-5.44 0-7.33.86Zm51.33 18.53c-31.91 0-55-16.84-56-17.57a1.37 1.37 0 0 1-.6-1.16 1.46 1.46 0 0 1 .69-1.14 19.56 19.56 0 0 1 9.71-3 13.6 13.6 0 0 1 3.2.38c.89-2 .16-9.57-1.72-17.39a1.61 1.61 0 0 1 1.42-1.78 2.22 2.22 0 0 1 2.45.87c3.92 6.81 9.7 10.25 17.19 10.25 9.83 0 19.27-5.8 19.38-5.85a2.48 2.48 0 0 1 2.24-.18 1.52 1.52 0 0 1 1 1.58c-2.51 16.28 17 30.86 17.17 31a1.31 1.31 0 0 1 .56 1.53 2 2 0 0 1-1.55 1.2 88.85 88.85 0 0 1-15.14 1.26ZM256.27 282.25a4.16 4.16 0 0 1 3.5-.6 15.8 15.8 0 0 1 5.34 2.53 45.83 45.83 0 0 1 9.06 8.59 59.5 59.5 0 0 1 9.08 14.92 147 147 0 0 1 7.24 20.49c1.81 7 2.91 14.13 4.3 21.2 2.8 14.69 6.36 29.21 10.3 43.62 10.56-1.22 21.34 1.29 30.7 6.18a67.14 67.14 0 0 1 16.76 12.52 133.35 133.35 0 0 0 24.76-16.95c2.8-2.37 5.42-4.95 8.07-7.48A56.18 56.18 0 0 1 371 412.91a55.42 55.42 0 0 1-10.74 8.42c5.48 8.37 9.08 18.24 8.86 28.34a35.31 35.31 0 0 1-4.93 17.87c-4 6.67-10.38 11.62-17.37 14.86-9.37 4.34-19.75 6.05-30 6.43a131.33 131.33 0 0 1-20.41-.95c-8.89-1.19-17.87-3.56-25.32-8.73a33 33 0 0 1-9.07-9.43c-5.3-.41-10.92-.24-15.72 2.28a12.23 12.23 0 0 0-6.3 7.93 21 21 0 0 0 .47 10.48 31.53 31.53 0 0 1-5.14-5.25 49.75 49.75 0 0 1-7.08-10.81 37.8 37.8 0 0 1 13.43-6.45 37.35 37.35 0 0 1 19.21-.14c-.35-.66-.68-1.33-1-2a57.08 57.08 0 0 0-16.93-4.91c-7.34-1-15.06-.91-22 1.79a28.64 28.64 0 0 0 4-6.76c.89-2.56.86-5.31.94-8 9.12.79 17.65 4.7 25.28 9.59q3.88 2.5 7.55 5.33a43.24 43.24 0 0 1-2.4-15.94c.45-9.93 4.22-19.5 9.65-27.74 6.83-10.28 16.55-18.83 28.09-23.37A77 77 0 0 0 281.3 399a112.68 112.68 0 0 0-16.91 7.16c-4.91 2.73-10 5.65-13.26 10.41a18.18 18.18 0 0 1 .06-5.26 80.23 80.23 0 0 1 1.53-8.85c5.16-1.85 10.46-3.32 15.78-4.65a146.73 146.73 0 0 1 17.14-3.27 52.76 52.76 0 0 1 12.43-.24 6.49 6.49 0 0 0 1.62-.29 32 32 0 0 0-13.56-7.39 41.33 41.33 0 0 0-17.59-1c-5.44.91-10.49 3.32-15.9 4.35a35.14 35.14 0 0 1-13.82.21c-1.49-.38-3.22-.91-3.95-2.39a5.87 5.87 0 0 1 .66-4.15 13.09 13.09 0 0 1 5-4.89 39.32 39.32 0 0 1 9.62-3.87 59.56 59.56 0 0 1 14.22-2.12 45.22 45.22 0 0 1 26.37 9.8 52.43 52.43 0 0 1 10.49 11.11c1.2-.27 2.42-.46 3.64-.62-5-14.32-11-28.38-19.27-41.16-3.92-6.15-8.21-12-12.07-18.22A179 179 0 0 1 260.35 308a96.72 96.72 0 0 1-4.77-13.71 25.5 25.5 0 0 1-.93-8.59 5.06 5.06 0 0 1 1.62-3.44ZM361 407.85a125.24 125.24 0 0 1-63 18.91 32.52 32.52 0 0 0 4.13 1.07c12.77 2.74 26.16 3.16 38.93.19a61 61 0 0 0 26.83-13.45 54.31 54.31 0 0 0 15.65-24.24A139.85 139.85 0 0 1 361 407.85Zm-59.7-12.43a48.14 48.14 0 0 0-14.47 5.82 61.67 61.67 0 0 0-21.34 21.93 54.64 54.64 0 0 0-6.78 17.52 39.51 39.51 0 0 0 .09 16.1 34.74 34.74 0 0 0 6.51 14.58 33.07 33.07 0 0 0 10.59 8.68c9 4.74 19.23 6.27 29.24 6.87 1.38-2.47 2.88-4.87 4.44-7.24a39.2 39.2 0 0 1 9.74-10.68c4.31-3.08 9.41-4.77 14.5-6 4.86-1.18 10-1.71 14.92-.39a30 30 0 0 1 12 6.83c.27-.35.55-.69.83-1v-.16a32.35 32.35 0 0 0 5.79-17.78c.41-10.06-3.15-19.94-8.62-28.26a60.32 60.32 0 0 1-7 3.39 72.43 72.43 0 0 1-19.49 4.84 15 15 0 0 0-2.55 7.37 13.79 13.79 0 0 0 3.19 8.45 41.27 41.27 0 0 0 6.84 6.95 92.92 92.92 0 0 0 9.21 2.08c-11.39 1.55-23.5-.44-33.27-6.67a34.08 34.08 0 0 1-14.46-18.91 26.64 26.64 0 0 1-12.21-2.63 15.84 15.84 0 0 1-7.65-8.11 14.45 14.45 0 0 1-.17-10.2 17.24 17.24 0 0 1 5.16-6.73 23.83 23.83 0 0 1 14.79-4.79 34.71 34.71 0 0 1 14.82 3.62 30 30 0 0 1 2.66-5.71 44.7 44.7 0 0 0-17.25.26Zm-14.54-.14a146.08 146.08 0 0 0-18.9 3.58c-4.85 1.26-9.7 2.56-14.41 4.28a78.61 78.61 0 0 0-1.64 11 31.4 31.4 0 0 1 6.13-5.19 82 82 0 0 1 12.17-6.57 105.16 105.16 0 0 1 23.32-7.47 47.94 47.94 0 0 0-6.67.36Zm31.05 6.72a19.88 19.88 0 0 1 7.63 7.86 11.71 11.71 0 0 1 .69 8.66 21.3 21.3 0 0 0 7.15 1.28c3.59-1.11 7.09-2.5 10.55-4 1-.24 1.09-1.43 1.37-2.24.85-4-1.5-7.81-4.41-10.3a53.5 53.5 0 0 0-6.26-3.65 15.9 15.9 0 0 0-7-1.67c-3.59-.12-7.46 1.06-9.7 4Zm-9.28.81a15.6 15.6 0 0 0-9.59 3.95 9.46 9.46 0 0 0-3.06 6.79 11.53 11.53 0 0 0 2.8 8.13 12.53 12.53 0 0 0 6.79 3.76 115 115 0 0 0 14.66-2.1 5 5 0 0 0 2.37-1.58 9.67 9.67 0 0 0 2.76-8.24 11.83 11.83 0 0 0-4.68-7.36 18.07 18.07 0 0 0-12.05-3.35Zm15.09 19.74c2.09-.52 4.18-1 6.23-1.67a38.35 38.35 0 0 1-4.23-1.17 13.47 13.47 0 0 1-2 2.84Zm-22 6.05a33.19 33.19 0 0 0 12.74 18.25c8.43 6.05 19.07 8.6 29.35 8.14-3.61-.89-7.22-1.84-10.74-3.08-7.57-2.64-14.94-6.19-21.11-11.37a33.25 33.25 0 0 1-9.17-11.71l-1.07-.23Zm26.8 2.14a13.18 13.18 0 0 0-1.26 10.41c1.24 4.07 4.07 7.45 7.26 10.18.95.9 2.34 1 3.53 1.41-3.47-3.29-7.12-6.84-8.53-11.55-1.12-3.63 0-7.52 1.9-10.67-1 .08-1.93.17-2.9.22Zm-10.44.08a14.34 14.34 0 0 1-1.11 7.2c2.2 2.06 4.3 4.73 4.22 7.91a78.63 78.63 0 0 0 12 5.26c-2.86-2.76-5.51-6-6.63-9.84a14.11 14.11 0 0 1 1.06-10.54 84.51 84.51 0 0 1-9.55 0ZM305.16 432c3.7 6 9.42 10.37 15.48 13.72-.13-3.16-2.3-5.73-4.56-7.73a29.08 29.08 0 0 0-10.92-5.99Z" transform="translate(-134.16 -257.68)"/><path class="cls-5" d="M345.71 378.79a73.59 73.59 0 0 1 19.29-3.07c3.13 4.28 6.35 8.5 9.4 12.84a31.62 31.62 0 0 0-4.08-2.13c-5-2-10.48-2.42-15.82-2.42-13.22.22-26.15 3.61-38.55 8 3.32-2.87 7.32-4.73 11.27-6.54a134.75 134.75 0 0 1 18.47-6.67Zm3.28 0A127.81 127.81 0 0 0 322 389c3.49-1 6.94-2.05 10.47-2.86a100.31 100.31 0 0 1 22.08-3c5.69 0 11.53.5 16.8 2.76-.61-1.08-1.44-2-2.14-3-1.58-2.1-3.07-4.26-4.71-6.31a72.61 72.61 0 0 0-15.5 2.24ZM332.3 405.73a4.09 4.09 0 1 1-2.8 4.83 4.11 4.11 0 0 1 2.8-4.83Zm.82.74a1.25 1.25 0 0 0 0 2.12 1.26 1.26 0 0 0 1.88-1.09 1.25 1.25 0 0 0-1.88-1.03ZM315.22 410.42a4.08 4.08 0 1 1-2.8 4.82 4.11 4.11 0 0 1 2.8-4.82Zm1.09.43a1.25 1.25 0 1 0 2 .79 1.26 1.26 0 0 0-2-.79Z" transform="translate(-134.16 -257.68)"/><path class="cls-8" d="M349 378.83a72.61 72.61 0 0 1 15.5-2.27c1.64 2.05 3.13 4.21 4.71 6.31.7 1 1.53 1.95 2.14 3-5.27-2.26-11.11-2.77-16.8-2.76a100.31 100.31 0 0 0-22.08 3c-3.53.81-7 1.91-10.47 2.86a127.81 127.81 0 0 1 27-10.14ZM286.76 395.28a47.94 47.94 0 0 1 6.67-.36 105.16 105.16 0 0 0-23.32 7.47 82 82 0 0 0-12.17 6.61 31.4 31.4 0 0 0-6.13 5.19 78.61 78.61 0 0 1 1.64-11c4.71-1.72 9.56-3 14.41-4.28a146.08 146.08 0 0 1 18.9-3.63ZM317.94 430.83a84.51 84.51 0 0 0 9.55 0 14.11 14.11 0 0 0-1.06 10.54c1.12 3.88 3.77 7.08 6.63 9.84a78.63 78.63 0 0 1-12-5.26c.08-3.18-2-5.85-4.22-7.91a14.34 14.34 0 0 0 1.1-7.21Z" transform="translate(-134.16 -257.68)"/><path class="cls-8" d="M305.16 432a29.08 29.08 0 0 1 10.92 6c2.26 2 4.43 4.57 4.56 7.73-6.06-3.4-11.78-7.82-15.48-13.73Z" transform="translate(-134.16 -257.68)"/><path class="cls-10" d="M361 407.85a139.85 139.85 0 0 0 22.6-17.52 54.31 54.31 0 0 1-15.65 24.24A61 61 0 0 1 341.07 428c-12.77 3-26.16 2.55-38.93-.19a32.52 32.52 0 0 1-4.13-1.07A125.24 125.24 0 0 0 361 407.85Z" transform="translate(-134.16 -257.68)"/><path class="cls-10" d="M272.18 416.09a60.26 60.26 0 0 1 8.94-7.32 14.45 14.45 0 0 0 .17 10.2 15.84 15.84 0 0 0 7.65 8.11 26.64 26.64 0 0 0 12.21 2.63 34.08 34.08 0 0 0 14.46 18.91c9.77 6.23 21.88 8.22 33.27 6.67a92.92 92.92 0 0 1-9.21-2.08 41.27 41.27 0 0 1-6.84-6.95 13.79 13.79 0 0 1-3.19-8.45 15 15 0 0 1 2.55-7.37 72.43 72.43 0 0 0 19.49-4.84 46.6 46.6 0 0 1 10.7 24.5 54.74 54.74 0 0 1-.81 17.08 3.81 3.81 0 0 0-.05 1.07v.16c-.28.34-.56.68-.83 1a30 30 0 0 0-12-6.83c-4.88-1.32-10.06-.79-14.92.39-5.09 1.24-10.19 2.93-14.5 6a39.2 39.2 0 0 0-9.74 10.67c-1.56 2.37-3.06 4.77-4.44 7.24-10-.6-20.26-2.13-29.24-6.87a33.07 33.07 0 0 1-10.59-8.68 34.74 34.74 0 0 1-6.51-14.58 39.51 39.51 0 0 1-.09-16.1 54.64 54.64 0 0 1 6.78-17.52 12.84 12.84 0 0 0 1.13-1.08 71.68 71.68 0 0 1 5.61-5.96Z" transform="translate(-134.16 -257.68)"/><path class="cls-10" d="M323.62 422.56a13.47 13.47 0 0 0 2-2.84 38.35 38.35 0 0 0 4.23 1.17c-2.05.63-4.14 1.11-6.23 1.67ZM301.58 428.61l1.07.23a33.25 33.25 0 0 0 9.17 11.71c6.17 5.18 13.54 8.73 21.11 11.37 3.52 1.24 7.13 2.19 10.74 3.08-10.28.46-20.92-2.09-29.35-8.14a33.19 33.19 0 0 1-12.74-18.25Z" transform="translate(-134.16 -257.68)"/><path class="cls-10" d="M328.38 430.75c1-.05 1.94-.14 2.9-.22-1.91 3.15-3 7-1.9 10.67 1.41 4.71 5.06 8.26 8.53 11.55-1.19-.43-2.58-.51-3.53-1.41-3.19-2.73-6-6.11-7.26-10.18a13.18 13.18 0 0 1 1.26-10.41Z" transform="translate(-134.16 -257.68)"/><path class="cls-4" d="M301.3 395.42a44.7 44.7 0 0 1 17.25-.26 30 30 0 0 0-2.66 5.71 34.71 34.71 0 0 0-14.82-3.62 23.83 23.83 0 0 0-14.79 4.75 17.24 17.24 0 0 0-5.16 6.73 60.26 60.26 0 0 0-8.94 7.32 71.68 71.68 0 0 0-5.56 6 12.84 12.84 0 0 1-1.13 1.08 61.67 61.67 0 0 1 21.34-21.93 48.14 48.14 0 0 1 14.47-5.78ZM351.68 425.6a60.32 60.32 0 0 0 7-3.39c5.47 8.32 9 18.2 8.62 28.26a32.35 32.35 0 0 1-5.79 17.78 3.81 3.81 0 0 1 .05-1.07 54.74 54.74 0 0 0 .81-17.08 46.6 46.6 0 0 0-10.69-24.5Z" transform="translate(-134.16 -257.68)"/><path class="cls-11" d="M317.81 402c2.24-3 6.11-4.14 9.7-4a15.9 15.9 0 0 1 7 1.67 53.5 53.5 0 0 1 6.26 3.65c2.91 2.49 5.26 6.34 4.41 10.3-.28.81-.38 2-1.37 2.24-3.46 1.46-7 2.85-10.55 4a21.3 21.3 0 0 1-7.15-1.28 11.71 11.71 0 0 0-.69-8.66 19.88 19.88 0 0 0-7.63-7.86Zm14.49 3.72a4.09 4.09 0 1 0 5 2.62 4.1 4.1 0 0 0-5-2.61Z" transform="translate(-134.16 -257.68)"/><path class="cls-11" d="M308.53 402.82a18.07 18.07 0 0 1 12.05 3.35 11.83 11.83 0 0 1 4.68 7.36 9.67 9.67 0 0 1-2.76 8.24 5 5 0 0 1-2.37 1.58 115 115 0 0 1-14.66 2.1 12.53 12.53 0 0 1-6.79-3.76 11.53 11.53 0 0 1-2.8-8.13 9.46 9.46 0 0 1 3.06-6.79 15.6 15.6 0 0 1 9.59-3.95Zm6.69 7.6a4.08 4.08 0 1 0 5.11 2.83 4.09 4.09 0 0 0-5.11-2.83ZM333.12 406.47a1.25 1.25 0 0 1 1.9 1 1.26 1.26 0 0 1-1.91 1.09 1.25 1.25 0 0 1 .01-2.09Z" transform="translate(-134.16 -257.68)"/><path class="cls-11" d="M316.31 410.85a1.25 1.25 0 1 1 .22 2.12 1.26 1.26 0 0 1-.22-2.12Z" transform="translate(-134.16 -257.68)"/></svg>