<svg id="Warstwa_1" data-name="Warstwa 1" xmlns="http://www.w3.org/2000/svg" viewBox="0 0 326.55 326.55"><defs><style>.cls-4,.cls-5,.cls-6,.cls-7,.cls-8,.cls-9{fill-rule:evenodd}.cls-4{fill:#020202}.cls-5{fill:#9fdff6}.cls-6{fill:#7ecae2}.cls-7{fill:#af3702}.cls-8{fill:#fdac02}.cls-9{fill:#00aeef}</style></defs><rect x=".28" y=".28" width="325.98" height="325.98" rx="45.38" style="stroke:#fff;stroke-miterlimit:22.93;stroke-width:.57px;fill:none"/><path d="M196.4 366.58v107.76c0 11 1.68 20.39 6.85 28.91a45.12 45.12 0 0 0 7.88 10.15 35.43 35.43 0 0 0 3.09 2.91c.61.49.88.78 1.58 1.3a45.81 45.81 0 0 0 13.85 7.27 40.86 40.86 0 0 0 11.79 1.82h.56c2.13 0 4.42-.15 7.25-.28l27.36-2.16c4.73-.12 11.62-1.07 16.57-1.19 1.64-.05 3.87-.45 5.51-.49 4.59-.12 12.08-1.14 16.33-1.2l27.6-2.15c1.74-.09 3.68-.13 5.38-.39 1.86-.27 3.68-.17 5.56-.43 16.18-2.28 28.19-9.16 37.43-21.85a24.42 24.42 0 0 0 3.34-5.82c.51-1.41 1.92-4.52 1.72-5.91s-2-1-3.21-2.16a7.12 7.12 0 0 0-3.34-1.87c-3 6.18-9.17 11.57-15.14 13.38a40.76 40.76 0 0 1-18.67 9.33c-5.73 1.15-19.23 1.79-25.57 2.28-1.51.11-3.7.44-5.29.46a49.8 49.8 0 0 0-5.11.42c-3.13.42-12.35.67-15.64 1.16l-62.29 4.68c-10.49 0-19.92-6.65-25.4-15.16a36.86 36.86 0 0 1-5.56-18.92V362.26a36.6 36.6 0 0 1 5.71-19.48q.63-1 1.32-1.95c.83-6.25 2.57-10.21 9.24-15.82a7.57 7.57 0 0 0-3.71-3.63c-2.21-.95-1.3-2.31-3-1.51a50.24 50.24 0 0 0-5.68 3.59 48.9 48.9 0 0 0-8.48 9 62.54 62.54 0 0 0-4.93 8.26c-3.98 9.64-4.9 14.28-4.9 25.86Z" transform="translate(-134.16 -257.68)" style="fill-rule:evenodd;fill:#9c3603"/><path d="m251.69 313 105.66 10.06c22.53 2.14 41.11 18.52 41.16 41.16l.21 98.21c.06 22.63-18.58 39.44-41.16 41.16l-105.87 8.05c-22.56 1.72-41.16-18.52-41.16-41.13V354.16c0-22.65 18.6-43.3 41.16-41.16Z" transform="translate(-134.16 -257.68)" style="stroke:#f60;stroke-miterlimit:22.93;stroke-width:9.92px;fill-rule:evenodd;fill:none"/><path class="cls-4" d="M234.67 470.09c.25 1.26.52 2.51.79 3.75 1.12 2.49 1.88 5.16 3.35 7.47 2.38 1.44 5.32-.1 7.52-1.28-.06-4-.28-7.92-.58-11.87v-1.42c-3.62 1.07-7.53 1.68-11.06 3.33Zm58.09-9.37a6 6 0 0 1-.11.72c5.35 5.21 12.15 9.56 19.7 10.56 9.83.52 19.56-3.06 27.73-8.34-11.81-1.29-23.6-2.74-35.44-3.62a46.42 46.42 0 0 0-11.88.69ZM306 446.88a30.76 30.76 0 0 1 6.41-3.15c2.38-.69 4.78.21 7.12.68a125.57 125.57 0 0 1 41.12 15.92 52.5 52.5 0 0 1 7.74 5.51c-14.09-2.73-28.35-4.46-42.56-6.36-7.54-.84-15.07-1.91-22.66-2.07-5.25.36-10.43 1.32-15.67 1.75a8.76 8.76 0 0 1 2.17-2.29c5.21-3.71 10.82-6.8 16.33-10Zm-77.79 1.38c-.26 2.13 1.77 3.4 3.61 3.66 4.38.75 8.77 1.49 13.1 2.47-.14-2.45-.27-4.9-.41-7.35s-.3-4.83-.42-7.24c-.9-.8-1.81-1.6-2.75-2.35-3-2.79-7.54-2.13-11.27-1.85a98 98 0 0 0-1.86 12.66Zm90-16.28a14.73 14.73 0 0 0-1.12 9.43c6.75 1.75 13.63 3.15 20.21 5.53 4.38-5.42 4-14.21-1.47-18.75-5.91.72-11.71 2.68-17.59 3.77Zm-30.36-3.54a13.13 13.13 0 0 0-4 8.52 14 14 0 0 0 7.72 13.55c1 .47 2.37 1.08 3.35.11 3.86-2.57 7.76-5.08 11.8-7.38.67-.51 1.74-.81 1.92-1.73a12.74 12.74 0 0 0-3-11.33c-4.84-.85-9.75-1.28-14.61-2-1 0-2.44-.72-3.21.3Zm28.35-1c10.29-4.09 20.85-7.52 31.38-10.95a22.8 22.8 0 0 1 0 6.39c-8.1 2.26-16.25 4.32-24.42 6.32a37.75 37.75 0 0 1-6.42 1.25q-.27-1.5-.51-3Zm-46.37-11.76c9 1.36 17.78 3.58 26.67 5.36 4.73 1.19 9.6 1.88 14.22 3.46v4.31c-7.31-.54-14.53-1.91-21.81-2.82-5.76-1-11.61-1.55-17.3-2.93a41.56 41.56 0 0 1-1.78-7.38ZM264 399.09h.09c11.84-1.05 23.75-1 35.63-1.13 15.61 0 31.31 0 46.82 2 2.77.28 6.73 1.43 6.23 5-1 15.62-2.36 31.21-3.48 46.82a100.15 100.15 0 0 0-9.8-4 18.35 18.35 0 0 0 2.69-10.18c-.05-3.82-1.88-7.29-4.16-10.24 3.8-.93 7.54-1.93 11.32-2.93a47.89 47.89 0 0 0 .11-9.87c-11.83 3.44-23.44 7.62-35.08 11.67a24.88 24.88 0 0 0 1.63 6.4 19.61 19.61 0 0 0-.93 8.3 16.08 16.08 0 0 0-4.32.29 16.53 16.53 0 0 0-2.57-10.87c1.29.15 2.57.25 3.86.37a19.13 19.13 0 0 0 .33-7.68q-22.21-5.07-44.62-9.35c.46 3.79 1.33 7.5 2.14 11.22 5.38 1.11 10.85 1.7 16.29 2.52a16 16 0 0 0-4.22 12.3 16.25 16.25 0 0 0 9.45 13.16c-3.42 3-7.9 5.09-10.42 9.1 3.1.09 6.12-.71 9.21-.91 2.87 3.65 6.74 6.34 10.56 8.9 4.14 2.6 8.86 5.21 13.94 4.44 10.1-1.19 20.17-4.42 28.4-10.42l5.2.64c-.48 6.35-1 12.67-1.48 19-.16 1.35-.29 2.87-1.36 3.87-1.62 1.53-4 1.38-6 1.53-23.25 0-46.5-.11-69.74 0-5.31-.71-10.43-2.49-15.43-4.19-1.69-.63-3.69-1.3-4.45-3.11a10.75 10.75 0 0 1-.65-4.63c-.5-5.71-1.06-11.45-1.06-17.18a59.87 59.87 0 0 1-.81-9.82c-.68-7.87-1.13-15.78-1.59-23.67-.34-3.86-.49-7.72-.73-11.58-.09-2.3-.23-4.88 1.45-6.68a83.38 83.38 0 0 1 16-8.28l1.59-.82Zm11-31.39c-1.35 2.41-2 5.73-.22 8.1 4.35 6.69 8.73 13.37 13 20.14l2.84.08c1.85 0 3.7-.06 5.56-.09-3.4-10.58-6.46-21.26-9.94-31.79a15.16 15.16 0 0 0-2.61-.05 36 36 0 0 0-8.59 3.61Zm29.1-14.31c-1.33 1.24-3.45 2.48-3.15 4.59 1.25 12 2.26 24 3.78 35.92 0 .52.11 1.56.14 2.08 2.54-.07 5.11.33 7.62-.07 3.6-12.4 7.07-24.78 10.6-37.18.23-1.36 1.14-3.73-.66-4.38a83.32 83.32 0 0 0-11.59-1.14c-2.23-.15-4.6-.68-6.73.18Zm-5.3 4.61c-.64-3.31 2.8-5.32 5.27-6.64a178 178 0 0 1 20 .88c1.63 0 3.84.93 3 3q-6.21 20.49-12.64 40.94c11.45.31 22.92.57 34.29 2.06 2.08.35 4.43.51 6.07 2 1.43 1.41 1 3.61 1 5.42q-1.8 23.76-3.62 47.55a148.66 148.66 0 0 1 17.69 10.1c1.84 1.25 3.84 2.42 5.09 4.33v.68c-4.09.05-8.06-1-12.08-1.61s-7.76-1.12-11.65-1.62l-1.62 20.83c-.19 1.71-.27 3.72-1.77 4.85-1.79 1.31-4.18 1.14-6.26 1.54h-72.11c-5-.4-9.68-2.35-14.43-3.79a51.18 51.18 0 0 1-6.24-2.17c-1.7-.88-2.07-2.86-2.33-4.58a9.64 9.64 0 0 1-8.31 1.64c-2.21-1.94-3.1-4.9-4.29-7.5-.79-2.27-2.28-4.55-1.84-7a12 12 0 0 1 1-.79c4.12-1.35 8.43-2.06 12.64-3.14-.18-2.62-.18-5.26-.52-7.87-4.13-1.38-8.57-1.85-12.83-2.79-2.39-.52-5.86-.53-6.47-3.55V448c1-4.78.81-10 3-14.4a38.82 38.82 0 0 1 9.14-.12c2.44-.07 4.18 1.85 6 3.16q-.78-11.94-1.45-23.9c0-2.07-.18-4.45 1.21-6.16 2-1.55 4.43-2.26 6.62-3.43 4.51-2.05 8.76-5 13.75-5.71 6.93-1.17 14-1.15 21-1.28-4.64-7.46-9.48-14.84-13.72-22.53.22-3.21 1.48-7.19 4.83-8.37 3.52-1.54 7.13-2.86 10.78-4.06 1.56 2.88 2.31 6.09 3.35 9.17 2.77 8.56 5.4 17.17 8.31 25.68l4-.08q-2-19-3.88-37.94Z" transform="translate(-134.16 -257.68)"/><path class="cls-4" d="M320.45 434.94c3.73-1.46 4.75 5.63 1.08 6-3.05-.08-3.46-4.66-1.08-6ZM302.13 435.78a2.53 2.53 0 0 1 3.58-.07 2.18 2.18 0 0 1 .42.54c1.08 1.65 1.06 4.42-.87 5.45-3.26 1.2-5.43-3.88-3.13-5.92Z" transform="translate(-134.16 -257.68)"/><path class="cls-5" d="M310.87 353.21a83.32 83.32 0 0 1 11.59 1.14c1.8.65.89 3 .66 4.38-3.52 12.4-7 24.82-10.59 37.18-2.51.4-5.08 0-7.62.07 0-.52-.11-1.56-.14-2.08l1.09 1.87c-.2-7.79-1-15.56-1.16-23.35a64.36 64.36 0 0 1 1.67-11.82c.47-1.48 1-3.33 2.69-3.8 3-1.12 6.21-1.33 9.3-2.08a32.43 32.43 0 0 0-7.49-1.51ZM283.63 364.09a15.16 15.16 0 0 1 2.61.05c3.48 10.53 6.54 21.21 9.94 31.79-1.86 0-3.71.13-5.56.09-2.67-6.5-6.69-12.31-9.75-18.62-.82-2.48-2-5.08-1.45-7.74.96-2.15 2.71-3.81 4.21-5.57ZM269.37 467.36a116.39 116.39 0 0 0 .68 17c.07 1.44 1 3.11 2.61 3.08 3.61.07 7.33.49 10.86-.48-3.49-1.37-8-1.92-10-5.57-2.09-4.4-3.13-9.25-4.13-14ZM325.78 402c4.58 1.66 9.53 1.27 14.31 1.66 3.12-.1 6.5.26 9.36-1.23-5.76-1.9-11.91-1.59-17.9-1.57-1.95.15-4.18-.26-5.77 1.14Zm-55-1.69c-1.82.23-4.92.88-4.17 3.39 4.21 1.23 9.51 1.58 12.94-1.62-2.17-2.56-5.81-2-8.77-1.77Zm-6.78-1.22c11.84-1 23.75-1 35.63-1.13 15.61 0 31.31 0 46.82 2 2.77.23 6.73 1.38 6.23 5-1 15.62-2.36 31.21-3.48 46.82-3.22-1.43-6.45-2.85-9.8-4a18.38 18.38 0 0 0 2.71-10.19c-.05-3.81-1.88-7.28-4.16-10.23 3.8-.9 7.54-2 11.32-2.93a47.89 47.89 0 0 0 .11-9.87c-11.83 3.44-23.44 7.62-35.08 11.67a24.71 24.71 0 0 0 1.63 6.39 19.68 19.68 0 0 0-.93 8.31 16.08 16.08 0 0 0-4.32.29 16.53 16.53 0 0 0-2.57-10.87c1.29.15 2.57.25 3.86.37a19.13 19.13 0 0 0 .33-7.68q-22.23-5.09-44.62-9.35c.46 3.79 1.33 7.5 2.14 11.22 5.38 1.11 10.85 1.7 16.29 2.52a16 16 0 0 0-4.22 12.3 16.25 16.25 0 0 0 9.45 13.16c-3.46 3-7.9 5.11-10.42 9.1 3.1.12 6.12-.71 9.21-.91 2.87 3.65 6.74 6.34 10.56 8.9 4.14 2.6 8.86 5.21 13.94 4.44C324.71 473.21 334.78 470 343 464l5.2.64c-.45 6.34-1 12.66-1.48 19-.16 1.36-.29 2.89-1.36 3.87-1.57 1.51-3.93 1.38-6 1.53-23.25.06-46.5-.08-69.74 0-1.72-3.14-1.43-6.8-1.77-10.24q-2-32-3.65-64c-.27-5.25-.22-10.51-.22-15.76ZM249.44 408.15c3.06-1.2 6-2.69 8.92-4.18-4.12 10.82-6.57 22.19-8.41 33.6-.9 4.19-1 8.55-2.69 12.55-.68-7.87-1.13-15.78-1.59-23.67 5.46-4.19 6.08-12.25 3.77-18.3ZM230.13 435.58c3.73-.28 8.28-.94 11.27 1.85.94.76 1.85 1.55 2.75 2.35.12 2.41.27 4.83.42 7.24-4.69-3.97-10.13-7.02-14.44-11.44ZM248.07 459.94c3-7.81 3.7-16.36 6.83-24.14 0 4.2-1 8.29-1.5 12.44-1 6.85-1.8 13.72-2.84 20.57-.35 2.79-.44 5.64-1.43 8.31-.5-5.71-1.07-11.45-1.06-17.18ZM234.69 470.07c3.53-1.65 7.4-2.26 11.1-3.35v1.42c-3.51 1.73-8.67 1.43-10.29 5.69-.29-1.25-.56-2.5-.81-3.76Z" transform="translate(-134.16 -257.68)"/><path class="cls-6" d="M301 358c-.3-2.11 1.82-3.35 3.15-4.59.39 6.34.16 12.69.56 19 .12 7.79 1 15.56 1.16 23.35l-1.09-1.87C303.25 382 302.24 370 301 358ZM274.82 375.8c-1.78-2.37-1.13-5.69.22-8.1 1.85 3.3 3.82 6.51 5.83 9.7 3.06 6.31 7.08 12.12 9.75 18.62l-2.84-.08c-4.23-6.77-8.65-13.43-12.96-20.14ZM262.43 399.91l1.59-.82c0 5.25 0 10.51.22 15.76q1.68 32 3.65 64c.34 3.44.05 7.1 1.77 10.24-5.31-.71-10.38-2.49-15.43-4.19-1.69-.63-3.69-1.3-4.45-3.11a10.75 10.75 0 0 1-.65-4.63c1-2.67 1.08-5.52 1.43-8.31 1-6.85 1.83-13.73 2.84-20.57.53-4.15 1.54-8.24 1.5-12.44-3.13 7.78-3.81 16.33-6.83 24.14a61 61 0 0 1-.81-9.82c1.68-4 1.79-8.36 2.69-12.55 1.84-11.41 4.29-22.78 8.41-33.6a18.41 18.41 0 0 0 4.07-4.1ZM244.94 414.87c-.09-2.3-.23-4.88 1.45-6.68a10.39 10.39 0 0 0 3.05 0c2.31 6.05 1.7 14.11-3.77 18.3-.34-3.9-.49-7.76-.73-11.62ZM228.27 448.24a96.34 96.34 0 0 1 1.86-12.66c4.31 4.41 9.75 7.47 14.44 11.44.14 2.45.27 4.9.41 7.35-4.33-1-8.72-1.72-13.1-2.47-1.88-.26-3.88-1.53-3.61-3.66ZM235.48 473.83c1.62-4.26 6.78-4 10.29-5.69.3 3.95.52 7.91.58 11.87-2.2 1.18-5.14 2.72-7.52 1.28-1.47-2.29-2.23-4.98-3.35-7.46Z" transform="translate(-134.16 -257.68)"/><path class="cls-7" d="M269.85 415.68c9 1.36 17.78 3.58 26.67 5.36 4.73 1.19 9.6 1.88 14.22 3.46v4.31c-7.31-.54-14.53-1.91-21.81-2.82-5.76-1-11.61-1.55-17.3-2.93a41.56 41.56 0 0 1-1.78-7.38ZM316.22 427.44c10.29-4.09 20.85-7.52 31.38-10.95a22.8 22.8 0 0 1 0 6.39c-8.1 2.26-16.25 4.34-24.42 6.32a37.75 37.75 0 0 1-6.42 1.25c-.21-1-.38-2.01-.54-3.01Z" transform="translate(-134.16 -257.68)"/><path class="cls-8" d="M306.06 446.86a30.76 30.76 0 0 1 6.41-3.15c2.38-.69 4.78.21 7.12.68a125.57 125.57 0 0 1 41.12 15.92 52.5 52.5 0 0 1 7.74 5.51c-14.09-2.73-28.35-4.47-42.56-6.36-7.54-.84-15.07-1.91-22.66-2.07-5.25.36-10.43 1.32-15.67 1.75a8.76 8.76 0 0 1 2.17-2.29c5.21-3.7 10.82-6.78 16.33-9.99Z" transform="translate(-134.16 -257.68)"/><path class="cls-8" d="M292.78 460.7a46.42 46.42 0 0 1 11.88-.69c11.84.88 23.63 2.33 35.44 3.62-8.17 5.28-17.9 8.86-27.73 8.34-7.55-1-14.32-5.34-19.7-10.55.03-.18.08-.54.11-.72Z" transform="translate(-134.16 -257.68)"/><path class="cls-9" d="m241.35 130.09-.06-.01-.32 1.2 6.79 1.81 2.69 4.66 1.07-.62-2.69-4.65 1.81-6.73.01-.06-1.2-.32-1.49 5.59-1.66-2.88 1.13-4.21-1.2-.32-.81 3.01-2.12-3.66-1.07.62 2.12 3.66-3.02-.8-.32 1.19 4.21 1.13 1.66 2.88-5.53-1.49zM249.88 139.98v-1.24h-5.38l-4.97-4.97-.87.88 4.09 4.09h-3.32l-3.09-3.08-.87.87 2.21 2.21h-4.24v1.24h4.23l-2.2 2.2.87.88 3.09-3.08h3.32l-4.09 4.09.87.88 4.97-4.97h5.38zM251.49 141.63l.03-.04-1.07-.62-2.69 4.65-6.79 1.82.32 1.2 5.59-1.5-1.66 2.87-4.21 1.13.32 1.2 3.02-.81-2.09 3.62-.03.05 1.07.62 2.12-3.67.81 3.02 1.2-.32-1.13-4.22 1.66-2.87 1.49 5.59 1.2-.32-1.82-6.79 2.66-4.61zM262.83 148.62l.06.02.32-1.2-6.79-1.82-2.66-4.61-.03-.04-1.07.62 2.69 4.65-1.82 6.79 1.2.32 1.5-5.59 1.65 2.87-1.12 4.22 1.19.32.81-3.02 2.09 3.62.03.05 1.07-.62-2.12-3.67 2.97.8.05.01.32-1.2-4.21-1.13-1.66-2.87 5.53 1.48zM270.74 138.74h-4.23l2.2-2.21-.88-.87-3.08 3.08h-3.32l4.09-4.09-.87-.88-4.97 4.97h-5.38v1.24h5.38l4.97 4.97.87-.88-4.09-4.09h3.32l3.08 3.08.88-.88-2.2-2.2h4.23v-1.24zM252.66 137.13l1.07.62 2.69-4.66 6.73-1.8.06-.01-.32-1.2-5.59 1.5 1.66-2.88 4.21-1.13-.32-1.19-3.02.8 2.12-3.66-1.07-.62-2.12 3.66-.81-3.01-1.19.32 1.12 4.21-1.65 2.88-1.49-5.54-.01-.05-1.2.32 1.82 6.79-2.69 4.65z"/><path class="cls-9" d="M386.24 395.14a1.91 1.91 0 0 0-1.65 2.85 2 2 0 0 0 1.66 1 1.93 1.93 0 0 0 1.88-1.49 1.9 1.9 0 0 0-1.33-2.34 1.81 1.81 0 0 0-.52-.06Zm-.64 1.74a.68.68 0 0 1 .31-.41.66.66 0 0 1 .33-.09.67.67 0 0 1 .65.84.74.74 0 0 1-.31.41.9.9 0 0 1-.33.09.7.7 0 0 1-.67-.7s.01-.1.02-.14ZM386.25 394.63l2.65-4.43-2.65-4.42-2.66 4.42 2.66 4.43Zm0-2.41-1.21-2 1.21-2 1.2 2ZM379 395.92l5.16-.08-2.51-4.51-5.15.08 2.5 4.51Zm.72-1.25-1.14-2.05h2.35l1.14 2.05ZM379 398.2l-2.5 4.51 5.12.09 2.51-4.51-5.13-.09Zm-.42 3.31 1.14-2.06h2.35l-1.14 2.06ZM386.25 399.47l-2.66 4.42 2.66 4.43 2.65-4.43-2.65-4.42Zm0 2.41 1.2 2-1.2 2-1.21-2ZM390.85 402.77l5.16-.09-2.49-4.48-5.16.09 2.49 4.48Zm1.93-3.35 1.14 2.06h-2.35l-1.14-2h2.35ZM393.5 395.92l2.51-4.51-5.16-.08-2.51 4.51 5.16.08Zm.42-3.3-1.14 2.05h-2.35l1.14-2.05ZM348.7 376.76l-1.2-.69 3.25-1.32-.31-.76-3.83 1.52-1.15-.67v-2.58l1.16-.67 3.83 1.56.31-.76-3.28-1.33 1.2-.69 2.57 1 .31-.76-2-.82 1.72-1-.41-.71-1.75 1 .3-2.15-.81-.11-.39 2.78-1.2.69.49-3.5-.81-.12-.57 4.14-1.14.66-2.25-1.3v-1.33l3.29-2.56-.5-.65-2.79 2.17v-1.29l2.22-1.72-.51-.65-1.63 1.37v-2H342v2l-1.72-1.34-.5.65 2.22 1.72v1.38l-2.79-2.17-.5.65L342 369v1.33l-2.24 1.29-1.16-.67-.57-4.13-.81.11.48 3.5-1.19-.69-.38-2.79-.81.11.3 2.15-1.75-1-.41.71 1.75 1-2 .82.31.76 2.6-1.06 1.19.69-3.24 1.32.31.76 3.86-1.57 1.17.68v2.56l-1.18.68-3.83-1.56-.31.76 3.28 1.33-1.2.69-2.57-1.05-.31.76 2 .82-1.75 1 .41.71 1.75-1-.3 2.15.81.11.39-2.78 1.19-.69-.48 3.5.81.11.57-4.13 1.18-.68 2.21 1.27v1.38l-3.29 2.56.5.64 2.79-2.17v1.38l-2.22 1.73.51.64 1.71-1.33v2h.82v-2l1.71 1.33.51-.64-2.22-1.73v-1.38l2.79 2.17.5-.64-3.29-2.56v-1.35l2.22-1.29 1.18.68.57 4.14.81-.11-.48-3.51 1.19.69.39 2.79.81-.12-.3-2.15 1.72 1 .41-.71-1.75-1 2-.8-.31-.75-2.66 1Zm-6.81-3.17.25-.44h.51l.26.44-.26.44h-.52l-.25-.44Zm1.33 0 1.42-.82v1.64l-1.42-.82Zm-.4-.72v-1.65l1.43.83-1.43.82Zm-.82 0-1.42-.82 1.42-.82v1.64Zm-.42.71-1.4.81v-1.62l1.4.81Zm.4.71v1.61l-1.39-.8 1.39-.81Zm.82 0 1.4.81-1.4.81ZM254.47 362l-1.57-.91-1 1.69-2.54-1.46 2.37-4.1-1.57-.91-2.37 4.1-2.53-1.46 1.67-2.9-1.57-.9-1.67 2.85-2.11-1.21a6.46 6.46 0 0 0 0-4.85l2.11-1.22 1.67 2.9 1.57-.91-1.67-2.89 2.53-1.47 2.37 4.11 1.57-.91-2.37-4.1 2.54-1.45 1 1.69 1.57-.9-1-1.69 1.93-1.1-.91-1.57-1.9 1.1-1-1.69-1.57.9 1 1.69-2.53 1.47-2.36-4.09-1.57.91 2.37 4.1-2.54 1.47-1.67-2.9-1.57.9 1.67 2.9-2.11 1.22a6.41 6.41 0 0 0-4.2-2.43v-2.45h3.35v-1.83h-3.35v-2.93h4.74V339h-4.74v-3h2v-1.81h-2V332h-1.81v2.23h-1.95v1.81h1.95V339H230v1.81h4.74v2.93h-3.34v1.79h3.34v2.43a6.5 6.5 0 0 0-4.19 2.43l-2.11-1.22 1.67-2.9-1.57-.9-1.67 2.9-2.54-1.47 2.37-4.1-1.57-.91-2.37 4.11-2.53-1.47 1-1.69-1.57-.9-1 1.69-1.93-1.12-.91 1.57 1.93 1.12-1 1.69 1.56.9 1-1.69 2.54 1.47-2.37 4.1 1.56.91 2.38-4.11 2.53 1.47-1.67 2.89 1.57.91 1.67-2.9 2.11 1.22a6.56 6.56 0 0 0 0 4.85l-2.15 1.19-1.67-2.89-1.57.9 1.67 2.9-2.53 1.46-2.38-4.1-1.56.91 2.37 4.1-2.54 1.46-1-1.69-1.56.91 1 1.69-1.93 1.12.91 1.56 1.93-1.11 1 1.69 1.57-.91-1-1.69 2.53-1.46 2.37 4.1 1.57-.9-2.37-4.11 2.54-1.46 1.67 2.9 1.57-.91-1.67-2.9 2.11-1.22a6.54 6.54 0 0 0 4.19 2.43v2.44h-3.34V365h3.34v3H230v1.82h4.74v2.92h-1.95v1.82h1.95v2.23h1.81v-2.23h2v-1.8h-2v-2.92h4.74V368h-4.74v-2.92h3.35v-1.81h-3.35v-2.47a6.49 6.49 0 0 0 4.2-2.43l2.11 1.22-1.69 2.92 1.57.91 1.67-2.9 2.54 1.46-2.37 4.11 1.57.9 2.37-4.1 2.53 1.46L250 366l1.57.91 1-1.69 1.93 1.11.91-1.56-1.93-1.12 1-1.71Zm-14.2-7.6a4.67 4.67 0 1 1-4.67-4.67 4.68 4.68 0 0 1 4.67 4.65ZM290.26 340.66l-.77-.44-.48.83-1.24-.72 1.16-2-.77-.45-1.16 2-1.25-.72.82-1.42-.77-.45-.82 1.42-1-.59a2.9 2.9 0 0 0 .23-1.19 2.84 2.84 0 0 0-.23-1.19l1-.6.82 1.42.77-.44-.82-1.43L287 334l1.16 2 .77-.44-1.16-2 1.24-.72.48.83.77-.44-.48-.83 1-.55-.45-.77-.94.55-.48-.83-.77.44.48.83-1.25.72-1.16-2-.77.44 1.16 2-1.24.71-.82-1.42-.77.45.82 1.42-1 .6a3 3 0 0 0-2.06-1.19v-1.2h1.64v-.89h-1.64v-1.43h2.33v-.89h-2.33v-1.44h1V327h-1v-1h-.89v1h-.95v.89h.95v1.44h-2.32v.89h2.32v1.43H279v.89h1.64v1.2a3.13 3.13 0 0 0-2.06 1.19l-1-.6.82-1.42-.77-.45-.82 1.42-1.25-.71 1.17-2-.77-.44-1.17 2-1.24-.72.48-.83-.77-.44-.48.83-1-.55-.44.77 1 .55-.48.83.77.44.48-.83 1.24.72-1.16 2 .77.44 1.16-2 1.24.71-.82 1.43.77.44.82-1.42 1 .6a3.19 3.19 0 0 0-.23 1.19 3.27 3.27 0 0 0 .23 1.19l-1 .59-.82-1.42-.77.45.82 1.42-1.24.72-1.16-2-.77.45 1.16 2-1.24.72-.48-.83-.77.44.48.83-1 .55.44.77 1-.55.48.83.77-.44-.48-.83 1.24-.72 1.17 2 .77-.44-1.17-2 1.25-.72.82 1.42.77-.45-.92-1.4 1-.6a3.21 3.21 0 0 0 2.06 1.19v1.2h-1.64v.89h1.64v1.44h-2.32v.88h2.32V346h-.95v.89h.95v1.09h.89v-1.09h1V346h-1v-1.44h2.33v-.88h-2.33v-1.44H283v-.89h-1.64v-1.2a3.12 3.12 0 0 0 2.06-1.19l1 .6-.82 1.42.77.45.82-1.42 1.24.72-1.16 2 .77.44 1.16-2 1.25.72-.48.83.77.44.48-.83.94.55.45-.77-.95-.55.58-.85Zm-7-3.72a2.29 2.29 0 1 1-2.29-2.3 2.29 2.29 0 0 1 2.29 2.3ZM388.6 335.9l-1.53-.88-.95 1.64-2.46-1.42 2.3-4-1.53-.89-2.3 4-2.46-1.43 1.62-2.81-1.52-.89-1.64 2.85-2-1.18a6 6 0 0 0 .46-2.36 5.9 5.9 0 0 0-.46-2.35l2.05-1.19 1.63 2.82 1.52-.88-1.62-2.82 2.46-1.42 2.3 4 1.53-.88-2.3-4 2.46-1.43.95 1.65 1.53-.88-1-1.65 1.88-1.08-.89-1.53-1.87 1.11-.95-1.65-1.53.88 1 1.65-2.46 1.42-2.31-4-1.52.88 2.3 4-2.46 1.42-1.65-2.81-1.53.88 1.63 2.82-2.05 1.18a6.26 6.26 0 0 0-4.08-2.36v-2.36h3.25v-1.77h-3.22v-2.84h4.61v-1.76h-4.61v-2.85H373V309h-1.9v-2.17h-1.76V309h-1.9v1.76h1.9v2.85h-4.61v1.76h4.61v2.84h-3.24v1.77h3.26v2.36a6.31 6.31 0 0 0-4.08 2.36l-2.08-1.14 1.63-2.82-1.53-.88-1.62 2.81-2.47-1.42 2.31-4-1.53-.88-2.3 4-2.47-1.42.95-1.65-1.52-.88-.95 1.65-1.88-1.09-.88 1.53 1.88 1.08-1 1.65 1.52.88.95-1.65 2.47 1.43-2.31 4 1.53.88 2.3-4 2.47 1.42-1.6 2.8 1.53.88 1.62-2.88 2 1.19a6.47 6.47 0 0 0-.46 2.35 6.65 6.65 0 0 0 .46 2.36l-2 1.18-1.62-2.82-1.53.89 1.63 2.81-2.47 1.43-2.3-4-1.53.89 2.31 4-2.47 1.42-.95-1.64-1.52.88 1 1.64-1.85 1.11.88 1.53 1.88-1.08.95 1.64 1.52-.88-.95-1.64 2.47-1.43 2.3 4 1.53-.88-2.31-4 2.47-1.42 1.62 2.82 1.53-.89-1.63-2.81 2.06-1.19a6.33 6.33 0 0 0 4.08 2.36v2.37h-3.24V339h3.26v2.85h-4.61v1.71h4.61v2.84h-1.9v1.76h1.9v2.17h1.74v-2.17H373v-1.76h-1.9v-2.84h4.61v-1.76h-4.61v-2.9h3.25v-1.76h-3.25v-2.37a6.3 6.3 0 0 0 4.08-2.36l2.05 1.19-1.63 2.81 1.53.89 1.63-2.82 2.46 1.42-2.3 4 1.52.88 2.31-4 2.46 1.43-.95 1.64 1.53.88.95-1.64 1.87 1.08.89-1.53-1.88-1.08 1-1.66Zm-13.81-7.39a4.54 4.54 0 1 1-4.54-4.54 4.54 4.54 0 0 1 4.54 4.54Z" transform="translate(-134.16 -257.68)"/></svg>