<svg aria-hidden="true" style="width:0;height:0;position:absolute;overflow:hidden" xmlns="http://www.w3.org/2000/svg"><defs><symbol id="icon-arrow-left2" viewBox="0 0 18 32"><path d="M0 15.933c.08.094.16.179.245.26l.001.001.94.982c.028.027.036.044.061.07.061.066.135.124.193.193l.313.334c.044.044.086.081.128.127l.437.456c.027.027.034.044.059.07.147.157.302.301.443.46.059.067.138.128.196.197a.615.615 0 0 0 .057.066l2.332 2.424.066.066c.028.027.036.044.061.07l.127.127a.641.641 0 0 1 .063.065l.001.001c.027.03.033.041.063.07l.254.263c.042.042.085.081.127.127l.437.454c.027.028.034.045.061.072.147.157.301.301.442.46.061.069.135.128.197.196l.442.46c.027.027.034.045.061.072.147.157.299.298.437.454a.665.665 0 0 0 .065.065l.001.001.507.526.061.061.694.725c.06.07.122.134.188.194l.002.002.564.592.127.127 1.005 1.052c.045.045.089.086.132.132l.376.395c.171.171.33.352.503.521l.127.136c.089.089.164.175.254.263l.313.324c.027.027.033.044.061.07l.503.521c.044.044.092.086.132.132.139.157.288.313.437.456.027.027.034.044.061.07.496.418 1.665 2.022 3.33.371 1.137-1.081.29-2.506-.501-3.207-.019-.022-.034-.036-.056-.058l-.371-.381c-.022-.023-.027-.036-.052-.061l-.846-.872c-.02-.023-.024-.034-.047-.058l-.47-.493-.108-.108-.099-.108-.108-.108-.626-.658-.108-.107-.893-.93c-.025-.025-.03-.038-.052-.061-.069-.08-.147-.136-.213-.219s-.147-.139-.21-.215-.141-.147-.211-.219l-.626-.658-.052-.052-.691-.709c-.022-.023-.025-.034-.047-.056l-.056-.056-.523-.55-.052-.052-.684-.716c-.067-.083-.143-.142-.213-.219l-.681-.709c-.022-.025-.027-.036-.052-.061L7.991 18.48c-.108-.107-.208-.229-.313-.334l-.157-.157c-.024-.025-.028-.038-.052-.061l-.211-.221c-.067-.077-.157-.135-.21-.215s-.146-.138-.213-.218-.141-.147-.211-.221l-1.051-1.096c.034-.04.069-.075.106-.109l.001-.001c.1-.114.213-.219.313-.329l1.062-1.096c.074-.074.157-.144.221-.221l1.067-1.096c.07-.07.157-.144.216-.216.02-.024.024-.033.047-.056l.381-.39c.147-.147.28-.29.428-.437.038-.038.072-.069.108-.108s.024-.033.047-.056l.056-.056c.072-.072.147-.141.216-.216l.423-.442c.149-.157.283-.293.432-.442l.211-.221c.07-.07.157-.143.216-.216l.313-.329c.022-.025.027-.036.052-.061l.056-.056c.147-.147.28-.29.428-.437l.157-.164c.089-.092.193-.182.277-.277l.423-.442c.147-.147.28-.29.428-.437.036-.036.075-.07.108-.108.1-.113.221-.216.313-.329l.103-.113.108-.108.216-.226c.147-.147.28-.29.428-.437.075-.075.136-.146.211-.221s.157-.146.221-.221c.02-.024.024-.033.047-.056.089-.091.188-.177.273-.272.169-.193.354-.373.536-.554l.428-.437c.083-.099.343-.362.428-.446l.858-.88c.351-.359 1.688-1.723.36-3.066-.93-.94-2.384-.564-3.182.226l-.324.334c-.028.028-.034.044-.061.072l-.573.581c-.028.028-.036.044-.061.07-.105.114-.222.219-.324.334a.665.665 0 0 1-.065.065l-.001.001c-.143.144-.449.445-.569.587l-1.222 1.253c-.028.028-.036.042-.061.07l-.639.658-.066.066c-.117.117-.489.484-.575.592-.063.07-.127.135-.194.195l-.002.002c-.238.238-.47.487-.705.724a.495.495 0 0 0-.06.069l-.001.002c-.097.114-.222.207-.313.324s-.506.5-.642.662l-.578.587a.492.492 0 0 0-.057.064l-.001.001-.581.592c-.047.047-.08.089-.127.136-.09.082-.174.168-.252.258l-.003.004c-.04.046-.081.088-.124.127l-.001.001-.771.783c-.049.047-.08.089-.127.136-.177.177-.341.351-.517.526-.045.045-.077.086-.122.132l-.381.377-.127.127-.897.926c-.089.089-.166.174-.254.263-.047.045-.086.086-.132.132s-.08.089-.127.136c-.175.175-.338.346-.514.521z"/></symbol><symbol id="icon-arrow-right2" viewBox="0 0 18 32"><path d="M18.477 15.933a3.4 3.4 0 0 1-.246.26l-.001.001-.94.982c-.028.027-.036.044-.061.07-.061.066-.135.124-.193.193l-.313.334c-.044.044-.086.081-.127.127l-.437.456c-.028.027-.034.044-.061.07-.147.157-.302.301-.442.46-.059.067-.139.128-.197.197a.608.608 0 0 1-.056.066l-2.337 2.424c-.025.023-.042.041-.066.066s-.036.044-.061.07l-.127.127a.797.797 0 0 0-.065.065l-.001.001c-.025.03-.033.041-.061.07l-.246.263c-.044.042-.086.081-.127.127l-.437.454c-.028.028-.036.045-.061.072-.147.157-.302.301-.442.46-.061.069-.135.128-.197.196l-.442.46c-.027.027-.034.045-.061.072-.147.157-.299.298-.437.454-.022.025-.044.044-.066.066l-.507.526-.061.061-.695.725c-.06.07-.121.134-.186.194l-.002.001-.564.592-.127.127-1.005 1.052c-.045.045-.089.086-.132.132l-.376.395c-.171.171-.332.352-.503.521l-.127.136c-.089.089-.166.175-.255.263l-.313.324c-.025.027-.033.044-.059.07l-.504.521c-.042.044-.091.086-.132.132a7.546 7.546 0 0 1-.437.456c-.027.027-.034.044-.059.07-.496.418-1.665 2.022-3.331.371-1.135-1.081-.29-2.506.503-3.207.017-.022.034-.036.055-.058l.371-.381c.022-.023.027-.036.052-.061l.846-.872c.022-.023.025-.034.047-.058l.47-.493.108-.108.099-.108.108-.108.626-.658.11-.107.893-.93c.025-.025.03-.038.052-.061.069-.08.147-.136.213-.219s.147-.139.208-.215.143-.147.213-.219l.626-.658.052-.052.681-.709c.022-.023.025-.034.047-.056a.592.592 0 0 1 .056-.056l.001-.001.531-.55.052-.052.684-.716c.066-.083.141-.142.213-.219l.681-.709c.022-.025.027-.036.052-.061l1.048-1.085c.107-.107.207-.229.313-.334l.157-.157a.638.638 0 0 1 .052-.061l.211-.221c.067-.077.147-.135.208-.215s.147-.138.215-.218.141-.147.211-.221l1.049-1.096a1.2 1.2 0 0 0-.104-.109l-.001-.001c-.1-.114-.215-.219-.313-.329l-1.062-1.096c-.075-.074-.157-.144-.221-.221l-1.066-1.096c-.07-.07-.157-.144-.216-.216-.02-.024-.024-.033-.047-.056l-.381-.39c-.147-.147-.282-.29-.428-.437-.038-.038-.074-.069-.108-.108s-.025-.033-.047-.056l-.056-.056c-.074-.072-.147-.141-.216-.216l-.423-.442c-.157-.157-.285-.293-.432-.442l-.211-.221c-.07-.07-.157-.143-.216-.216l-.313-.329c-.022-.025-.027-.036-.052-.061l-.056-.056c-.147-.147-.282-.29-.428-.437L6.354 9.2c-.089-.092-.194-.182-.277-.277l-.423-.442c-.147-.147-.282-.29-.429-.437-.036-.036-.074-.07-.106-.108-.1-.113-.221-.216-.313-.329l-.105-.113-.108-.108-.216-.226c-.146-.147-.28-.29-.428-.437-.075-.075-.136-.146-.211-.221s-.157-.146-.221-.221c-.02-.024-.023-.033-.047-.056-.089-.091-.188-.177-.272-.272-.169-.193-.354-.373-.536-.554l-.426-.437a11.48 11.48 0 0 0-.429-.446l-.858-.88C.6 3.277-.739 1.913.589.57c.932-.94 2.384-.564 3.182.226l.326.334c.027.028.034.044.059.072l.575.581c.027.028.036.044.059.07.105.114.224.219.326.334a.985.985 0 0 0 .064.065l.001.001c.144.144.451.445.57.587l1.222 1.253c.028.028.036.042.061.07l.639.658a.797.797 0 0 0 .065.065l.001.001c.116.117.487.484.573.592.063.07.127.134.195.195l.002.002c.238.238.47.487.705.724a.802.802 0 0 1 .06.069l.001.002c.096.114.222.207.313.324s.507.5.644.662l.578.587c.021.02.039.041.055.064l.001.001.583.592c.047.047.078.089.127.136a3.4 3.4 0 0 1 .252.258l.003.004c.039.047.08.088.124.127l.001.001.771.783c.047.047.078.089.127.136.175.177.34.351.517.526.045.045.075.086.122.132l.385.395c.044.045.081.083.127.127l.897.926c.089.089.164.174.254.263l.132.132c.047.047.08.089.127.136.175.175.337.346.512.521z"/></symbol><symbol id="iconclose2" viewBox="0 0 32 32"><path d="M31.439 3.166 28.273 0 15.72 12.553 3.167 0 .001 3.166l12.553 12.553L.001 28.272l3.166 3.166L15.72 18.885l12.553 12.553 3.166-3.166-12.553-12.553L31.439 3.166z"/></symbol></defs></svg>