<svg id="Warstwa_1" data-name="Warstwa 1" xmlns="http://www.w3.org/2000/svg" viewBox="0 0 326.55 326.55"><defs><style>.cls-10{stroke-miterlimit:22.93}.cls-10,.cls-4,.cls-6,.cls-8,.cls-9{fill-rule:evenodd}.cls-4{fill:#fff}.cls-10{fill:#c92030}.cls-6{fill:#231815}.cls-8{fill:#992025}.cls-9{fill:#f0b22a}.cls-10{stroke:#000;stroke-width:2.13px}</style></defs><rect x=".28" y=".28" width="325.98" height="325.98" rx="45.38" style="stroke-miterlimit:22.93;stroke:#fff;stroke-width:.57px;fill:none"/><path d="M196.14 366.36v107.76c0 11 1.69 20.39 6.86 28.91a44.88 44.88 0 0 0 7.84 10.15 35.46 35.46 0 0 0 3.1 2.91c.61.49.87.78 1.57 1.3a45.69 45.69 0 0 0 13.85 7.27c8 2.28 11.64 1.92 19.58 1.54l27.36-2.2c4.73-.12 11.62-1.07 16.57-1.2 1.64 0 3.87-.44 5.51-.48 4.59-.12 12.08-1.14 16.32-1.2l27.6-2.12a53 53 0 0 0 5.38-.38c1.86-.27 3.69-.17 5.57-.43 16.18-2.28 28.19-9.17 37.43-21.85a24.43 24.43 0 0 0 3.33-5.82c.52-1.41 1.92-4.53 1.73-5.91s-2-1-3.21-2.16a7.32 7.32 0 0 0-3.34-1.87c-3 6.18-9.17 11.57-15.14 13.39a40.84 40.84 0 0 1-18.65 9.33c-5.73 1.15-19.22 1.79-25.56 2.28-1.52.11-3.71.44-5.3.46s-3.84.25-5.1.42c-3.13.41-12.35.67-15.64 1.16l-62.3 4.66c-10.49 0-19.91-6.65-25.39-15.16a36.71 36.71 0 0 1-5.57-18.92V362a36.68 36.68 0 0 1 5.72-19.49q.63-1 1.32-1.95c.83-6.24 2.57-10.2 9.24-15.81a7.62 7.62 0 0 0-3.72-3.63c-2.2-1-1.29-2.31-3-1.51a47.76 47.76 0 0 0-5.68 3.59 48.78 48.78 0 0 0-8.48 9 63.06 63.06 0 0 0-4.94 8.26c-3.93 9.68-4.86 14.28-4.86 25.9Z" transform="translate(-134.16 -257.68)" style="fill-rule:evenodd;fill:#9c3603"/><path d="m251.43 312.78 105.66 10.06c22.54 2.16 41.11 18.52 41.16 41.16l.22 98.2c0 22.64-18.59 39.45-41.16 41.16l-105.88 8.06c-22.57 1.72-41.16-18.52-41.16-41.16V353.94c0-22.64 18.63-43.3 41.16-41.16Z" transform="translate(-134.16 -257.68)" style="stroke:#f60;stroke-width:9.92px;fill-rule:evenodd;stroke-miterlimit:22.93;fill:none"/><path class="cls-4" d="M304.9 492.31c-20 0-32.13-6.18-38.8-11.36-8.52-6.61-14.35-16-17.38-27.9l-.74.78a13.53 13.53 0 0 1-2 1.89 5.21 5.21 0 0 1-2 .84 5.38 5.38 0 0 1-1.27.15c-4 0-5.56-4.21-6.22-6l-.25-.66a4.88 4.88 0 0 1-.86-2.64l-4.82-.18a5.17 5.17 0 0 1-4-2.15c-1.34-1.85-3-6.31 1.09-15.27a5.16 5.16 0 0 1 3.59-2.91 4.86 4.86 0 0 1 1.11-.13 4.68 4.68 0 0 1 1 .1 56.69 56.69 0 0 1 4.89-8 5.15 5.15 0 0 1 3.16-2.1 4.06 4.06 0 0 1 1.09-.13 5.18 5.18 0 0 1 4.41 2.45c.42.67.81 1.28 1.18 1.82 3.25-13.87 10.58-26 15.57-33-6.46-1.49-8.54-4.79-9.13-7.44-.81-3.69.52-7.65 3.65-10.86 2.92-3 7.34-5.25 12.76-6.47 1.19-.26 2.44-.47 3.74-.63a12.93 12.93 0 0 1 .09-6.25c1.18-4.32 4.65-7.42 9.53-8.52a21 21 0 0 1 4.4-.45 31.14 31.14 0 0 1 5.1.46A48.74 48.74 0 0 1 325.68 368a96.79 96.79 0 0 1 23.61 11c17.54 11.31 28 26.95 30.32 45.24 2.39 19-3 35.45-15.67 47.66-12.33 11.94-27.55 16.27-33.52 17.57l-.89.2a126.7 126.7 0 0 1-24.63 2.66Z" transform="translate(-134.16 -257.68)"/><path d="M322.33 372.48s47 11.46 52.15 52.4-29.32 56.44-46.48 59.81-73.15 12-76.4-47.44c-1.4-27.75 22-53.78 22-53.78s-13 .77-14.1-4.1 5.52-12.7 24-12.1c-6.08-4.4-7-17.16 9.39-14.41s26.28 13.95 29.44 19.62Z" transform="translate(-134.16 -257.68)" style="fill:#c92030;fill-rule:evenodd"/><path class="cls-6" d="M264.59 372.6c-3.32 2.31-4.11 4.85-3.75 6.49.56 2.62 7.79 3.38 12.76 3.09a1.26 1.26 0 0 1 1.23.73 1.3 1.3 0 0 1-.2 1.43c-.23.26-23.08 26-21.72 52.83 1 17.57 6.74 30.57 17.16 38.67 12.73 9.88 32.69 12.5 57.7 7.59a68.42 68.42 0 0 0 24.77-10.54c11.2-7.77 23.86-22.39 20.65-47.85-5-39.59-50.71-51.2-51.17-51.29a1.39 1.39 0 0 1-.82-.64c-3.24-5.8-12.89-16.34-28.51-19-4.33-.72-7.69-.36-9.73 1.06a5 5 0 0 0-2.17 4.24 8.7 8.7 0 0 0 3.49 6.79 1.29 1.29 0 0 1-.81 2.34c-10.34-.32-16 2-18.88 4ZM354 475a70.5 70.5 0 0 1-25.74 11c-25.76 5.08-46.44 2.29-59.79-8.07-11-8.57-17.14-22.22-18.14-40.57-1.2-23.6 14.85-45.55 20.48-52.5-4.35-.05-11.56-.81-12.52-5.17-.69-3.13 1.16-6.64 4.81-9.19 2.91-2 8.2-4.33 17.28-4.51a11 11 0 0 1-2.19-6.53 7.62 7.62 0 0 1 3.28-6.35c2.66-1.85 6.57-2.35 11.66-1.49 16.17 2.71 26.35 13.48 30.06 19.77a91 91 0 0 1 24 10.89c16.55 10.66 26.44 25.35 28.59 42.47 3.35 26.71-9.98 42.08-21.78 50.25Z" transform="translate(-134.16 -257.68)"/><path class="cls-6" d="M251.37 430.27s-2.62 1.64-8.88-8.43c-4.84 7-4.66 7.84-4.66 7.84s6.11 4.59 8.72 4.84c-10.18-1.76-9.64-1.26-14.19-2.58-3.45 7.54-1.61 10.12-1.61 10.12l14 .54s-4.66 4-4.08 4.73 1.48 4.76 2.4 4.14 5.91-7.05 8.34-5.68c.59-14.79-.04-15.52-.04-15.52Z" transform="translate(-134.16 -257.68)"/><path d="M279.27 481s7.38-22.87 40.47-30.19 41.61 14 41.61 14-9.76 15.9-43.4 19.73c-24.72 2.85-38.68-3.54-38.68-3.54Z" transform="translate(-134.16 -257.68)" style="fill:#ddbfa5;fill-rule:evenodd"/><path class="cls-6" d="M282.53 365.67s14.65 7.86 23.59 6.68c-13.63.9-21.16-3.81-23.85-4.93a1.48 1.48 0 0 0 .26-1.75ZM273.52 382.12s8.79-1.21 12.85-3.48c-4.5 3.22-11.46 4.5-11.46 4.5Z" transform="translate(-134.16 -257.68)"/><path class="cls-8" d="M283.78 452.69c.84 3.77-.29 7.22-2.5 7.72s-4.65-2.17-5.49-6 .28-7.22 2.49-7.73 4.72 2.24 5.5 6.01ZM300.94 445.21c1.14 5.2-.4 9.94-3.42 10.6s-6.41-3-7.54-8.16.39-9.93 3.42-10.6 6.4 2.95 7.54 8.16ZM319.72 439.14c1.33 6.05-.46 11.57-4 12.37s-7.47-3.49-8.8-9.53.46-11.58 4-12.37 7.47 3.48 8.8 9.53Z" transform="translate(-134.16 -257.68)"/><path class="cls-4" d="M338.72 424.84c1.48 6.77-3.26 13.58-10.61 15.2s-14.49-2.53-16-9.31 3.26-13.58 10.6-15.2 14.52 2.53 16.01 9.31Z" transform="translate(-134.16 -257.68)"/><path class="cls-6" d="M317.81 418.14a12.16 12.16 0 0 0-5.26 12.5c1.44 6.52 8.37 10.55 15.47 9a13.86 13.86 0 0 0 5-2.18 12.16 12.16 0 0 0 5.25-12.51c-1.43-6.51-8.37-10.56-15.47-9a14.08 14.08 0 0 0-5 2.19Zm15.73 20a15 15 0 0 1-5.34 2.32c-7.56 1.68-14.95-2.65-16.5-9.64a13.07 13.07 0 0 1 5.62-13.41 14.91 14.91 0 0 1 5.32-2.31c7.57-1.68 15 2.65 16.51 9.63a13.07 13.07 0 0 1-5.61 13.42Z" transform="translate(-134.16 -257.68)"/><path class="cls-4" d="M363.44 421.06c1.47 6.78-3.27 13.58-10.61 15.22s-14.51-2.55-16-9.33 3.26-13.58 10.6-15.2 14.51 2.54 16.01 9.31Z" transform="translate(-134.16 -257.68)"/><path class="cls-6" d="M342.53 414.36a12.15 12.15 0 0 0-5.27 12.5c1.44 6.53 8.37 10.56 15.47 9a14.08 14.08 0 0 0 5-2.18 12.18 12.18 0 0 0 5.27-12.52c-1.44-6.54-8.37-10.56-15.47-9a13.64 13.64 0 0 0-5 2.18Zm15.72 20a14.8 14.8 0 0 1-5.33 2.32c-7.56 1.68-15-2.65-16.5-9.64a13 13 0 0 1 5.61-13.4 14.63 14.63 0 0 1 5.33-2.32c7.56-1.67 15 2.65 16.49 9.64a13 13 0 0 1-5.6 13.41ZM331.68 426.72a3.53 3.53 0 1 1-4.21-2.69 3.53 3.53 0 0 1 4.21 2.69Z" transform="translate(-134.16 -257.68)"/><path class="cls-6" d="M348.32 423a3.53 3.53 0 1 1-4.2-2.68 3.52 3.52 0 0 1 4.2 2.68Z" transform="translate(-134.16 -257.68)"/><path class="cls-6" d="m166.91 153.7.22 9.74 36.24.26 31.66-13.83-5.98-8.85-27.33 17.09-34.81-4.41z"/><path class="cls-9" d="M321.78 451.43s11.2-20.74 17.41-21.49 27.16 9.28 29.62 16.6c-39.01 6.51-42.44 8.35-47.03 4.89Z" transform="translate(-134.16 -257.68)"/><path class="cls-6" d="M322.34 451.3c3.3 2.32 6.63 1.73 25.24-1.54 5.45-.95 12.19-2.14 20.63-3.56-3.09-7-23.12-16.53-28.95-15.83a5.18 5.18 0 0 0-2.27 1c-5.66 3.93-13.37 17.62-14.65 19.92Zm46.72-4.4a.36.36 0 0 1-.18.07c-8.68 1.44-15.59 2.67-21.16 3.65-19.49 3.42-22.48 4-26.2 1.16a.43.43 0 0 1-.12-.55c.35-.65 8.77-16.17 15.1-20.57a6 6 0 0 1 2.66-1.14c6.32-.77 27.54 9.4 30.07 16.89a.43.43 0 0 1-.05.35.41.41 0 0 1-.12.14Z" transform="translate(-134.16 -257.68)"/><path class="cls-9" d="M323.51 452.54S342.94 468.36 345 468c3.17-.6 16.1-18.34 16.1-19.72s-34.84 7.07-37.59 4.26Z" transform="translate(-134.16 -257.68)"/><path class="cls-6" d="M325.4 453.5c9 7.26 18.28 14.16 19.52 14a2.58 2.58 0 0 0 .8-.41c4.13-2.86 13.71-16.21 14.83-18.62-1.37 0-6.5.91-11.49 1.82-10.78 2-19.61 3.47-23.66 3.17Zm20.82 14.34a3.41 3.41 0 0 1-1.15.56c-2 .37-15.8-10.63-21.67-15.38a2.61 2.61 0 0 0-.2-.17.46.46 0 0 1 0-.6.44.44 0 0 1 .6-.05l.13.12c2.1 1.32 15.87-1.18 25-2.84 9.44-1.72 11.88-2.09 12.43-1.63a.6.6 0 0 1 .19.39c-.03 1.53-11.15 16.69-15.33 19.6Z" transform="translate(-134.16 -257.68)"/><path class="cls-10" d="m116.8 104.96-5.56 9.76-50-52.43 15.42-28.54 40.14 71.21zM124.66 88.94l-6.56 6.17-15.79-36.31 18.62-18.08 3.73 48.22zM110.04 119.91l.27 6.08-47.8-16.1-1.3-17.59 48.83 27.61z"/></svg>