<?xml version="1.0" encoding="iso-8859-1"?>
<!-- Generator: Adobe Illustrator 16.0.0, SVG Export Plug-In . SVG Version: 6.00 Build 0)  -->
<!DOCTYPE svg PUBLIC "-//W3C//DTD SVG 1.1//EN" "http://www.w3.org/Graphics/SVG/1.1/DTD/svg11.dtd">
<svg version="1.1" id="Capa_1" xmlns="http://www.w3.org/2000/svg" xmlns:xlink="http://www.w3.org/1999/xlink" x="0px" y="0px"
	 width="64px" height="64px" viewBox="0 0 612 612" style="enable-background:new 0 0 612 612; fill: red;" xml:space="preserve">
<g>
	<g>
		<path d="M556.141,306c0-153.581-124.494-278.076-278.065-278.076C124.495,27.924,0,152.419,0,306
			c0,153.571,124.495,278.076,278.076,278.076C431.646,584.065,556.141,459.571,556.141,306z M278.076,111.555
			c26.236,0,50.958,6.52,72.621,18.013l-41.726,64.997c-9.864-2.608-20.222-3.996-30.906-3.996c-10.684,0-21.042,1.398-30.905,3.996
			l-41.715-64.997C227.117,118.075,251.829,111.555,278.076,111.555z M88.405,249.352c8.108-24.954,21.936-46.448,39.571-63.504
			l48.845,59.666c-11.157,17.14-18.076,37.278-19.286,58.95l-74.44,19.527C78.857,299.827,80.297,274.306,88.405,249.352z
			 M160.858,472.315c-21.231-15.426-37.394-35.217-48.172-57.258l71.496-27.877c13.187,16.3,30.537,29.098,50.433,36.784
			l-4.417,76.48C205.907,496.996,182.079,487.742,160.858,472.315z M395.294,472.315c-21.231,15.416-45.06,24.681-69.341,28.119
			l-4.416-76.48c19.896-7.676,37.246-20.474,50.433-36.783l71.496,27.877C432.688,437.098,416.524,456.889,395.294,472.315z
			 M398.606,304.464c-1.21-21.672-8.129-41.81-19.286-58.95l48.845-59.666c17.625,17.057,31.463,38.55,39.571,63.504
			c8.107,24.954,9.548,50.475,5.31,74.63L398.606,304.464z"/>
		<path d="M370.382,582.098c33.682,3.523,69.004,3.334,100.656-9.18c55.712-20.59,73.651-65.965,140.898-58.078L612,462.115
			C507.054,471.842,478.798,572.54,370.382,582.098z"/>
	</g>
</g>
<g>
</g>
<g>
</g>
<g>
</g>
<g>
</g>
<g>
</g>
<g>
</g>
<g>
</g>
<g>
</g>
<g>
</g>
<g>
</g>
<g>
</g>
<g>
</g>
<g>
</g>
<g>
</g>
<g>fill="#85D2FF"</g>
</svg>
