<svg aria-hidden="true" style="position:absolute;width:0;height:0;overflow:hidden" xmlns="http://www.w3.org/2000/svg"><defs>
<symbol id="icon-arrow-left" viewBox="0 0 32 32"><path stroke-linejoin="round" stroke-linecap="round" stroke-width="2.667" d="M25.333 16H6.666M16 25.333 6.667 16 16 6.667"/></symbol>
<symbol id="icon-arrow-right" viewBox="0 0 32 32"><path stroke-linejoin="round" stroke-linecap="round" stroke-width="2.667" d="M6.667 16h18.667M16 25.333 25.333 16 16 6.667"/></symbol>
<symbol id="icon-circle-up" viewBox="0 0 32 32"><path d="M0 16c0 8.837 7.163 16 16 16s16-7.163 16-16S24.837 0 16 0 0 7.163 0 16zm29 0c0 7.18-5.82 13-13 13S3 23.18 3 16 8.82 3 16 3s13 5.82 13 13z"/><path d="m22.086 20.914 2.829-2.829-8.914-8.914-8.914 8.914 2.828 2.828 6.086-6.086z"/></symbol>
<symbol id="icon-arrow-up" viewBox="0 0 32 32"><path d="M27.414 12.586l-10-10c-0.781-0.781-2.047-0.781-2.828 0l-10 10c-0.781 0.781-0.781 2.047 0 2.828s2.047 0.781 2.828 0l6.586-6.586v19.172c0 1.105 0.895 2 2 2s2-0.895 2-2v-19.172l6.586 6.586c0.39 0.39 0.902 0.586 1.414 0.586s1.024-0.195 1.414-0.586c0.781-0.781 0.781-2.047 0-2.828z"></symbol>
<symbol id="icon-heart" viewBox="0 0 34 32"><path d="m17.231 31.705-2.412-2.412C5.859 21.367.001 16.025.001 9.478.001 4.136 4.136.001 9.478.001c2.929 0 5.858 1.378 7.754 3.618 1.895-2.24 4.825-3.618 7.754-3.618 5.342 0 9.477 4.135 9.477 9.477 0 6.548-5.858 11.889-14.818 19.815l-2.412 2.412z"/></symbol>
<symbol id="icon-icon-film" viewBox="0 0 32 32"><path stroke-linejoin="round" stroke-linecap="round" stroke-width="2.667" d="M26.427 2.667H5.574a2.907 2.907 0 0 0-2.907 2.907v20.853a2.907 2.907 0 0 0 2.907 2.907h20.853a2.907 2.907 0 0 0 2.907-2.907V5.574a2.907 2.907 0 0 0-2.907-2.907zm-17.094 0v26.667M22.667 2.667v26.667M2.667 16h26.667M2.667 9.333h6.667M2.667 22.667h6.667m13.333 0h6.667M22.667 9.333h6.667"/></symbol>
<symbol id="icon-arrow-up-bird" viewBox="0 0 27 32"><path d="M20.478 0.733c-0.203 0.605-0.79 1.878-1.15 2.495-0.064 0.113-0.229 0.401-0.363 0.643-0.309 0.553-0.651 1.065-0.993 1.492-0.941 1.173-2.729 3.038-4.018 4.193l-0.334 0.301-0.018-0.448c-0.057-1.296-0.257-2.472-0.677-3.969-0.147-0.517-0.404-1.224-0.435-1.194-0.005 0.005-0.036 0.219-0.064 0.473-0.159 1.356-0.244 1.857-0.432 2.598-0.216 0.849-0.481 1.569-0.869 2.351-0.9 1.808-1.906 2.986-4.334 5.073-0.921 0.792-4.257 3.604-5.003 4.216-0.792 0.651-1.158 0.965-1.155 0.99 0.003 0.023 0.113 0.098 0.795 0.52 1.862 1.158 2.889 1.924 3.758 2.814l0.337 0.345 0.057 0.322c0.080 0.437 0.234 1.024 0.373 1.43 0.394 1.145 0.895 1.95 1.721 2.76 0.643 0.63 1.276 1.109 2.089 1.574 1.119 0.64 2.606 1.116 4.049 1.294 1.556 0.193 3.722 0.054 5.263-0.334 1.433-0.363 2.806-1.132 3.81-2.13 0.424-0.424 0.646-0.697 0.988-1.217 1.109-1.682 1.608-3.985 1.374-6.349-0.242-2.444-1.093-4.736-2.41-6.49-0.098-0.131-0.175-0.242-0.17-0.244 0.005-0.005 0.144-0.095 0.306-0.203 0.442-0.296 0.821-0.607 1.237-1.021 0.638-0.635 1.119-1.307 1.549-2.161 0.139-0.27 0.25-0.504 0.25-0.517 0-0.015-0.062 0.010-0.134 0.054-0.18 0.105-0.81 0.409-1.037 0.499-0.098 0.041-0.324 0.121-0.502 0.18s-0.471 0.162-0.651 0.229c-0.391 0.141-0.941 0.288-1.561 0.414-0.247 0.049-0.478 0.098-0.514 0.105-0.046 0.010 0.026-0.075 0.257-0.304 1.093-1.083 1.875-2.482 2.354-4.211 0.265-0.96 0.401-2.022 0.345-2.704-0.041-0.499-0.036-0.496-0.232-0.098-0.232 0.468-0.404 0.741-0.857 1.345-0.522 0.702-0.723 0.931-1.428 1.636-0.875 0.872-1.194 1.127-2.673 2.117-0.448 0.301-0.831 0.556-0.849 0.566-0.044 0.026-0.036 0.013 0.139-0.28 0.177-0.298 0.576-1.104 0.741-1.497 0.674-1.608 1.057-3.285 1.186-5.191 0.059-0.885 0.039-1.937-0.049-2.405l-0.031-0.167-0.033 0.103zM20.118 3.156c-0.103 1.060-0.221 1.752-0.491 2.853-0.404 1.644-0.867 2.886-1.531 4.1-0.358 0.656-0.494 0.926-0.471 0.926 0.080 0 1.032-0.442 1.394-0.648 0.273-0.154 1.037-0.661 1.443-0.954 1.163-0.841 2.266-1.891 3.161-3.010 0.167-0.208 0.306-0.378 0.311-0.378 0.010 0 0.010 0.003-0.116 0.512-0.322 1.294-0.646 2.22-1.070 3.064-0.507 1.003-0.911 1.559-1.644 2.256-0.198 0.188-0.35 0.347-0.34 0.36 0.033 0.031 0.913-0.039 1.314-0.108 0.774-0.131 1.633-0.383 2.557-0.754 0.244-0.098 0.442-0.172 0.442-0.165 0 0.028-0.35 0.584-0.458 0.731-0.203 0.27-0.769 0.836-1.124 1.119-0.36 0.288-1.080 0.785-1.304 0.898-0.075 0.036-0.141 0.072-0.147 0.077s0.026 0.051 0.067 0.105c0.316 0.412 0.808 1.278 1.129 1.994 0.653 1.451 1.109 3.159 1.302 4.857 0.049 0.448 0.041 1.559-0.013 1.955-0.376 2.686-1.546 4.89-3.208 6.050-1.186 0.826-3.005 1.353-5.119 1.487-1.587 0.098-3.051-0.093-4.527-0.589-1.659-0.561-2.848-1.317-3.864-2.459-0.679-0.761-1.111-1.682-1.564-3.331-0.283-1.029-0.268-0.993-0.666-1.389-0.823-0.815-2.323-1.886-4.064-2.902-0.026-0.013 0.028-0.067 0.193-0.185 0.126-0.093 0.386-0.288 0.576-0.44 0.19-0.149 0.731-0.571 1.196-0.936 1.451-1.134 3.033-2.431 3.756-3.074 0.579-0.514 1.672-1.597 2.076-2.058 0.522-0.594 1.201-1.538 1.705-2.379 0.373-0.617 0.615-1.17 1.096-2.49 0.198-0.548 0.401-1.32 0.502-1.927 0.026-0.152 0.054-0.268 0.064-0.257 0.033 0.036 0.229 0.671 0.304 0.983 0.044 0.178 0.095 0.455 0.116 0.617 0.033 0.255 0.090 1.122 0.085 1.312-0.018 0.821-0.049 1.363-0.093 1.595-0.026 0.149-0.044 0.275-0.039 0.28s0.069-0.028 0.144-0.072c0.731-0.445 3.082-2.773 4.466-4.427 0.862-1.032 2.107-2.812 2.413-3.452 0.026-0.054 0.051-0.093 0.057-0.085 0.008 0.005-0.003 0.159-0.018 0.34z"></path>
<path d="M15.1 12.612c-0.093 0.126-3.552 4.779-4.365 5.865-0.103 0.139-0.188 0.257-0.188 0.265 0 0.005 0.731 0.010 1.621 0.010h1.621v10.238h2.881v-10.238h1.621c0.893 0 1.621-0.005 1.621-0.010 0-0.008-0.085-0.126-0.188-0.265-1.579-2.114-4.293-5.767-4.37-5.88-0.057-0.080-0.111-0.147-0.118-0.147-0.010 0-0.069 0.075-0.134 0.162z"></path>
</symbol>
<symbol id="icon-search" viewBox="0 0 32 32"><path stroke-linejoin="round" stroke-linecap="round" stroke-width="2.667" d="M14.667 25.333c5.891 0 10.667-4.776 10.667-10.667S20.558 3.999 14.667 3.999 4 8.775 4 14.666s4.776 10.667 10.667 10.667zM28 28.001l-5.8-5.8"/></symbol><symbol id="icon-youtube" viewBox="0 0 80 32"><path d="M10.75 5.294a.449.449 0 0 0 .012-.056l.033-.236-1.48-.008c-1.337-.008-1.746 0-1.783.034-.018.016-.479 1.77-1.302 4.946-.392 1.515-.723 2.725-.734 2.689s-.481-1.766-1.044-3.843c-.563-2.078-1.034-3.789-1.048-3.803-.019-.019-1.812-.028-3.263-.016-.21.002-.327-.41 1.876 6.598.305.97.762 2.344 1.015 3.052.292.817.5 1.448.642 1.974.251 1.002.26 1.63.205 2.363-.063.847-.072 6.826-.011 6.926.047.076 2.851.112 3.116.04.042-.012.071-.053.09-.279.066-.194.071-.968.071-4.18v-4.103l.179-.566c.117-.37.412-1.344.656-2.163s.538-1.801.654-2.18c1.057-3.447 2.067-6.838 2.094-7.032l.022-.158zM26.441 10.27l-.001.214h-.033l-.019 5.906-.018 5.726-.458.466c-.513.523-.925.722-1.297.629-.405-.102-.395.056-.429-6.712l-.031-6.23h-2.947v.214h-.034v6.759c0 7.242 0 7.238.367 7.965.293.579.719.861 1.45.959.962.128 2-.308 2.962-1.244l.418-.407v.701c0 .606.017.706.127.737.18.05 2.412.053 2.653.004l.2-.041v-.207l.034-.007V10.23l-2.944.039zM18.965 13.323c-.279-1.198-.802-2.004-1.663-2.561-1.353-.875-2.897-.967-4.331-.259-1.045.516-1.717 1.372-2.065 2.628-.041.15-.072.275-.095.463-.088.443-.099 1.105-.122 4.186-.035 4.748.019 5.313.614 6.391.583 1.058 1.794 1.833 3.112 1.993.397.048 1.201-.027 1.663-.155 1.051-.291 2.058-1.122 2.504-2.065.192-.407.309-.691.379-1.208.13-.707.14-1.849.14-4.762 0-3.715-.012-4.121-.136-4.651zM15.604 23c-.247.188-.679.27-1.031.195-.271-.058-.636-.482-.748-.869-.14-.482-.151-7.187-.03-8.502.199-.658.756-1.002 1.364-.838.474.128.716.424.854 1.046.103.461.115 1.035.093 4.414-.014 2.241-.022 3.336-.096 3.924-.074.371-.197.47-.407.63zM71.887 16.692h1.424l-.023-1.29c-.022-1.183-.039-1.319-.198-1.64-.249-.507-.618-.731-1.201-.731-.701 0-1.146.339-1.356 1.036-.089.296-.183 2.334-.116 2.51.038.098.241.116 1.469.116zM62.369 13.757c-.19-.383-.543-.571-.954-.556-.319.011-.674.146-1.015.407l-.254.193v9.269l.254.193c.576.439 1.209.532 1.644.241.172-.115.285-.274.373-.527.114-.329.124-.75.109-4.649-.015-4.064-.024-4.303-.157-4.57z"/>
<path d="M80.027 9.582c-.284-3.401-.509-4.505-1.211-5.923-.929-1.878-2.272-2.868-4.184-3.086-1.478-.168-7.041-.405-12.189-.52-8.912-.198-23.564.183-25.436.662-.865.221-1.513.597-2.188 1.269-1.183 1.177-1.887 2.865-2.17 5.2-.647 5.331-.66 11.773-.037 17.297.268 2.376.82 3.92 1.857 5.192.647.794 1.761 1.469 2.758 1.67.7.141 4.201.337 9.3.521.76.027 2.771.074 4.47.105 3.541.063 10.051.026 13.773-.079 2.504-.07 7.069-.255 7.922-.321.24-.018.796-.054 1.236-.079 1.477-.083 2.417-.393 3.3-1.086 1.142-.897 2.027-2.556 2.4-4.501.354-1.84.59-5.118.638-8.839.04-3.109-.013-4.787-.238-7.482zM44.54 8.35l-1.656.02-.073 17.661-1.435.018c-1.11.015-1.447-.001-1.474-.073-.019-.051-.042-4.032-.052-8.849l-.018-8.758-3.234-.041v-2.76l9.557.039.041 2.721-1.656.02zm10.154 10.122v7.595h-2.616v-.799c0-.601-.023-.799-.093-.799-.051 0-.288.198-.527.441-.517.526-1.13.949-1.653 1.145-1.083.405-2.112.169-2.551-.586-.401-.691-.409-.845-.409-8.011v-6.58h2.614l.02 6.196c.02 6.088.022 6.2.168 6.448.193.329.488.417.956.288.276-.076.464-.21.911-.654l.563-.561V10.878h2.616v7.595zm10.205 6.51c-.23.513-.744 1.016-1.165 1.14-1.099.324-1.98.06-2.998-.897-.316-.297-.61-.538-.654-.538-.053 0-.082.233-.082.69v.69h-2.616V5.572H60v3.343c0 1.839.025 3.343.054 3.343s.306-.244.613-.541c.707-.683 1.298-.981 2.049-1.038 1.338-.101 2.135.587 2.501 2.16.114.491.125 1.051.125 5.596 0 5.537-.001 5.56-.443 6.546zm11.069-3.039c-.023.57-.092 1.223-.154 1.454-.364 1.349-1.332 2.304-2.732 2.696-1.885.527-3.96-.337-4.788-1.994-.465-.93-.481-1.116-.481-5.662 0-3.707.013-4.162.132-4.667.336-1.431 1.168-2.357 2.578-2.871a3.916 3.916 0 0 1 1.26-.234c1.521-.031 3.031.787 3.663 2.119.427.899.48 1.283.522 3.816l.039 2.271-5.578.039-.02 1.526c-.029 2.153.116 2.815.697 3.207.489.329 1.24.305 1.649-.055.383-.337.491-.698.529-1.753l.034-.927h2.694l-.043 1.036z"/></symbol></defs></svg>