<svg id="Warstwa_1" data-name="Warstwa 1" xmlns="http://www.w3.org/2000/svg" viewBox="0 0 326.55 326.55"><defs><style>.cls-1,.cls-3{fill:none;stroke-miterlimit:22.93;}.cls-1{stroke:#fff;stroke-width:0.57px;}.cls-2{fill:#9c3603;}.cls-10,.cls-11,.cls-12,.cls-13,.cls-14,.cls-15,.cls-16,.cls-17,.cls-18,.cls-19,.cls-2,.cls-20,.cls-21,.cls-22,.cls-23,.cls-24,.cls-25,.cls-26,.cls-3,.cls-4,.cls-5,.cls-6,.cls-7,.cls-8,.cls-9{fill-rule:evenodd;}.cls-3{stroke:#f60;stroke-width:9.92px;}.cls-4{fill:#3f3f3f;}.cls-5{fill:#031122;}.cls-6{fill:#1f2503;}.cls-7{fill:#acac25;}.cls-8{fill:#fcf100;}.cls-9{fill:#faef17;}.cls-10{fill:#f8b914;}.cls-11{fill:#d2d3d5;}.cls-12{fill:#061321;}.cls-13{fill:#d3d9df;}.cls-14{fill:#d2d5d9;}.cls-15{fill:#d2d3d6;}.cls-16{fill:#fbfbfb;}.cls-17{fill:#d2d3d4;}.cls-18{fill:#9e248f;}.cls-19{fill:#d1a62e;}.cls-20{fill:#130f05;}.cls-21{fill:#5b5533;}.cls-22{fill:#f1961d;}.cls-23{fill:#ec741f;}.cls-24{fill:#542928;}.cls-25{fill:#682c2d;}.cls-26{fill:#241e06;}</style></defs><rect class="cls-1" x="0.28" y="0.28" width="325.98" height="325.98" rx="45.38"/><path class="cls-2" d="M196.18,366.9V474.66c0,11,1.68,20.39,6.85,28.9a45.2,45.2,0,0,0,7.85,10.16,35.43,35.43,0,0,0,3.09,2.91c.61.49.88.78,1.58,1.3a45.58,45.58,0,0,0,13.85,7.27c8,2.27,11.63,1.92,19.57,1.54l27.36-2.16c4.73-.12,11.62-1.07,16.57-1.2,1.64,0,3.87-.44,5.51-.48,4.59-.12,12.08-1.14,16.33-1.2l27.6-2.16c1.74-.08,3.68-.13,5.38-.38,1.86-.28,3.68-.17,5.56-.44,16.18-2.27,28.19-9.16,37.43-21.84a25,25,0,0,0,3.34-5.82c.51-1.41,1.92-4.53,1.72-5.91s-2-1-3.21-2.16a7.38,7.38,0,0,0-3.34-1.88c-3,6.19-9.17,11.58-15.14,13.4a40.9,40.9,0,0,1-18.64,9.33c-5.73,1.14-19.23,1.79-25.57,2.27-1.51.12-3.7.45-5.29.47s-3.84.24-5.11.41c-3.13.42-12.35.68-15.64,1.17l-62.29,4.66c-10.49,0-19.92-6.65-25.4-15.17a36.64,36.64,0,0,1-5.56-18.91V362.58a36.68,36.68,0,0,1,5.71-19.49q.63-1,1.32-1.95c.83-6.25,2.57-10.2,9.24-15.82a7.62,7.62,0,0,0-3.71-3.62c-2.21-.95-1.3-2.31-3-1.51a50.74,50.74,0,0,0-5.68,3.58,49.15,49.15,0,0,0-8.48,9.05,62.36,62.36,0,0,0-4.93,8.26C197.1,350.68,196.18,355.28,196.18,366.9Z" transform="translate(-134.16 -257.68)"/><path class="cls-3" d="M251.47,313.32l105.66,10.05c22.53,2.15,41.11,18.53,41.16,41.16l.21,98.21c.05,22.64-18.58,39.44-41.16,41.16L251.47,512c-22.58,1.72-41.16-18.52-41.16-41.16V354.48C210.31,331.84,228.93,311.18,251.47,313.32Z" transform="translate(-134.16 -257.68)"/><path class="cls-4" d="M299.66,397.93l-43.91-62.65,29.58,62a48.24,48.24,0,0,1,10.68-.07A21.84,21.84,0,0,1,299.66,397.93Z" transform="translate(-134.16 -257.68)"/><path class="cls-4" d="M230.33,436.52c.13-1.24,10.06,5.15,10.23,4-6.2-11-11.78-22.15-17.15-32.72-5.81-11.55-11.41-22.47-16.62-32.54S196.49,356.07,192,348s-8.72-14.89-12.16-20.54-6.32-10-8.24-12.95l-3-4.52,8.63,18.87c2.76,6,5.92,13.34,9.62,21.72s7.63,18,12.05,28.34,9.07,21.72,14,33.67S217,424,223.61,436.86l6.72-.34Zm94.23-59.17c-1.45-2-2.9-3.9-4.33-5.82-7.86-10.42-15.52-20-22.62-28.79l-19.27-24-7.93-10.1L263.7,300c-4-5.27-7.11-9.4-9.25-12.22l-3.25-4.36,2.38,4.9c1.6,3.16,3.93,7.82,7.16,13.61,1.61,2.9,3.41,6.1,5.4,9.56s4.27,7.14,6.67,11.08c4.77,7.9,10.44,16.62,16.68,26.08l19.25,29.06C309,378.15,324.27,376.92,324.56,377.35Z" transform="translate(-134.16 -257.68)"/><path class="cls-4" d="M223.51,368.58c1.07,3.46,2.25,7.1,3.5,10.86s2.6,7.62,4,11.53,2.92,7.88,4.46,11.83l2.38,5.89c.82,1.95,1.62,3.9,2.46,5.82,1.66,3.83,3.36,7.6,5.08,11.21s3.43,7,5.14,10.3c.12-1.07.22-2.1.31-3.07s.19-2,.28-2.88a37.7,37.7,0,0,1,2-9.37c-1.88-3.13-3.76-6.39-5.63-9.73-1-1.79-2-3.61-3-5.43L241.65,400c-1.9-3.72-3.78-7.45-5.55-11.16s-3.49-7.39-5.11-11-3.13-7.06-4.54-10.38-2.71-6.47-3.88-9.39c-4.71-11.68-7.41-19.65-7.41-19.65s1.89,8.2,5.41,20.34C221.45,361.84,222.43,365.12,223.51,368.58Z" transform="translate(-134.16 -257.68)"/><path class="cls-4" d="M202.69,299.1c6,12.35,14,28.81,22,45.28,2,4.1,4.07,8.2,6.07,12.24s4,8,5.93,11.83c3.87,7.67,7.53,14.81,10.78,20.89,6.4,12.19,11.09,20.16,11.09,20.16s-2.55-8.9-7.45-21.8c-1.23-3.23-2.55-6.73-4.07-10.38s-3-7.53-4.79-11.47-3.47-8.05-5.41-12.14l-5.88-12.41c-2-4.12-4.17-8.2-6.22-12.24s-4.29-7.9-6.33-11.7-4.25-7.36-6.26-10.77-4.06-6.55-5.93-9.47-3.7-5.5-5.3-7.82-3.08-4.27-4.3-5.88c-2.45-3.21-3.91-5-3.91-5s1,2.11,2.73,5.73S199.68,292.91,202.69,299.1Z" transform="translate(-134.16 -257.68)"/><path class="cls-4" d="M252.56,342.76c-1-1.92-2.05-3.94-3.15-5.94l-3.28-6.11-3.34-6.09c-1.07-2-2.21-4-3.26-5.88-2.11-3.81-4.15-7.34-5.91-10.36s-3.27-5.53-4.35-7.27-1.73-2.72-1.73-2.72,1.46,4.47,4.21,10.92c1.34,3.24,3,7,4.93,10.91,1,2,1.93,4,3,6s2.15,4.1,3.24,6.17c2.27,4.09,4.54,8.16,6.85,11.89s4.49,7.19,6.47,10.08c3.93,5.81,6.94,9.43,6.94,9.43s-2-4.26-5.15-10.49C256.47,350.23,254.59,346.62,252.56,342.76Z" transform="translate(-134.16 -257.68)"/><path class="cls-5" d="M317.7,381.56c4-1.34,8.06-2.74,12.09-4.09-.14.2-.28.41-.44.6a84.65,84.65,0,0,0-12.78,19,30.53,30.53,0,0,0-1.91,5c1.41-.1,2.79.22,4.2.2,2.17-3.28,4.27-6.61,6.51-9.85,3.17,0,6.34,0,9.52,0-4.85,3.4-9.75,6.73-14.58,10.16a5.7,5.7,0,0,0,1.95.62,15.88,15.88,0,0,1,4.28-2c2.32-.93,4.71-1.7,7-2.59,2.27-.69,4.51-1.44,6.78-2.12,7.84-2.3,15.78-4.24,23.81-5.75,1.49-.24,2.95-.68,4.46-.83,5-.85,10-1.63,15-2.21,2-.17,3.9-.59,5.87-.6a36.27,36.27,0,0,1,5.31-.37,21.46,21.46,0,0,1,5.49,0,19.6,19.6,0,0,1,2.86.17,60.74,60.74,0,0,1,11.19,1.9,59.56,59.56,0,0,1,14.36,6.08c1.31.66,2.44,1.62,3.7,2.36a52.51,52.51,0,0,1,11.73,11.56A38.59,38.59,0,0,1,450,420.6c.45,1.43.58,2.93.93,4.38v4.35c-.26.84-.25,1.74-.44,2.61a39.27,39.27,0,0,1-3.84,10,57.46,57.46,0,0,1-6.66,9.62,48.36,48.36,0,0,1-3.68,3.9c-5.46,5.58-12.51,9.29-19.73,12.08-4,1.53-8,2.8-12.16,3.93-1.9.53-3.86.81-5.78,1.22a30.08,30.08,0,0,1-4.33.42c-1.46,0-2.91,0-4.36,0a15.57,15.57,0,0,1-9.41-3.83,9.84,9.84,0,0,1-2.5-4.69,23.15,23.15,0,0,1-.41-3.2,35.3,35.3,0,0,0,7.7,2.92,19.86,19.86,0,0,0,4.06.5,8.24,8.24,0,0,0,5.9-2.25,9.88,9.88,0,0,0,2-5.53,8.07,8.07,0,0,0-2.12-6,15.24,15.24,0,0,0-1.88-1.52,30.84,30.84,0,0,0-6.76-2.9c-3.68-1-7.24-2.45-10.93-3.47-4.21-1.26-8.49-2.24-12.79-3.13-.73-.16-1.27.46-1.86.76a23.94,23.94,0,0,1-3.29,1.82,40.87,40.87,0,0,1-13.88,4.13l-.37.11c.68.82,1.78,1,2.71,1.38A52.29,52.29,0,0,1,354,452.2a37.37,37.37,0,0,1,7.88,6.69,20.52,20.52,0,0,1,4.62,8.06,14.2,14.2,0,0,1-2.68,12,27.67,27.67,0,0,1-7.11,6.71,42.09,42.09,0,0,1-14.81,6.21,100.72,100.72,0,0,1-11.2,1.5c-.92.2-1.87.06-2.78.23s-1.65,0-2.46.19-1.82,0-2.72.14c-1.71.31-3.47,0-5.18.29-2.13.07-4.27,0-6.41,0a2.56,2.56,0,0,0-.95.19h-6.24a2.65,2.65,0,0,0-1-.19c-2,0-4,0-6.06,0a8.7,8.7,0,0,1-1.34-.14,38.11,38.11,0,0,1-4-.17c-.9-.11-1.81,0-2.71-.14-1.05-.19-2.12,0-3.16-.23-5.61-.38-11.2-1.09-16.76-2-4.89-1-9.87-1.85-14.45-3.91a21.9,21.9,0,0,1-6.67-4.31,15.8,15.8,0,0,1-5.11-11,19.9,19.9,0,0,1,.27-5.76,61.19,61.19,0,0,0-19.29,6c-1.29.58-2.38,1.53-3.68,2.11,1.48-2.59,2.69-5.32,4.08-8,.19-.3.37-.66.75-.75a57.72,57.72,0,0,1,8.09-1.94c1.45-.08,2.9,0,4.35,0a30.19,30.19,0,0,1,6,1.15,23.24,23.24,0,0,1,1-3.76c-1.71-.84-3.38-1.76-5.11-2.57a33,33,0,0,0-9.63-1.92c-.93-.19-1.89,0-2.81-.22-1.74-.22-3.52.1-5.25-.23-1.5-.06-3,0-4.52,0a53.53,53.53,0,0,1-5.67.21,9.55,9.55,0,0,1-2.39.13c.84-1.19,2.06-2,2.95-3.18.68-.89,1.58-1.59,2.29-2.45,1-1.3,2.34-2.28,3.27-3.62,8.68,1.81,17.39,4.41,24.83,9.37a29.15,29.15,0,0,1,2.72,2.24,11.18,11.18,0,0,0,1-2.13c-.45-.85-1.39-1.29-2-2a75,75,0,0,0-6.14-4.65,68,68,0,0,0-11-6.08c-2.1-1-4.36-1.64-6.53-2.51,1.14-.39,2.3-.69,3.43-1.12,1.93-.7,3.92-1.22,5.86-1.91.39-.11.89-.26,1.23,0a64.61,64.61,0,0,1,6.19,5,44.05,44.05,0,0,1,4.95,4.71,55.14,55.14,0,0,1,5,6,7.29,7.29,0,0,0,1.17-2c1.08-1.94,2.07-3.93,3.3-5.78a86.64,86.64,0,0,1,9.42-12.16c.95-1.2,2.13-2.17,3.14-3.3,1-1,2-1.94,3-2.92a132,132,0,0,1,12.12-10c2.78-2.13,5.78-4,8.69-5.89l.36-.36A70.75,70.75,0,0,0,276,416.7a22,22,0,0,1,2-1.77c2.72-2.14,5.44-4.43,8.72-5.67a20.18,20.18,0,0,0,3.34-1.32,4.73,4.73,0,0,0-1.19.06c-1.06.27-2.14.45-3.18.79a119.61,119.61,0,0,0-11.91,4.11,19.73,19.73,0,0,1,3.16-2.82,30.07,30.07,0,0,1,7.34-3.63,31.92,31.92,0,0,1,4.55-.93,13.73,13.73,0,0,1,3.62-.1,30.14,30.14,0,0,1,4.42.62,1.27,1.27,0,0,0-.61-.64c-3.05-1.91-6.82-2.09-10.29-1.65a21.81,21.81,0,0,0-3.69.4,7.56,7.56,0,0,1,2.33-1.35,19.46,19.46,0,0,1,6.44-1.91,8.55,8.55,0,0,1,3.11,0,13.25,13.25,0,0,1,4.93,1.33,21.94,21.94,0,0,1,2.34,1.86,3.18,3.18,0,0,0-.92-3.48,14.7,14.7,0,0,0-3.85-2.49,11,11,0,0,1,4.72,1.05,14.32,14.32,0,0,1,3.68,2.2c.82.58,1.46,1.38,2.34,1.88a3.32,3.32,0,0,0,1.15-.23c-.53-4.66-2.2-9.12-2.67-13.8a1.29,1.29,0,0,1,.46-1c.93-.78,1.69-1.73,2.62-2.5,1.33-1.1,2.41-2.46,3.73-3.56-.61,3.36-.95,6.76-1.52,10.13s-1,6.95-1.57,10.42a32.58,32.58,0,0,1,3.94-.47,22.62,22.62,0,0,0,.27-3.18,69.82,69.82,0,0,1,1.55-10.36c.54-1.78.9-3.6,1.43-5.38.21-.61.15-1.52.93-1.72ZM392.86,390h0c-1.11.06-2.22.2-3.33.29a4.27,4.27,0,0,0-1.37.26c-.44,0-.87,0-1.3.06-6,.7-11.91,1.53-17.83,2.54h.16c-5.43,1-10.85,2.05-16.22,3.37a10.19,10.19,0,0,0-1.74.49c-2.13.26-4.1,1.16-6.18,1.65-3.05.91-6.14,1.72-9.14,2.78s-6.15,2.13-9.19,3.31a7.44,7.44,0,0,0-2.51,1.31c-1.39,1.32-2.92,2.5-4.27,3.87a85.78,85.78,0,0,0-7.77,8.51c-1.85,2.32-3.26,5-5.53,7a31.93,31.93,0,0,1-2.73,2.35c-1.34.89-2.63,1.86-4,2.63a79.81,79.81,0,0,1-9.06,4.3,2,2,0,0,0-.95.25c-2.33,1-4.74,1.9-7,3a4.32,4.32,0,0,0-.86.61,24.52,24.52,0,0,0,3.3-1.19c1.35-.52,2.6-1.27,4-1.76a8.16,8.16,0,0,0,2.08-.89c2.16-.46,4.28-1.3,6.52-1.35l-.29-.18a20,20,0,0,0,2.88-.34c2.83-.35,5.68-.58,8.52-.67a22.92,22.92,0,0,0,4.46.12c3.22,0,6.44,0,9.66.07a4,4,0,0,0,1.23-.19c1.36.08,2.72,0,4.07.19,1.9,0,3.79.19,5.68.32,2.08.21,4.18.23,6.24.57,6.58.57,13.14,1.47,19.64,2.68,2.2.45,4.43.72,6.59,1.33a138,138,0,0,1,17.07,4.78c2.28.74,4.6,1.34,6.83,2.22,2.62,1,5.31,2.07,7.3,4.1a10.12,10.12,0,0,1,3.08,8,15.47,15.47,0,0,1-2.7,8.2,10.12,10.12,0,0,1-7.23,3.46,22.67,22.67,0,0,1-4.36-.16,28.16,28.16,0,0,0-2.87-.48,8.66,8.66,0,0,0,2.78,1.56c2.64.93,5.48.84,8.23.75a46.22,46.22,0,0,0,6.73-1.07,118.69,118.69,0,0,0,11.81-3.54,66.84,66.84,0,0,0,11.57-5.22,4,4,0,0,0,.81-.37,42.27,42.27,0,0,0,8.74-6.83c4.63-5,8.83-10.49,11.35-16.85a20.68,20.68,0,0,0,1.73-5.39,46,46,0,0,0,0-5.87c-1-6.43-4.28-12.29-8.52-17.12a32.55,32.55,0,0,0-3.14-3.29,52.4,52.4,0,0,0-9.38-6.91,58.5,58.5,0,0,0-10.8-4.71,55.55,55.55,0,0,0-13.07-2.4,1.69,1.69,0,0,0-.56-.19c-.35-.41-.9-.35-1.37-.36-2,0-4.06,0-6.08,0a2.36,2.36,0,0,0-1.58.38ZM309,405.24h0a28.45,28.45,0,0,1,2.35,3.94l.18,0c0,.1-.08.3-.1.41l-.41,0a15.51,15.51,0,0,0-3.27-.23c.07.31.15.6.23.9a3.58,3.58,0,0,1-1.75,3.42,17.84,17.84,0,0,1-1.95.87,11.75,11.75,0,0,1-4.46.35,8.07,8.07,0,0,1-3.1-1,7.8,7.8,0,0,1-1.66-1.31c-.17-.4-.37-.78-.52-1.18a6.63,6.63,0,0,0-1.91.93c-3.26,1.79-6.39,3.83-9.47,5.91a132,132,0,0,0-16.85,14,105.21,105.21,0,0,0-9.07,10.27,55.58,55.58,0,0,0-4.88,7.3c.06,2.54.39,5.07.4,7.62.61-.18,1-.76,1.45-1.12a3.9,3.9,0,0,1,2.49-1,3.79,3.79,0,0,1,2.46,1.78,20.31,20.31,0,0,1,2.5,5.63,17.56,17.56,0,0,0,.62,2.29,10,10,0,0,1,1.91-2.73,2,2,0,0,1,1.5-.66,2.32,2.32,0,0,1,1.58,1.19,14.87,14.87,0,0,1,1.62,4.13l.22.06c.37-.85.61-1.91,1.52-2.36a3,3,0,0,1,2.86,1.23,29,29,0,0,1,4.1,5l.28.06a7.68,7.68,0,0,1,3.69-5.87,5,5,0,0,1,3.28-.38,8.7,8.7,0,0,1,4.47,4.6,1.9,1.9,0,0,0,.43-.21c2.07-1.94,4.93-2.79,6.94-4.8a12.58,12.58,0,0,0,2.91-5.07l.27-.09a7.11,7.11,0,0,1,.92,3.92c-.22,2.12-.94,4.15-1.31,6.25a16.45,16.45,0,0,0-.17,4,3.55,3.55,0,0,0,1-1.23c2-3,3.41-6.27,5.31-9.29a9.69,9.69,0,0,1,3.18-3.37c.08,1.72-.23,3.41-.23,5.13-.27,2.52-.42,5.05-.7,7.56,0,1.35-.31,2.69-.25,4l.43-.24a29.69,29.69,0,0,0,10.45-16.31,13.09,13.09,0,0,1,2.8,6.1,19.69,19.69,0,0,1,.21,4.34,27.25,27.25,0,0,1-.87,5.31,9.56,9.56,0,0,0,3.42-3.58,26.85,26.85,0,0,0,2.17-7.09c.19-1,.46-2,.61-3.06H328q.76,3.84,1.56,7.68a18.6,18.6,0,0,1,2-1.34,4.79,4.79,0,0,1,3.47-.49,10.89,10.89,0,0,1,2.13,1.07c-.52-1.5-.89-3.05-1.39-4.56-.77-2.32-1.54-4.65-2.1-7,.38-.24.87-.76,1.32-.36a25.35,25.35,0,0,1,6.86,7.86,32.51,32.51,0,0,1,2.26,7.67,46.13,46.13,0,0,0,2.11-8.34,10.76,10.76,0,0,0-.28-4.16,32.6,32.6,0,0,0-1.56-3.94c-.28-.56-.71-1-.95-1.62a10.22,10.22,0,0,1,7.6,4.09c1.49,1.9,2.71,4,4.32,5.82q-1.77-5.09-3.59-10.16c-.09-.38-.46-.56-.76-.74a42.38,42.38,0,0,0-7.91-3.59c-3.87-.66-7.8-1-11.72-1.31a23.54,23.54,0,0,1-2.65-.15c-3.22-.08-6.44-.1-9.66,0-1.15.18-2.31.08-3.46.24-7.3.69-14.76,2.05-21.21,5.71h-.23c1-.6,2-1.29,3-1.82A51.84,51.84,0,0,1,318,445.71c2,0,4-.07,6.05-.06a58.24,58.24,0,0,1,6.06.22,100.7,100.7,0,0,1,10.26,1.2,13.3,13.3,0,0,0-1.28-1.32c-4.15.1-8.26-.4-12.39-.69-13.61-1.21-27.19-2.79-40.75-4.5a6.55,6.55,0,0,0-2.33-.12c-3.32,1.32-5.8,4-8.14,6.6-.82.81-1.47,1.78-2.31,2.57a19.82,19.82,0,0,1,2.1-8.11,14.46,14.46,0,0,1,6.71-5.54c5.89-2.72,12.11-4.74,17.68-8.12a27.09,27.09,0,0,0,7.93-7,80,80,0,0,1,10.39-12.19c1.11-1.05,2.26-2.07,3.34-3.16a11.36,11.36,0,0,0-3.51-1,23.9,23.9,0,0,0-8.79.77Zm-4.68,4.51h0a12.46,12.46,0,0,1-.41,1.48,3.58,3.58,0,0,0-1.07.49,3,3,0,0,1-2.48-.38c-.51-.27-.63-1-1.13-1.21-1.2.14-2.39.35-3.59.54a2.19,2.19,0,0,0,1.07,1.86,8.12,8.12,0,0,0,6.17,1.12,5.29,5.29,0,0,0,3.77-2.09,1.63,1.63,0,0,0-.09-1.83l-2.24,0Zm6.28,24.94h0a85.25,85.25,0,0,0-11.92,1.23,15.85,15.85,0,0,0-5,1.6,2.8,2.8,0,0,0-1.25.35c-.67.32-1.37.57-2.05.86l.42.13c6.42.75,12.84,1.55,19.27,2.22,3.51.46,7,.66,10.55,1.14,4.44.33,8.86.83,13.31,1.06a61,61,0,0,0,6.63.18c3.95.06,7.8-1,11.56-2.06,1.24-.6,2.58-1,3.78-1.64.47-.26,1.05-.39,1.36-.87-1-.17-2-.27-3-.5a7.22,7.22,0,0,0-1.9-.19,34.67,34.67,0,0,0-4-.77A17.1,17.1,0,0,0,345,437l-.12-.22c-1.6-.08-3.17-.49-4.77-.65-4.83-.73-9.72-1-14.58-1.41-1.78,0-3.53-.28-5.3-.22-3.22,0-6.45-.15-9.65.17Zm-59.44,19.67h0a51.6,51.6,0,0,0-2.5,5.26,34.93,34.93,0,0,0-2.4,8.6,17.74,17.74,0,0,0,.91,8.24,13.77,13.77,0,0,0,3.25,4.52,20.5,20.5,0,0,0,6.44,4c4.48,1.83,9.28,2.6,14,3.53,3.14.42,6.27.91,9.43,1.22,2.73.31,5.49.38,8.22.72,4.39.22,8.78.52,13.18.51,4.86,0,9.73,0,14.59-.06,2.77-.19,5.55-.14,8.32-.39,4.82-.31,9.64-.71,14.41-1.5,1.44-.37,2.94-.49,4.36-.94a41.89,41.89,0,0,0,8-3.15,32.26,32.26,0,0,0,6.13-4.09,22.69,22.69,0,0,0,3.21-3.43,15.32,15.32,0,0,0,1.75-3,9.78,9.78,0,0,0,.81-6.07,16.06,16.06,0,0,0-3.38-6.51,33.56,33.56,0,0,0-3.27-3.37,7,7,0,0,0-2.47-1.71c.38,1.4,1,2.71,1.42,4.1.62,2,1.52,3.94,2,6a3.09,3.09,0,0,1-.83.51c-.28,0-.45-.27-.63-.45-.53-.61-1.06-1.21-1.55-1.86a41.94,41.94,0,0,1-3-4,15.44,15.44,0,0,0-3.45-3.93,5.81,5.81,0,0,0-2-1.17l-.15.19c.47,1.88,1.57,3.64,1.49,5.64a29.22,29.22,0,0,1-1.37,8.13c-.57,1.77-1.05,3.57-1.75,5.3a9,9,0,0,1-1.16-.07,35.76,35.76,0,0,0-1.4-7.31,16.51,16.51,0,0,0-1.88-4.2,26.16,26.16,0,0,0-3.27-3.92,3.07,3.07,0,0,0-1.12-.81,37.48,37.48,0,0,0,1.39,4.72c.73,2.54,1.52,5.05,2.18,7.61a2.85,2.85,0,0,1-1.06.33c-.72-.6-1.13-1.51-1.9-2.07a3.39,3.39,0,0,0-3-.81,6.41,6.41,0,0,0-3.09,2.18c-.33.5-.93.25-1.37.1q-.42-2-.78-4a3.61,3.61,0,0,0-.59-1.66c-.19.77-.32,1.54-.48,2.31-.67,3.11-2.05,6.23-4.65,8.2a10.81,10.81,0,0,1-2.34,1.47,2.81,2.81,0,0,1-.91-.47,8.87,8.87,0,0,1,.34-1.44,32.39,32.39,0,0,0,1-4.44,17,17,0,0,0-.3-5.33,6.64,6.64,0,0,0-1.08-2.84,39.74,39.74,0,0,1-1.69,3.91A34.31,34.31,0,0,1,307,478.26a3.09,3.09,0,0,1-.95.5c.1-1,.2-1.94.22-2.91.33-3.89.7-7.78,1.05-11.67a8.91,8.91,0,0,0,0-1.55,2.49,2.49,0,0,0-.75.8c-1.79,3-3.28,6.23-5.21,9.17a18.05,18.05,0,0,1-2.6,3.42,2.72,2.72,0,0,1-.45-.94A13.6,13.6,0,0,1,298,471a52.2,52.2,0,0,1,1.16-5.8,6.67,6.67,0,0,0,.3-2.21c-.82.67-1.28,1.66-2.09,2.35a40.85,40.85,0,0,1-5.7,3.74,14.37,14.37,0,0,0-2.47,2.46c-.22-.09-.29-.34-.4-.52a12.6,12.6,0,0,0-2.68-4.16,3.73,3.73,0,0,0-2.75-1.11,4.68,4.68,0,0,0-3.34,2.49,12.33,12.33,0,0,0-1.29,5l-1.08.19a25.65,25.65,0,0,0-5.24-6.83c-.31-.26-.7-.7-1.13-.45-1.06.47-1.09,1.8-1.26,2.79-.24,1.24-.1,2.51-.35,3.75l-1-.05a26.35,26.35,0,0,0-2.09-8.54,2.16,2.16,0,0,0-.74-1,1.17,1.17,0,0,0-1.16.41,17.21,17.21,0,0,0-2.24,4.05c-.39,0-.77,0-1.16-.06a21.07,21.07,0,0,0-.71-4.2,23.1,23.1,0,0,0-2-4.89A2.73,2.73,0,0,0,256,456.7a5.28,5.28,0,0,0-2.44,2,4.34,4.34,0,0,1-1,1.07,6.58,6.58,0,0,1-.87-.35c-.23-1.65-.07-3.33-.35-5l-.24-.09Zm139.29,15.58h0a13.72,13.72,0,0,0,4.43,0A36.37,36.37,0,0,0,390.42,469.94Z" transform="translate(-134.16 -257.68)"/><path class="cls-6" d="M392.86,390a2.36,2.36,0,0,1,1.58-.38c2,0,4.05,0,6.08,0,.47,0,1-.05,1.37.36C398.88,389.86,395.87,389.84,392.86,390Z" transform="translate(-134.16 -257.68)"/><path class="cls-7" d="M389.53,390.3c1.11-.09,2.22-.23,3.33-.29,3-.17,6-.15,9,0a1.69,1.69,0,0,1,.56.19c-1,0-1.93,0-2.89-.07a52.39,52.39,0,0,0-6.14.11c-1.76,0-3.5.39-5.26.35A4.27,4.27,0,0,1,389.53,390.3Z" transform="translate(-134.16 -257.68)"/><path class="cls-8" d="M393.42,390.21a52.39,52.39,0,0,1,6.14-.11c1,0,1.92.11,2.89.07a55.55,55.55,0,0,1,13.07,2.4,58.5,58.5,0,0,1,10.8,4.71,52.4,52.4,0,0,1,9.38,6.91,32.55,32.55,0,0,1,3.14,3.29c4.24,4.83,7.55,10.69,8.52,17.12a46,46,0,0,1,0,5.87,20.68,20.68,0,0,1-1.73,5.39c-2.52,6.36-6.72,11.89-11.35,16.85a42.27,42.27,0,0,1-8.74,6.83,4,4,0,0,1-.81.37c.46-1.65,1.18-3.21,1.66-4.86a76.16,76.16,0,0,0,2.95-12,36.91,36.91,0,0,0,.63-6.71,48.92,48.92,0,0,0-.17-5.68,33.13,33.13,0,0,0-4.44-12.75,30.94,30.94,0,0,0-8.2-9.22,56.78,56.78,0,0,0-13.58-7.81c-1.58-.71-3.26-1.14-4.86-1.77-2.37-1-4.86-1.58-7.3-2.32a57.72,57.72,0,0,0-8.25-1.47,67.5,67.5,0,0,0-11.28-.6c-3.06-.08-6.1.36-9.15.54a2,2,0,0,1,1.32-.81c1.66-.23,3.29-.67,5-.89a5.73,5.73,0,0,0,1.46-.39c-.44,0-.87,0-1.31,0H369c5.92-1,11.87-1.84,17.83-2.54.43,0,.86-.05,1.3-.06C389.92,390.6,391.66,390.24,393.42,390.21Z" transform="translate(-134.16 -257.68)"/><path class="cls-9" d="M369.19,393.15c.44,0,.87,0,1.31,0a5.73,5.73,0,0,1-1.46.39c-1.67.22-3.3.66-5,.89a2,2,0,0,0-1.32.81c-3,.46-5.95.8-8.89,1.44a9.83,9.83,0,0,1-2.64.31,10.19,10.19,0,0,1,1.74-.49C358.34,395.2,363.76,394.13,369.19,393.15Z" transform="translate(-134.16 -257.68)"/><path class="cls-10" d="M362.76,395.26c3.05-.18,6.09-.62,9.15-.54a67.5,67.5,0,0,1,11.28.6,57.72,57.72,0,0,1,8.25,1.47c2.44.74,4.93,1.35,7.3,2.32,1.6.63,3.28,1.06,4.86,1.77a56.78,56.78,0,0,1,13.58,7.81,30.94,30.94,0,0,1,8.2,9.22,33.13,33.13,0,0,1,4.44,12.75,48.92,48.92,0,0,1,.17,5.68,36.91,36.91,0,0,1-.63,6.71,76.16,76.16,0,0,1-2.95,12c-.48,1.65-1.2,3.21-1.66,4.86a66.84,66.84,0,0,1-11.57,5.22,118.69,118.69,0,0,1-11.81,3.54,46.22,46.22,0,0,1-6.73,1.07c-2.75.09-5.59.18-8.23-.75a8.66,8.66,0,0,1-2.78-1.56,28.16,28.16,0,0,1,2.87.48,22.67,22.67,0,0,0,4.36.16,10.12,10.12,0,0,0,7.23-3.46,15.47,15.47,0,0,0,2.7-8.2,10.12,10.12,0,0,0-3.08-8c-2-2-4.68-3.13-7.3-4.1-2.23-.88-4.55-1.48-6.83-2.22a138,138,0,0,0-17.07-4.78c-2.16-.61-4.39-.88-6.59-1.33-6.5-1.21-13.06-2.11-19.64-2.68-2.06-.34-4.16-.36-6.24-.57-1.89-.13-3.78-.28-5.68-.32-1.35-.18-2.71-.11-4.07-.19a21,21,0,0,0-2.75-.13c-2.9,0-5.8,0-8.71,0a33.73,33.73,0,0,0-3.89.15c-2.84.09-5.69.32-8.52.67a20,20,0,0,1-2.88.34l.29.18c-2.24.05-4.36.89-6.52,1.35l-.5-.05a79.81,79.81,0,0,0,9.06-4.3c1.41-.77,2.7-1.74,4-2.63a31.93,31.93,0,0,0,2.73-2.35c2.27-2,3.68-4.66,5.53-7a85.78,85.78,0,0,1,7.77-8.51c1.35-1.37,2.88-2.55,4.27-3.87a7.44,7.44,0,0,1,2.51-1.31c3-1.18,6.07-2.37,9.19-3.31s6.09-1.87,9.14-2.78c2.08-.49,4.05-1.39,6.18-1.65a9.83,9.83,0,0,0,2.64-.31c2.94-.64,5.92-1,8.89-1.44Zm-31.46,9.4h0a8.86,8.86,0,0,0-4.28,2.68c-.26.29-.77.72-.38,1.12a7.29,7.29,0,0,0,1.71-.5,8.11,8.11,0,0,1,4-.46c.86.29,1.07,1.27,1.5,2a1.5,1.5,0,0,0,2.36.25,3.75,3.75,0,0,0,.93-3.48,2.71,2.71,0,0,0-2.52-1.83,10.5,10.5,0,0,0-3.31.24ZM312,431.91h0c1.73.14,3.46,0,5.19.06,1.15,0,2.31.06,3.46-.07a4.77,4.77,0,0,0-1.19-.13c-2.14,0-4.3,0-6.45,0A2.7,2.7,0,0,0,312,431.91Z" transform="translate(-134.16 -257.68)"/><path class="cls-11" d="M309,405.24a23.9,23.9,0,0,1,8.79-.77,11.36,11.36,0,0,1,3.51,1c-1.08,1.09-2.23,2.11-3.34,3.16a3.18,3.18,0,0,0-.84-.23,30.19,30.19,0,0,0-5.59.76l-.18,0A28.45,28.45,0,0,0,309,405.24Z" transform="translate(-134.16 -257.68)"/><path class="cls-12" d="M331.3,404.66a10.5,10.5,0,0,1,3.31-.24,2.71,2.71,0,0,1,2.52,1.83,3.75,3.75,0,0,1-.93,3.48,1.5,1.5,0,0,1-2.36-.25c-.43-.71-.64-1.69-1.5-2a8.11,8.11,0,0,0-4,.46,7.29,7.29,0,0,1-1.71.5c-.39-.4.12-.83.38-1.12A8.86,8.86,0,0,1,331.3,404.66Z" transform="translate(-134.16 -257.68)"/><path class="cls-13" d="M307.72,409.31a15.51,15.51,0,0,1,3.27.23,5.44,5.44,0,0,0-3,.67C307.87,409.91,307.79,409.62,307.72,409.31Z" transform="translate(-134.16 -257.68)"/><path class="cls-14" d="M304.29,409.75l2.24,0a1.63,1.63,0,0,1,.09,1.83c0-.37.05-.74.07-1.11a7.21,7.21,0,0,1-2.81.78A12.46,12.46,0,0,0,304.29,409.75Z" transform="translate(-134.16 -257.68)"/><path class="cls-15" d="M295.61,410.67c1.2-.19,2.39-.4,3.59-.54.5.21.62.94,1.13,1.21a3,3,0,0,0,2.48.38c-1.21.61-2.44,1.16-3.68,1.71a13.63,13.63,0,0,0,3.72.22,8.12,8.12,0,0,1-6.17-1.12A2.19,2.19,0,0,1,295.61,410.67Z" transform="translate(-134.16 -257.68)"/><path class="cls-16" d="M303.88,411.23a7.21,7.21,0,0,0,2.81-.78c0,.37,0,.74-.07,1.11a5.29,5.29,0,0,1-3.77,2.09,13.63,13.63,0,0,1-3.72-.22c1.24-.55,2.47-1.1,3.68-1.71A3.58,3.58,0,0,1,303.88,411.23Z" transform="translate(-134.16 -257.68)"/><path class="cls-17" d="M292.6,412.29a6.63,6.63,0,0,1,1.91-.93c.15.4.35.78.52,1.18a23.86,23.86,0,0,0-.14,2.93,83.59,83.59,0,0,0-16.64,11.09c-1.64,1.32-3.19,2.75-4.69,4.21a64.65,64.65,0,0,0-5.2,5.4c-1,1.33-2.16,2.53-3.1,3.9-1.07,1.54-2.13,3.08-3.11,4.66-1.82,2.82-3.26,5.85-4.81,8.82a6.1,6.1,0,0,0-.67,1.75,3.9,3.9,0,0,0-2.49,1c-.49.36-.84.94-1.45,1.12,0-2.55-.34-5.08-.4-7.62a55.58,55.58,0,0,1,4.88-7.3,105.21,105.21,0,0,1,9.07-10.27,132,132,0,0,1,16.85-14C286.21,416.12,289.34,414.08,292.6,412.29Z" transform="translate(-134.16 -257.68)"/><path class="cls-18" d="M295,412.54a7.8,7.8,0,0,0,1.66,1.31,8.07,8.07,0,0,0,3.1,1,11.75,11.75,0,0,0,4.46-.35,17.84,17.84,0,0,0,1.95-.87,6.28,6.28,0,0,1-4.56,6.24,5.3,5.3,0,0,1-5.37-1.44,5.46,5.46,0,0,1-1.38-3A23.86,23.86,0,0,1,295,412.54Z" transform="translate(-134.16 -257.68)"/><path class="cls-19" d="M312,431.91a2.7,2.7,0,0,1,1-.15c2.15,0,4.31,0,6.45,0a4.77,4.77,0,0,1,1.19.13c-1.15.13-2.31.05-3.46.07C315.46,432,313.73,432.05,312,431.91Z" transform="translate(-134.16 -257.68)"/><path class="cls-20" d="M308.94,432.21a33.73,33.73,0,0,1,3.89-.15c2.91,0,5.81,0,8.71,0a21,21,0,0,1,2.75.13,4,4,0,0,1-1.23.19c-3.22-.08-6.44,0-9.66-.07A22.92,22.92,0,0,1,308.94,432.21Z" transform="translate(-134.16 -257.68)"/><path class="cls-21" d="M289.86,435a2,2,0,0,1,.95-.25l.5.05a8.16,8.16,0,0,1-2.08.89c-1.36.49-2.61,1.24-4,1.76a24.52,24.52,0,0,1-3.3,1.19,4.32,4.32,0,0,1,.86-.61C285.12,436.85,287.53,436,289.86,435Z" transform="translate(-134.16 -257.68)"/><path class="cls-22" d="M310.57,434.69c3.2-.32,6.43-.15,9.65-.17,1.77-.06,3.52.26,5.3.22,4.86.4,9.75.68,14.58,1.41,1.6.16,3.17.57,4.77.65l.12.22a17.1,17.1,0,0,1,3.25.41,34.67,34.67,0,0,1,4,.77,45.81,45.81,0,0,1-4.83,1.52c-4.41.92-8.94.58-13.41.73-3.28-.16-6.56,0-9.85-.08-6-.26-12-.76-18-1.33l-9-1.09a20.82,20.82,0,0,1-3.6-.43,15.85,15.85,0,0,1,5-1.6A85.25,85.25,0,0,1,310.57,434.69Z" transform="translate(-134.16 -257.68)"/><path class="cls-23" d="M292.35,437.87a2.8,2.8,0,0,1,1.25-.35,20.82,20.82,0,0,0,3.6.43l9,1.09c6,.57,12,1.07,18,1.33,3.29,0,6.57-.08,9.85.08,4.47-.15,9,.19,13.41-.73a45.81,45.81,0,0,0,4.83-1.52,7.22,7.22,0,0,1,1.9.19c1,.23,2,.33,3,.5-.31.48-.89.61-1.36.87-1.2.67-2.54,1-3.78,1.64-3.76,1.07-7.61,2.12-11.56,2.06a61,61,0,0,1-6.63-.18c-4.45-.23-8.87-.73-13.31-1.06-3.51-.48-7-.68-10.55-1.14-6.43-.67-12.85-1.47-19.27-2.22l-.42-.13C291,438.44,291.68,438.19,292.35,437.87Z" transform="translate(-134.16 -257.68)"/><path class="cls-24" d="M251.13,454.36l.24.09c.28,1.63.12,3.31.35,5a6.58,6.58,0,0,0,.87.35,4.34,4.34,0,0,0,1-1.07,5.28,5.28,0,0,1,2.44-2c-1.17,1.12-1.37,2.77-1.91,4.22a30.12,30.12,0,0,0-.95,5.15c-.05.76-.16,1.51-.15,2.28,0,1,.44,1.87.52,2.83a19.83,19.83,0,0,0,.86,3.37A11.38,11.38,0,0,0,257,479a13.47,13.47,0,0,0,2.63,2.14,22.33,22.33,0,0,0,6.32,2.38c2.68.48,5.4.65,8.1,1,1.68.29,3.39.21,5.08.41s3.23.36,4.82.65a60.21,60.21,0,0,0,10.77,1.28,13,13,0,0,1,2.16.2,26.94,26.94,0,0,0,3.48.15c1.46,0,2.91.21,4.37.17,2.1,0,4.2.1,6.29-.13,1.88-.13,3.76,0,5.65-.07,1,0,2-.38,3-.37a27.4,27.4,0,0,0,2.86-.15,26.68,26.68,0,0,0,5.2-.71c1.25-.37,2.58-.23,3.85-.5a82.67,82.67,0,0,0,18.84-5.79c1.17-.5,2.19-1.26,3.37-1.74A10.1,10.1,0,0,0,356,476.5a17.8,17.8,0,0,0,7.25-8.17,9.78,9.78,0,0,1-.81,6.07,15.32,15.32,0,0,1-1.75,3,22.69,22.69,0,0,1-3.21,3.43,32.26,32.26,0,0,1-6.13,4.09,41.89,41.89,0,0,1-8,3.15c-1.42.45-2.92.57-4.36.94-4.77.79-9.59,1.19-14.41,1.5-2.77.25-5.55.2-8.32.39-4.86.1-9.73.07-14.59.06-4.4,0-8.79-.29-13.18-.51-2.73-.34-5.49-.41-8.22-.72-3.16-.31-6.29-.8-9.43-1.22-4.72-.93-9.52-1.7-14-3.53a20.5,20.5,0,0,1-6.44-4,13.77,13.77,0,0,1-3.25-4.52,17.74,17.74,0,0,1-.91-8.24,34.93,34.93,0,0,1,2.4-8.6A51.6,51.6,0,0,1,251.13,454.36Z" transform="translate(-134.16 -257.68)"/><path class="cls-25" d="M346.17,455.89a5.81,5.81,0,0,1,2,1.17,15.44,15.44,0,0,1,3.45,3.93,41.94,41.94,0,0,0,3,4c.49.65,1,1.25,1.55,1.86.18.18.35.43.63.45a3.09,3.09,0,0,0,.83-.51c-.51-2.05-1.41-4-2-6-.4-1.39-1-2.7-1.42-4.1a7,7,0,0,1,2.47,1.71,33.56,33.56,0,0,1,3.27,3.37,16.06,16.06,0,0,1,3.38,6.51A17.8,17.8,0,0,1,356,476.5a10.1,10.1,0,0,1-2.25,1.35c-1.18.48-2.2,1.24-3.37,1.74a82.67,82.67,0,0,1-18.84,5.79c-1.27.27-2.6.13-3.85.5a26.68,26.68,0,0,1-5.2.71,27.4,27.4,0,0,1-2.86.15c-1,0-2,.34-3,.37-1.89.05-3.77-.06-5.65.07-2.09.23-4.19.09-6.29.13-1.46,0-2.91-.16-4.37-.17a26.94,26.94,0,0,1-3.48-.15,13,13,0,0,0-2.16-.2,60.21,60.21,0,0,1-10.77-1.28c-1.59-.29-3.21-.41-4.82-.65s-3.4-.12-5.08-.41c-2.7-.33-5.42-.5-8.1-1a22.33,22.33,0,0,1-6.32-2.38A13.47,13.47,0,0,1,257,479a11.38,11.38,0,0,1-2.58-4.4,19.83,19.83,0,0,1-.86-3.37c-.08-1-.52-1.86-.52-2.83,0-.77.1-1.52.15-2.28a30.12,30.12,0,0,1,.95-5.15c.54-1.45.74-3.1,1.91-4.22a2.73,2.73,0,0,1,2.54,1.71,23.1,23.1,0,0,1,2,4.89,21.07,21.07,0,0,1,.71,4.2c.39,0,.77.05,1.16.06a17.21,17.21,0,0,1,2.24-4.05,1.17,1.17,0,0,1,1.16-.41,2.16,2.16,0,0,1,.74,1,26.35,26.35,0,0,1,2.09,8.54l1,.05c.25-1.24.11-2.51.35-3.75.17-1,.2-2.32,1.26-2.79.43-.25.82.19,1.13.45a25.65,25.65,0,0,1,5.24,6.83l1.08-.19a12.33,12.33,0,0,1,1.29-5,4.68,4.68,0,0,1,3.34-2.49,3.73,3.73,0,0,1,2.75,1.11,12.6,12.6,0,0,1,2.68,4.16c.11.18.18.43.4.52a14.37,14.37,0,0,1,2.47-2.46,40.85,40.85,0,0,0,5.7-3.74c.81-.69,1.27-1.68,2.09-2.35a6.67,6.67,0,0,1-.3,2.21A52.2,52.2,0,0,0,298,471a13.6,13.6,0,0,0,.38,4.07,2.72,2.72,0,0,0,.45.94,18.05,18.05,0,0,0,2.6-3.42c1.93-2.94,3.42-6.14,5.21-9.17a2.49,2.49,0,0,1,.75-.8,8.91,8.91,0,0,1,0,1.55c-.35,3.89-.72,7.78-1.05,11.67,0,1-.12,1.94-.22,2.91a3.09,3.09,0,0,0,.95-.5,34.31,34.31,0,0,0,10.18-11.61,39.74,39.74,0,0,0,1.69-3.91,6.64,6.64,0,0,1,1.08,2.84,17,17,0,0,1,.3,5.33,32.39,32.39,0,0,1-1,4.44,8.87,8.87,0,0,0-.34,1.44,2.81,2.81,0,0,0,.91.47,10.81,10.81,0,0,0,2.34-1.47c2.6-2,4-5.09,4.65-8.2.16-.77.29-1.54.48-2.31a3.61,3.61,0,0,1,.59,1.66q.36,2,.78,4c.44.15,1,.4,1.37-.1a6.41,6.41,0,0,1,3.09-2.18,3.39,3.39,0,0,1,3,.81c.77.56,1.18,1.47,1.9,2.07a2.85,2.85,0,0,0,1.06-.33c-.66-2.56-1.45-5.07-2.18-7.61a37.48,37.48,0,0,1-1.39-4.72,3.07,3.07,0,0,1,1.12.81,26.16,26.16,0,0,1,3.27,3.92,16.51,16.51,0,0,1,1.88,4.2,35.76,35.76,0,0,1,1.4,7.31,9,9,0,0,0,1.16.07c.7-1.73,1.18-3.53,1.75-5.3a29.22,29.22,0,0,0,1.37-8.13c.08-2-1-3.76-1.49-5.64Z" transform="translate(-134.16 -257.68)"/><path class="cls-26" d="M390.42,469.94a36.37,36.37,0,0,1,4.43,0A13.72,13.72,0,0,1,390.42,469.94Z" transform="translate(-134.16 -257.68)"/></svg>