<svg id="Warstwa_1" data-name="Warstwa 1" xmlns="http://www.w3.org/2000/svg" viewBox="0 0 692.83 166.47"><defs><style>.cls-1,.cls-3{fill:#fff;}.cls-1,.cls-2,.cls-3,.cls-5,.cls-6{fill-rule:evenodd;}.cls-3{opacity:0.37;}.cls-4{fill:none;stroke:#000;stroke-width:0.57px;}.cls-4,.cls-5,.cls-6{stroke-miterlimit:22.93;}.cls-5,.cls-6{fill:#f60;stroke:#f60;}.cls-5{stroke-width:2.13px;}.cls-6{stroke-width:1.42px;}</style></defs><path class="cls-1" d="M635.53,226c.15,1.51,1.46,7.08,1.77,9.48s.82,6.51,1.19,9.11.93,4.56,1.31,7-.72,3.76-.34,5.38l-13.93-3.24-4.68-4.83-1.7-5.41L616.68,251l-2.9-.9c.62.56-.14-2.67-.47-6.62-.25-3-.29-6.3-.91-10.12s-.58-9.39-1.31-13.81c0-.21-1.25-10.17-2.47-18.27-2.45,1.25.89-.39-2.94,1.22-2.7-.82-4.19-5-4.44-6.73-.28,0,4.2-.56,3.8-.44a2.14,2.14,0,0,0,1.38-.33c.75-.65,1.11-1.86.82-1.76-.54.19-3.4,1.12-4,1.27l-3.78-2.9-3.27-6.9c5.76-5.12,18.51-11.7,24.6-13.76a74,74,0,0,1,18.77-3.72,29.58,29.58,0,0,1,9.26.77,26.94,26.94,0,0,1,8.47,3.66,23.29,23.29,0,0,1,6.51,6.39,20,20,0,0,1,3.27,9,21.37,21.37,0,0,1-.5,7.86,29.19,29.19,0,0,1-3,7.39,42.85,42.85,0,0,1-4.7,6.68,63.48,63.48,0,0,1-5.55,5.76c-10.5,7.91-11.45,8.73-17.81,11.29Zm9.91-30.92c-.21-5.75-5.35-4.92-5.59-4.9-2.55.18-4.54,1.3-6.68,1.92a72.55,72.55,0,0,0-8,3.38c.1,3.69.66,4.8,1.36,9.24s.34,2.1.87,6.28a22.05,22.05,0,0,0,5.71-3.09c2.46-1.8,3.52-2.34,4.81-3.48C642.09,200.76,645.6,199.58,645.44,195.07Z" transform="translate(-66.05 -146.55)"/><path class="cls-2" d="M209.89,178.51c-.19,8.06-.79,24.7-.79,32.41s0,15.35.09,22.9.09,15.1.09,22.61-.06,15.15-.18,22.9l-4.65.58-3.19,5q-1.56-2-3.51-4.65t-4-5.58c-1.34-1.93-2.61-3.81-3.83-5.64s-2.25-3.39-3.1-4.7q-4.74-7.44-9.25-14.42t-9.07-14.41q-.18,5.46-.18,10.93t.09,11.15q.09,5.7.18,11.69t.09,12.49l-5.29-1.86-4.37,2.1-7.7-12.48c-.51-5.53-.16-2.71-1-8.55-1.41-10.33-1.31-11.43-1.77-17.55s-2.12-16.49-2.75-22.23-2.09-11.78-2.39-16.35l1.73-2.67-2.46-6.86,16.84-6.89C162,192.3,165,196,167,199.34s2.76,4.24,4.84,7.57c4,6.33,9,12.75,9.21,13.07,4.92,7.31,1.48,2.2,6.21,9.18-.12-9.61-.4,2.11-.61-6.88s-3.41-25.22-3.77-35l6.3,3.75,1.68-5.31Z" transform="translate(-66.05 -146.55)"/><path class="cls-1" d="M162,291.37l-10.77-1-10.64,5.83c-.73-1.53-1.67-3.57-2.84-6.1s-2.39-5.11-3.66-7.73-2.48-5.14-3.64-7.58-2.09-4.38-2.81-5.82q-2.64.56-7.64,1.8c-3.33.82,1.9-.46-1.6.47s-6.81,1.83-9.89,2.68-5.23,1.47-6.42,1.88c-.15,1.25-.43,2.91-.83,5s-.8,4.36-1.2,6.82-.82,4.92-1.22,7.38-.79,4.66-1.16,6.59l-8-4.7L78.42,300c.58-5.27,1.25-10.21,2-14.79s1.38-9.46,1.88-14.63q-1.14-1.46-2.31-3l-2.49-3.44c.82-1.23,1.72-2.53,2.72-3.91a24.44,24.44,0,0,1,3.43-3.85q.66-6,1.7-13.69c.7-5.1.57-4.36,1.29-9.27s.63-4.52,1.27-8.76,1.06-6.82,1.38-9.13L83.7,218l.27-3.52a3.56,3.56,0,0,1-2.09.37l-7.58-13a5.33,5.33,0,0,0,4.81-1.34c-9.45-4.16-10-6.87-11.45-9.72l10.77-3.54c4.47-1.25,8.13-2.65,11.52-3.72,7.8-2.44,16.33-4.46,24.3-7,6.1-2,12.75-4.88,16.23-5.15l-.56,5.26,4.09-.94-1.13,7.22.9,8.61c.44,4.18,4.69,26,8.89,45.94,3.59,17,12.21,36.07,19.29,53.92Zm-38.33-43.18c-1.4-3.46-2.36-7.78-3.71-11.19s-2.08-7.2-3.57-10.65c-2.51-5.8-2.75-10.9-5.71-16.47q-1,4.08-1.76,8.93T107.52,229q-.64,6-1.16,12c-.34,4-.67,7.54-1,10.71a109.89,109.89,0,0,1,10.93-2.29C120,248.83,120,248.85,123.63,248.19Z" transform="translate(-66.05 -146.55)"/><path class="cls-1" d="M267.88,227.78l-.69,8.48c-.6.13-1.2.25-1.8.35a12.74,12.74,0,0,0-1.59.35c0,1.53,0,2.95-.1,4.28s-.05,10.67,0,11.94c.15,4.18.18,8.42.15,12.71s-.05,8.95-.05,14l-4.69.8-5.68,4.19q-1.2-4.29-1.8-7.18a35.56,35.56,0,0,1-5.63,1.55q-2.53.44-6.53.74-10.17.81-17.7-3.44A29.29,29.29,0,0,1,210,263.84a31.36,31.36,0,0,1-1.94-5,59.12,59.12,0,0,1-1.45-5.83,55.26,55.26,0,0,1-.85-6.14,47.93,47.93,0,0,1-.05-6c.37-7.44,1.22-20.5,3.77-26.91,4.19-10.57,13-18.77,17.52-21.68,2.31-1.5,5.73-3.83,8.11-4.75,3.31-1.28,12.58-5.33,14.84-4.53l1.57,5.5-5,2.78,7.31-1.4.66,13.5.37,3.21-3.61,2.67c-4.06,2.28-8.41,3.9-13.11,7.07-4.52,3-7.52,8.36-9.63,11s-3.76,5.08-4.15,9c-1,10.48-1.63,11.75,4.05,19,1.15,1.48,6.12,2.58,9.76,2.07A45.82,45.82,0,0,0,249.49,255c.33-2.31-.07-9.86-.2-12.18.05-1.47-.27-1.59-1.16-1.46s-6.09,3-6.88,3.16,1.19-3.5.56-3.4-4.33,4.66-4.6,4.73l-2.62-5.67L233.25,236l-1.65-3.17-1.31-3.69c2.26-.8,7.63-3,10.29-3.67s3.95-1.94,6.69-2.59,6-2,8.78-2.36c3.29-.45,6.84-1.39,9.43-1.19Z" transform="translate(-66.05 -146.55)"/><path class="cls-2" d="M160.36,291.12l-10.77-1L139,296q-1.09-2.31-2.85-6.1c-1.16-2.54-2.38-5.11-3.65-7.73s-2.48-5.14-3.64-7.58-2.1-4.38-2.82-5.83q-2.64.57-7.63,1.8c-3.33.82,1.9-.46-1.61.48l-9.89,2.67q-4.64,1.27-6.42,1.89c-.15,1.24-.42,2.91-.82,5s-.8,4.35-1.21,6.81-.81,4.92-1.22,7.38-.79,4.66-1.15,6.6l-8-4.71-11.19,3.17c.59-5.28,1.25-10.21,2-14.79s1.38-9.47,1.88-14.64q-1.15-1.44-2.31-3c-.78-1.06-1.61-2.2-2.5-3.44q1.23-1.83,2.72-3.91a24.89,24.89,0,0,1,3.44-3.84q.65-6,1.69-13.7c.7-5.1.58-4.35,1.3-9.26s.62-4.53,1.27-8.77,1-6.81,1.38-9.12l-5.59,2.46.27-3.53a3.43,3.43,0,0,1-2.1.37l-7.57-13a5.34,5.34,0,0,0,4.81-1.35c-9.45-4.15-10-6.86-11.46-9.72L76.83,187c4.46-1.25,8.12-2.65,11.52-3.72,7.79-2.45,16.32-4.46,24.29-7,6.11-1.95,12.75-4.87,16.23-5.14l-.55,5.25,4.08-.94-1.12,7.22.9,8.61c.43,4.18,4.68,26,8.89,46,3.58,17,12.2,36.07,19.29,53.91ZM122,247.94c-1.41-3.45-2.36-7.77-3.72-11.19s-2.07-7.19-3.57-10.64c-2.51-5.81-2.75-10.91-5.7-16.48q-1,4.1-1.77,8.94t-1.35,10.17q-.65,6-1.16,12t-1,10.7a109.26,109.26,0,0,1,10.93-2.28C118.36,248.58,118.4,248.61,122,247.94Z" transform="translate(-66.05 -146.55)"/><path class="cls-2" d="M268.5,226.05l-.7,8.47c-.6.14-1.2.25-1.79.35a15.63,15.63,0,0,0-1.6.35c0,1.53,0,3-.1,4.29s0,10.67,0,11.93c.16,4.19.18,8.43.15,12.71s0,9,0,14l-4.68.8L254,283.14c-.79-2.85-1.39-5.25-1.79-7.17a35.74,35.74,0,0,1-5.63,1.54q-2.55.45-6.53.75-10.17.8-17.7-3.44a29.23,29.23,0,0,1-11.81-12.71,31.48,31.48,0,0,1-2-5,58.43,58.43,0,0,1-1.44-5.83,52.83,52.83,0,0,1-.85-6.13,44.37,44.37,0,0,1-.05-6c.37-7.44,1.22-20.5,3.76-26.91,4.2-10.58,13-18.78,17.52-21.68,2.32-1.5,5.73-3.84,8.11-4.76,3.32-1.28,12.59-5.33,14.85-4.53l1.56,5.5-5,2.79,7.31-1.4.66,13.49.36,3.21-3.61,2.68c-4.06,2.28-8.4,3.9-13.1,7.06-4.52,3-7.53,8.36-9.64,11s-3.76,5.09-4.15,9c-1,10.48-1.63,11.76,4.05,19.05,1.16,1.48,6.12,2.57,9.76,2.07a46.41,46.41,0,0,0,11.38-2.54c.33-2.31-.07-9.86-.2-12.19.05-1.46-.27-1.59-1.17-1.45s-6.08,3-6.88,3.16,1.2-3.5.57-3.4-4.34,4.66-4.6,4.72l-2.63-5.67-1.34-4.1-1.65-3.18-1.3-3.68c2.26-.8,7.62-3,10.28-3.68s3.95-1.93,6.7-2.59,6-2,8.78-2.36c3.29-.44,6.84-1.38,9.43-1.18Z" transform="translate(-66.05 -146.55)"/><path class="cls-2" d="M386.48,191.45q-3.35,6-6.81,13.2T373,219.07q-3.18,7.22-5.94,13.67t-4.5,11q-.69,1.73-2.31,6.29c-1.07,3-2.28,6.48-3.63,10.32s-2.71,7.83-4.09,11.94S350,280.11,349,283.5l-5.54-2.77-2.81-1.83-10.58.54c.4-2.39,7.81-21.06,9.27-25.58.81-2.5,1.1-4.7,1.64-6.47-1.08-1.62-1-1.52-2.13-3.4-6-9.77-23.63-26.07-28.63-32.38l7.64-.58.66-4.73L326,206l3.74-14.55c.46,1.31,2.84,8.06,4.25,10.15,6.39,9.5,6.21,11.22,12.18,19,2.28-13.75,2.18-13,2.28-13.75.48-3.88,1.48-17.24,3-20.55.7-1.55,3.71,0,7.15,1,2.16.65,1.25-4.47,2.24-6.52l14.05,7,2.65,3.35Z" transform="translate(-66.05 -146.55)"/><path class="cls-1" d="M334.42,253.16,332.57,260l-3.91.45-.93,11.81c-16.58-9.72-28.62-20.17-41.17-29.75q.21,2.26.68,5.86t1,7.49q.56,3.9,1.13,7.53t1.13,6.06l-8.21-1.75-11.74-3.65c.61.55-.14-2.67-.48-6.62-.24-3-.29-6.31-.9-10.12s-.59-9.39-1.32-13.82c0-.2-2.07-10.67-3.29-18.77-2.45,1.26,1.15-.39-2.68,1.22-2.7-.81-4.19-4.06-4.44-5.81-.27,0,5.71-.66,5.31-.53s1.42-3.43,1-3.27-4.14,1.41-4.74,1.57l-2.75-2.34L253,198.66c5.76-5.11,18.52-11.7,24.6-13.75a73.72,73.72,0,0,1,18.77-3.73,29.85,29.85,0,0,1,9.26.77,27,27,0,0,1,8.48,3.66,23.39,23.39,0,0,1,6.5,6.39,19.94,19.94,0,0,1,3.28,9,21.88,21.88,0,0,1-.5,7.87,29.52,29.52,0,0,1-3,7.38,43.47,43.47,0,0,1-4.69,6.68,61,61,0,0,1-5.56,5.76q6.17,5.82,11.9,11.59t12.41,12.88Zm-32.21-44.1c-.21-5.74-5.35-4.91-5.58-4.9-2.55.18-4.54,1.3-6.69,1.92a70.71,70.71,0,0,0-8,3.39c.11,3.68.66,4.8,1.36,9.23s.35,2.1.87,6.28a21.76,21.76,0,0,0,5.71-3.09c2.47-1.8,3.52-2.34,4.82-3.48C298.86,214.75,302.38,213.57,302.21,209.06Z" transform="translate(-66.05 -146.55)"/><path class="cls-2" d="M588.67,241.58l-1.85,6.85-3.91.45L582,260.69c-16.58-9.72-28.62-20.17-41.17-29.75q.21,2.26.68,5.86t1,7.49q.56,3.9,1.13,7.53t1.13,6.06l-8.2-1.75-11.75-3.65c.61.55-.14-2.67-.47-6.62-.25-3-.3-6.31-.91-10.12s-.58-9.39-1.32-13.82c0-.2-2.07-10.67-3.29-18.77-2.45,1.26,1.15-.39-2.68,1.22-2.7-.81-4.19-4.06-4.44-5.81-.27,0,5.71-.66,5.31-.53s1.42-3.43,1-3.27-4.14,1.41-4.74,1.57L510.48,194l-3.28-6.91c5.76-5.11,18.52-11.7,24.6-13.75a73.72,73.72,0,0,1,18.77-3.73,29.94,29.94,0,0,1,9.27.77,27,27,0,0,1,8.47,3.66,23.56,23.56,0,0,1,6.51,6.39,20,20,0,0,1,3.27,9,21.88,21.88,0,0,1-.5,7.87,29.52,29.52,0,0,1-3,7.38,42.79,42.79,0,0,1-4.69,6.68,61,61,0,0,1-5.56,5.76q6.17,5.82,11.9,11.59t12.41,12.88Zm-32.21-44.1c-.21-5.74-5.35-4.91-5.58-4.9-2.55.18-4.54,1.3-6.68,1.92a70.1,70.1,0,0,0-8,3.39c.11,3.68.66,4.8,1.36,9.23s.35,2.1.87,6.28a21.76,21.76,0,0,0,5.71-3.09c2.47-1.8,3.52-2.34,4.82-3.48C553.11,203.17,556.63,202,556.46,197.48Z" transform="translate(-66.05 -146.55)"/><path class="cls-2" d="M334.71,250l-1.85,6.85-3.91.45L328,269.06c-16.58-9.72-28.62-20.17-41.17-29.76.14,1.52.37,3.47.68,5.87s.64,4.89,1,7.49.75,5.11,1.13,7.53.76,4.44,1.13,6.06l-8.2-1.76-11.75-3.64c.61.55-.14-2.67-.47-6.63-.25-2.95-.3-6.3-.91-10.12s-.58-9.38-1.32-13.81c0-.21-2.07-10.67-3.29-18.77-2.45,1.25,1.15-.39-2.68,1.22-2.7-.82-4.19-4.06-4.44-5.81-.27,0,5.71-.66,5.31-.53s1.42-3.44,1-3.27-4.14,1.41-4.74,1.57l-2.75-2.35-3.28-6.9c5.77-5.11,18.52-11.7,24.6-13.76A74.13,74.13,0,0,1,296.61,178a29.62,29.62,0,0,1,9.27.77,27,27,0,0,1,8.47,3.66,23.56,23.56,0,0,1,6.51,6.39,20,20,0,0,1,3.27,9,21.88,21.88,0,0,1-.5,7.87,29.68,29.68,0,0,1-3,7.38,42.79,42.79,0,0,1-4.69,6.68,62.28,62.28,0,0,1-5.56,5.76q6.17,5.82,11.91,11.59T334.71,250Zm-32.21-44.1c-.21-5.75-5.35-4.91-5.58-4.9-2.55.18-4.54,1.3-6.68,1.92a70.87,70.87,0,0,0-8,3.39c.11,3.68.66,4.79,1.36,9.23s.35,2.1.88,6.28a22.15,22.15,0,0,0,5.7-3.09c2.47-1.8,3.52-2.34,4.82-3.48C299.15,211.54,302.67,210.36,302.5,205.85Z" transform="translate(-66.05 -146.55)"/><path class="cls-1" d="M513.6,190.15c-10.78,6.3-19.31,6-26.37,16.73-2.56,3.89-7,16.81-5.17,21.94,3.43,9.43,7.42,12.22,16.4,10.75,9.8-1.6,17.75-2.89,28.94-9l-2.29,13.26-.77,4.44-11.15,2.18,10,2.36,2.05,7.75A95.35,95.35,0,0,1,514,264.11a40.09,40.09,0,0,1-12.62.8c-4.49-.48-7-1.34-10.71-2.13a29.07,29.07,0,0,1-10.32-4.37,50,50,0,0,1-10.53-9.64,39.42,39.42,0,0,1-7.37-13.32c-.86-2.67-1.51-5.36-2.11-8-3.14-14,4.38-30.81,12.61-42a48.29,48.29,0,0,1,9.53-9.73,53.15,53.15,0,0,1,11.92-6.89,51.81,51.81,0,0,1,13.44-3.61l2,5.61-5,2.79,7.26-2.7Z" transform="translate(-66.05 -146.55)"/><path class="cls-2" d="M512.58,189.68c-10.77,6.31-18.84,7.24-25.91,18-2.55,3.88-7,16.81-5.16,21.94,3.42,9.43,7.42,12.21,16.4,10.75,9.79-1.6,17.75-2.9,28.94-9l-2.29,13.26-.77,4.43-11.15,2.19,10,2.36,2,7.75a94.76,94.76,0,0,1-11.28,3.57,40,40,0,0,1-12.62.8c-4.48-.48-7-1.35-10.71-2.13a29.21,29.21,0,0,1-10.31-4.37,50.38,50.38,0,0,1-10.54-9.65,39.49,39.49,0,0,1-7.37-13.32c-.85-2.66-1.5-5.35-2.1-8-3.15-13.95,4.38-30.81,12.61-42a48,48,0,0,1,9.53-9.72,53.19,53.19,0,0,1,11.92-6.9A52,52,0,0,1,507.23,166l2,5.62-5,2.79,7.31-1.4Z" transform="translate(-66.05 -146.55)"/><path class="cls-2" d="M758.57,224.73c.25,4.68-1.85,14.51-4.19,18.58a89.31,89.31,0,0,1-13.29,16.08c-3.76,3.22-10.36,8.37-14.93,10.71s-7.3,4.08-12,6.12l-3.47-10.14-4.84-.8-6.56-14.07c2.69-.69,11.83-3.33,14.25-4.12,6.33-2.05,17.91-9.1,14.73-17.63-3.59-9.63-10.15-10.86-14.48-13.85-1.93-1.34-4.54-3-6.42-4.3a20.2,20.2,0,0,1-5-4.78,17.34,17.34,0,0,1-2.94-7.26,20.35,20.35,0,0,1,1.61-13,39.71,39.71,0,0,1,8.76-11.11,36.21,36.21,0,0,1,7.77-5.12,94.17,94.17,0,0,1,9.79-4.27,89.49,89.49,0,0,1,10.25-3.11c3.42-.8,6.51-1.4,9.27-1.78l2.93,10.19-4.33,2.63-.23,2.16c3.86-2.27,3-1.59,6.3-3.69,1.7,2.75,6.45,10.55,6.75,14.21l.53,6.67c-.92,1.87-32.19,5.81-18.68,10.44a36.13,36.13,0,0,1,9,4.5,23.55,23.55,0,0,1,6.51,6.73A20.24,20.24,0,0,1,758.57,224.73Z" transform="translate(-66.05 -146.55)"/><path class="cls-2" d="M636.77,225.9c.15,1.51,1.46,7.08,1.77,9.48s.83,6.51,1.2,9.11.92,4.57,1.3,7-.71,3.76-.34,5.38l-13.93-3.23-4.68-4.83-1.7-5.42-2.47,7.5L615,250c.61.55-.14-2.67-.48-6.62-.24-3-.29-6.31-.9-10.12s-.59-9.39-1.32-13.82c0-.2-2.07-10.67-3.29-18.76-2.45,1.25,1.15-.4-2.68,1.21-2.7-.81-4.19-4.06-4.44-5.81-.27,0,5.71-.66,5.31-.53s1.42-3.43,1-3.27-4.14,1.41-4.75,1.57l-2.74-2.34-3.28-6.91c5.76-5.11,18.52-11.7,24.6-13.75a73.72,73.72,0,0,1,18.77-3.73,29.85,29.85,0,0,1,9.26.77,27.09,27.09,0,0,1,8.48,3.66,23.39,23.39,0,0,1,6.5,6.39,19.94,19.94,0,0,1,3.28,9,21.88,21.88,0,0,1-.5,7.87,29.37,29.37,0,0,1-3,7.38,43.47,43.47,0,0,1-4.69,6.68,62.42,62.42,0,0,1-5.56,5.77c-10.49,7.91-11.44,8.73-17.81,11.28ZM646.68,195c-.21-5.74-5.35-4.91-5.58-4.89-2.55.17-4.54,1.29-6.69,1.91a70.71,70.71,0,0,0-8,3.39c.11,3.68.66,4.8,1.36,9.23s.35,2.1.87,6.28a21.47,21.47,0,0,0,5.71-3.09c2.47-1.8,3.52-2.33,4.82-3.48C643.33,200.68,646.85,199.49,646.68,195Z" transform="translate(-66.05 -146.55)"/><path class="cls-2" d="M608.54,170.68c-1.49,26.56-4.69,51.28-6.84,88.89l-9.63-2.73-2-3-5.81,2.22c-.36-13.49-.75-29.7-.93-43.2s-.52-27.56-1-42.21l8.49,2,3.78,1.28,5.76-4Z" transform="translate(-66.05 -146.55)"/><path class="cls-2" d="M636.77,225.9c.15,1.51,1.46,7.08,1.77,9.48s.83,6.51,1.2,9.11.92,4.57,1.3,7-.71,3.76-.34,5.38l-13.93-3.23-4.68-4.83-1.7-5.42-2.47,7.5L615,250c.61.55-.14-2.67-.48-6.62-.24-3-.29-6.31-.9-10.12s-.59-9.39-1.32-13.82c0-.2-2.07-10.67-3.29-18.76-2.45,1.25,1.15-.4-2.68,1.21-2.7-.81-4.19-4.06-4.44-5.81-.27,0,5.71-.66,5.31-.53s1.42-3.43,1-3.27-4.14,1.41-4.75,1.57l-2.74-2.34-3.28-6.91c5.76-5.11,18.52-11.7,24.6-13.75a73.72,73.72,0,0,1,18.77-3.73,29.85,29.85,0,0,1,9.26.77,27.09,27.09,0,0,1,8.48,3.66,23.39,23.39,0,0,1,6.5,6.39,19.94,19.94,0,0,1,3.28,9,21.88,21.88,0,0,1-.5,7.87,29.37,29.37,0,0,1-3,7.38,43.47,43.47,0,0,1-4.69,6.68,62.42,62.42,0,0,1-5.56,5.77c-10.49,7.91-11.44,8.73-17.81,11.28ZM646.68,195c-.21-5.74-5.35-4.91-5.58-4.89-2.55.17-4.54,1.29-6.69,1.91a70.71,70.71,0,0,0-8,3.39c.11,3.68.66,4.8,1.36,9.23s.35,2.1.87,6.28a21.47,21.47,0,0,0,5.71-3.09c2.47-1.8,3.52-2.33,4.82-3.48C643.33,200.68,646.85,199.49,646.68,195Z" transform="translate(-66.05 -146.55)"/><path class="cls-1" d="M716.34,177.78l-3.82,10.45c-1.11,0-3.85.63-5.94.91-1.85.24-4.9,1.43-7,1.62-1.58,5.79-7.16,37.88-7.63,44.38s-1.6,16.42-1.57,22.63l-10-1.31-9.09,3.46q-.54-8.34-.77-17.67t-.2-18.75q0-9.44.08-18.48c0-6,1.87-8.31,2-13.57-4,1.53-5.52.2-9.33,1.37-4.31,1.32-4.47,2.63-8.79,3.94l1.36-10.5-3-6.74-3.36-6.4q8.1-1.4,15.95-2.41c5.23-.67,10.4-2.4,15.73-2.9,6.83-.64,12.94-1.33,18.38-2.37,6.75-1.29,13.91-3.27,20-3.09L712,177.89Z" transform="translate(-66.05 -146.55)"/><path class="cls-3" d="M715.14,178.55l-3.39,9.23a31.23,31.23,0,0,0-5.57.92,59,59,0,0,1-7,1.61c-1.58,5.8-7.16,37.88-7.63,44.39S690,251.12,690,257.33L680,256l-9.09,3.46q-.54-8.34-.77-17.67t-.2-18.75q0-9.44.08-18.48c0-6,.14-4.14.25-9.4-4,1.53-5.5,1.45-9.31,2.62-4.31,1.32-9.34,2.54-13.65,3.85l1.75-15-3.69-7.81,3.5-7c5.4-.93,10.63-1.55,15.87-2.23s10.45-1.73,15.78-2.23c6.83-.64,12.94-1.33,18.38-2.37,6.75-1.29,13.54-3.41,19.63-3.23l-7.81,16.9Z" transform="translate(-66.05 -146.55)"/><path class="cls-2" d="M715.67,178.23l-3.39,9.23a32.14,32.14,0,0,0-5.57.91,59.08,59.08,0,0,1-7,1.62c-1.58,5.8-7.16,37.88-7.63,44.39s-1.6,16.41-1.57,22.63l-10-1.31-9.09,3.46q-.54-8.34-.76-17.67t-.21-18.76q0-9.42.08-18.47c0-6,.16-4.58.26-9.84-4,1.53-6,1.68-9.86,2.85-4.31,1.33-8.39,2.11-12.7,3.41l1.53-14.17L646,179l3.34-6.63q8.1-1.4,15.95-2.41c5.23-.68,10.4-2.4,15.73-2.9,6.84-.64,12.94-1.33,18.38-2.37,6.75-1.29,13.54-3.41,19.63-3.23l-7.81,16.9Z" transform="translate(-66.05 -146.55)"/><path class="cls-2" d="M464.44,242.11a31.94,31.94,0,0,1-4.3,17.84,56.85,56.85,0,0,1-12.44,14.86,86.9,86.9,0,0,1-17,11.34,93.15,93.15,0,0,1-17.92,7.12l-2.19-6.57-6.57-1.09-5.67-13.13c3.65-.94,9.1-1.61,12.4-2.67,8.59-2.79,21.34-13.46,15.88-22-7.54-11.76-17.17-14-23-18.1-2.63-1.82-6.16-4.13-8.72-5.85a27.58,27.58,0,0,1-6.73-6.49,23.53,23.53,0,0,1-4-9.86q-1.71-9.85,2.19-17.6a54.16,54.16,0,0,1,11.89-15.1,49.82,49.82,0,0,1,10.56-7,127.9,127.9,0,0,1,13.3-5.79,116.67,116.67,0,0,1,13.93-4.22c4.64-1.1,8.83-1.9,12.59-2.43l4,13.85-5.88,3.57-.32,2.94c5.25-3.09,4.06-2.17,8.56-5,6.16,12.3,10.43,19.2,13.7,27.05-1.25,2.55-47.52,9.21-29.18,15.5a49.39,49.39,0,0,1,12.2,6.1,32.07,32.07,0,0,1,8.84,9.15,27.81,27.81,0,0,1,3.91,13.53Zm-25.26-63.77,3.28-3.46c-6.08,2.22-15.38,6.38-20.43,10.29C423.55,185.17,436.53,179.56,439.18,178.34Z" transform="translate(-66.05 -146.55)"/><line class="cls-4" x1="684.76" y1="143.9" x2="683.43" y2="152.13"/><path class="cls-5" d="M552.49,268.92l-2.2,2.36c-.57,0-1.34,0-2.3.1s-2,.15-3.06.25,0-.07-1.07,0-1.93.2-2.66.31c-.25,2.5-.41,5.13-.49,7.87s-.11,5.55-.06,8.41.46,11,.52,14,.14,5.84.22,8.69l-5.86-1-4.66,1.65c-.24-2.54-.44-5.23-.58-8.08s-.62-11-.68-13.84-.11-5.69-.15-8.45-.07-5.35-.07-7.76l-2.6.3-2.6.33c-.9.12-6,.9-7,1.06s-2.11.45-3.59.73l1.08-4.52-2.27-.86,1.66-3.06c2.78-.47,9.65-1.53,12.34-1.88s5.43-.63,8.18-.83,5.57-.33,8.43-.4,5.86-.08,9-.05l-.85,2.86Z" transform="translate(-66.05 -146.55)"/><path class="cls-5" d="M588.19,304.7a111.86,111.86,0,0,1-12.07,2.08q-5.89.69-12.32.93l-.8-2.61c-.2-.06-.49-.14-.85-.22a6.11,6.11,0,0,0-1.78,0q-.61-8.33-.71-15.88t-.09-15.14a1.31,1.31,0,0,1-.4.08l-1.5.18.8-4.32-1.23-3.56a104,104,0,0,1,13.82-1.71,111,111,0,0,1,13.27.1l2.88,2.26L585.49,269l.86,2.41c-.94.06-2.18.13-3.71.2s-3.12.15-4.78.25l-4.78.3c-1.53.1-2.79.22-3.77.35-.08,1.57-.15,3.17-.21,4.79S569,280.48,569,282c2.57-.37,5.23-.66,8-.86a72.49,72.49,0,0,1,9-.05l-1.29,3.77.68,3.51q-4.6.41-8.89.88c-2.86.32-5.37.64-7.54,1q-.06,1.1-.12,2.31c0,.8-.06,1.62-.06,2.45a22.82,22.82,0,0,0,0,2.34,14.11,14.11,0,0,0,.25,2.08c2.86-.13,5.81-.33,8.85-.58l9.83-.82-.79,4Z" transform="translate(-66.05 -146.55)"/><path class="cls-5" d="M636.68,305.5l-4.59-.75-3.92,1.81c-.25-.57-.57-1.32-.95-2.26s-.8-1.89-1.23-2.86-.84-1.91-1.22-2.81-.71-1.62-.95-2.16c-.78.07-1.9.18-3.37.35s-3,.35-4.54.55l-4.38.58c-1.37.18-2.32.33-2.85.43-.12.43-.32,1-.58,1.73s-.54,1.5-.83,2.36-.57,1.7-.86,2.56-.55,1.61-.79,2.28l-3.25-2-5,.71q.74-2.76,1.53-5.15t1.47-5.09c-.29-.37-.57-.76-.86-1.16l-.92-1.3c.41-.4.86-.83,1.35-1.28a10.41,10.41,0,0,1,1.65-1.23q.55-2.12,1.35-4.77c.53-1.77,1.07-3.51,1.6-5.22s1-3.29,1.5-4.77.82-2.61,1.07-3.41l-2.94-.25,1-3.46-1.1-2.61a12.61,12.61,0,0,1,3.49-1c1.51-.25,3.17-.45,5-.58s3.63-.22,5.49-.25,3.54,0,5,0l-1,3.06,1,1.86q3.31,8.58,6.77,17.39t6.83,18.64Zm-15.87-16.16c-.45-1.27-.88-2.53-1.31-3.79s-.89-2.51-1.38-3.79c-.82-2.14-1.74-4.24-2.76-6.32a33,33,0,0,0-1.16,3.09q-.56,1.68-1.05,3.54c-.36,1.4-.71,2.8-1,4.19s-.63,2.63-.92,3.74c1.6-.21,3.2-.34,4.81-.41S619.22,289.44,620.81,289.34Z" transform="translate(-66.05 -146.55)"/><path class="cls-5" d="M693.33,304.75l-3.86-.4-5,2.06c-.08-.91-.18-2-.3-3.24s-.27-2.59-.43-4-.34-2.91-.52-4.45-.38-3-.58-4.49-.42-2.84-.65-4.16-.44-2.51-.64-3.54c-.33.57-.62,1.14-.89,1.73s-.56,1.18-.89,1.78c-.53,1.17-1,2.33-1.53,3.46l-1.29,3c-.32.7-.68,1.52-1.07,2.45l-1.22,3c-.43,1-.89,2.1-1.38,3.18s-1,2.14-1.53,3.14l-2.58-.8L666,304.5c-1.1-2.14-2.17-4.27-3.21-6.37s-2.1-4.22-3.16-6.33c-.82-1.6-1.65-3.18-2.51-4.74s-1.74-3-2.64-4.44c-.21,1.27-.42,2.73-.61,4.39s-.38,3.35-.55,5.09q-.33,3.76-.57,7.38t-.47,6.53l-3.39-.91-2.47,1-2.84-1.51c.08-2.54.21-5.24.39-8.08s.43-5.74.74-8.68.64-5.87,1-8.76.78-5.65,1.23-8.26l1.83-.55-1.47-4.11,3.86-.15,3.07-2.11c1.26,1.6,2.33,3.08,3.18,4.41s1.68,2.65,2.45,3.92q2.4,4.17,4.57,8.36t4.2,8.45q1-2.35,2.08-5.19t2.33-5.75q1.59-3.77,3.25-7.33a48.92,48.92,0,0,1,3.43-6.27l3.18.85,2.64-1,2.51,1.86c.16.93.35,2,.55,3.16s.4,2.37.58,3.61.37,2.44.55,3.62.36,2.2.53,3.11c.28,1.67.59,3.55.91,5.64s.63,4.26.89,6.5.51,4.48.74,6.7S693.21,302.84,693.33,304.75Z" transform="translate(-66.05 -146.55)"/><path class="cls-6" d="M191.93,150.4l-1.52,1.54c-.4,0-.93,0-1.59.07s-1.37.09-2.12.16l-2.2.2c-1.55.21-1.27,0-1.37,1,.65,10.11,1.82,18.36,2.48,27.41l-6.21.9-3.21,1.08c-.17-1.66.24-11.37.14-13.23s-.17-3.72-.21-5.59-.08-3.72-.11-5.52,0-3.48,0-5.05l-1.8.19-1.8.22c-.62.07-1.29.16-2,.26l-2.37.31.63-2.78-1.56-.56,1.14-2q2.88-.47,5.67-.81c1.87-.22,3.75-.4,5.66-.54s3.84-.21,5.82-.26,4,0,6.22,0l-.59,1.87Z" transform="translate(-66.05 -146.55)"/><path class="cls-6" d="M219.16,147.72c-.06,2.38-.1,4.68-.11,6.92s0,4.46,0,6.68,0,4.43-.07,6.67-.05,4.53-.08,6.89l-3.09-1-2.71.36c0-.48-.07-1.14-.11-2s-.08-1.75-.12-2.7-.09-1.87-.13-2.77-.08-1.62-.11-2.19a3.15,3.15,0,0,1-.44,0,2.15,2.15,0,0,0-.45,0c-1.41.08-2.88.22-4.4.41a36.83,36.83,0,0,0-3.85.63c-.09,1.4-.14,2.88-.17,4.44s-.05,3.26-.05,5.12l-3-1.11-2.54.39q-.13-1.41-.21-2.7c-.06-.86-.1-1.7-.13-2.52s-.06-1.63-.11-2.44-.1-1.63-.19-2.49a4.08,4.08,0,0,1-.72-.72c-.22-.28-.43-.57-.63-.88l.74-.78a8.08,8.08,0,0,1,.74-.72q0-1.16,0-2.67c0-1-.06-2.06-.11-3.14s-.08-2.16-.12-3.22,0-2.05,0-3l3.55-1.08,1.15.79,2.2-.33c0,.78-.05,1.64-.07,2.57s0,1.86,0,2.81v6c1.56-.22,3-.36,4.47-.42s2.87-.08,4.34,0c0-.74-.06-1.59-.08-2.56s-.07-2-.11-3.08-.08-2.18-.11-3.29,0-2.17,0-3.17l3.47.88Z" transform="translate(-66.05 -146.55)"/><path class="cls-6" d="M245.87,173.73a81.18,81.18,0,0,1-8.34,1.36q-4.07.45-8.51.61l-.55-1.71-.59-.14a4.67,4.67,0,0,0-1.23,0c-.28-3.62-.45-7.07-.49-10.35s-.06-6.58-.06-9.87a1.18,1.18,0,0,1-.28,0l-1,.11.55-2.81-.85-2.32a78.38,78.38,0,0,1,9.55-1.12,80.05,80.05,0,0,1,9.16.07l2,1.47L244,150.44l.59,1.57-2.56.13c-1.06,0-2.16.1-3.3.16l-3.3.2c-1.06.06-1.93.14-2.61.23-.06,1-.1,2.06-.15,3.12s-.07,2.09-.1,3.09q2.67-.36,5.5-.55a55.61,55.61,0,0,1,6.23,0l-.89,2.46.46,2.29q-3.16.26-6.14.57c-2,.21-3.71.42-5.2.64q0,.72-.09,1.5c0,.53,0,1.06,0,1.61a12.84,12.84,0,0,0,0,1.52,9.18,9.18,0,0,0,.17,1.36q3-.13,6.12-.38l6.79-.54-.55,2.59Z" transform="translate(-66.05 -146.55)"/></svg>