<svg id="Warstwa_1" data-name="Warstwa 1" xmlns="http://www.w3.org/2000/svg" viewBox="0 0 326.55 326.55"><defs><style>.cls-1,.cls-3{fill:none;}.cls-1{stroke:#fff;stroke-miterlimit:22.93;stroke-width:0.57px;}.cls-2{fill:#9c3603;}.cls-2,.cls-3,.cls-4,.cls-5,.cls-6,.cls-7,.cls-8,.cls-9{fill-rule:evenodd;}.cls-3{stroke:#f60;stroke-miterlimit:22.93;stroke-width:9.92px;}.cls-4{fill:#020202;}.cls-5{fill:#9fdff6;}.cls-6{fill:#7ecae2;}.cls-7{fill:#af3702;}.cls-8{fill:#fdac02;}.cls-9{fill:#00aeef;}</style></defs><rect class="cls-1" x="0.28" y="0.28" width="325.98" height="325.98" rx="45.38"/><path class="cls-2" d="M196.4,366.58V474.34c0,11,1.68,20.39,6.85,28.91a45.12,45.12,0,0,0,7.88,10.15,35.43,35.43,0,0,0,3.09,2.91c.61.49.88.78,1.58,1.3a45.81,45.81,0,0,0,13.85,7.27,40.86,40.86,0,0,0,11.79,1.82H242c2.13,0,4.42-.15,7.25-.28l27.36-2.16c4.73-.12,11.62-1.07,16.57-1.19,1.64-.05,3.87-.45,5.51-.49,4.59-.12,12.08-1.14,16.33-1.2l27.6-2.15c1.74-.09,3.68-.13,5.38-.39,1.86-.27,3.68-.17,5.56-.43,16.18-2.28,28.19-9.16,37.43-21.85a24.42,24.42,0,0,0,3.34-5.82c.51-1.41,1.92-4.52,1.72-5.91s-2-1-3.21-2.16a7.12,7.12,0,0,0-3.34-1.87c-3,6.18-9.17,11.57-15.14,13.38a40.76,40.76,0,0,1-18.67,9.33c-5.73,1.15-19.23,1.79-25.57,2.28-1.51.11-3.7.44-5.29.46a49.8,49.8,0,0,0-5.11.42c-3.13.42-12.35.67-15.64,1.16l-62.29,4.68c-10.49,0-19.92-6.65-25.4-15.16a36.86,36.86,0,0,1-5.56-18.92V362.26a36.6,36.6,0,0,1,5.71-19.48q.63-1,1.32-1.95c.83-6.25,2.57-10.21,9.24-15.82a7.57,7.57,0,0,0-3.71-3.63c-2.21-.95-1.3-2.31-3-1.51a50.24,50.24,0,0,0-5.68,3.59,48.9,48.9,0,0,0-8.48,9,62.54,62.54,0,0,0-4.93,8.26C197.32,350.36,196.4,355,196.4,366.58Z" transform="translate(-134.16 -257.68)"/><path class="cls-3" d="M251.69,313l105.66,10.06c22.53,2.14,41.11,18.52,41.16,41.16l.21,98.21c.06,22.63-18.58,39.44-41.16,41.16l-105.87,8.05c-22.56,1.72-41.16-18.52-41.16-41.13V354.16C210.53,331.51,229.13,310.86,251.69,313Z" transform="translate(-134.16 -257.68)"/><path class="cls-4" d="M234.67,470.09h0c.25,1.26.52,2.51.79,3.75,1.12,2.49,1.88,5.16,3.35,7.47,2.38,1.44,5.32-.1,7.52-1.28-.06-4-.28-7.92-.58-11.87v-1.42c-3.62,1.07-7.53,1.68-11.06,3.33l0,0Zm58.09-9.37h0a6,6,0,0,1-.11.72C298,466.65,304.8,471,312.35,472c9.83.52,19.56-3.06,27.73-8.34-11.81-1.29-23.6-2.74-35.44-3.62a46.42,46.42,0,0,0-11.88.69ZM306,446.88h0a30.76,30.76,0,0,1,6.41-3.15c2.38-.69,4.78.21,7.12.68a125.57,125.57,0,0,1,41.12,15.92,52.5,52.5,0,0,1,7.74,5.51c-14.09-2.73-28.35-4.46-42.56-6.36-7.54-.84-15.07-1.91-22.66-2.07-5.25.36-10.43,1.32-15.67,1.75a8.76,8.76,0,0,1,2.17-2.29c5.21-3.71,10.82-6.8,16.33-10Zm-77.79,1.38h0c-.26,2.13,1.77,3.4,3.61,3.66,4.38.75,8.77,1.49,13.1,2.47-.14-2.45-.27-4.9-.41-7.35s-.3-4.83-.42-7.24c-.9-.8-1.81-1.6-2.75-2.35-3-2.79-7.54-2.13-11.27-1.85a98,98,0,0,0-1.86,12.66Zm90-16.28h0a14.73,14.73,0,0,0-1.12,9.43c6.75,1.75,13.63,3.15,20.21,5.53,4.38-5.42,4-14.21-1.47-18.75-5.91.72-11.71,2.68-17.59,3.77l0,0Zm-30.36-3.54h0a13.13,13.13,0,0,0-4,8.52,14,14,0,0,0,7.72,13.55c1,.47,2.37,1.08,3.35.11,3.86-2.57,7.76-5.08,11.8-7.38.67-.51,1.74-.81,1.92-1.73a12.74,12.74,0,0,0-3-11.33c-4.84-.85-9.75-1.28-14.61-2-1,0-2.44-.72-3.21.3l0,0Zm28.35-1h0c10.29-4.09,20.85-7.52,31.38-10.95a22.8,22.8,0,0,1,0,6.39c-8.1,2.26-16.25,4.32-24.42,6.32a37.75,37.75,0,0,1-6.42,1.25q-.27-1.5-.51-3Zm-46.37-11.76c9,1.36,17.78,3.58,26.67,5.36,4.73,1.19,9.6,1.88,14.22,3.46v4.31c-7.31-.54-14.53-1.91-21.81-2.82-5.76-1-11.61-1.55-17.3-2.93a41.56,41.56,0,0,1-1.78-7.38ZM264,399.09l.09,0c11.84-1.05,23.75-1,35.63-1.13,15.61,0,31.31,0,46.82,2,2.77.28,6.73,1.43,6.23,5-1,15.62-2.36,31.21-3.48,46.82a100.15,100.15,0,0,0-9.8-4,18.35,18.35,0,0,0,2.69-10.18c-.05-3.82-1.88-7.29-4.16-10.24,3.8-.93,7.54-1.93,11.32-2.93a47.89,47.89,0,0,0,.11-9.87c-11.83,3.44-23.44,7.62-35.08,11.67a24.88,24.88,0,0,0,1.63,6.4,19.61,19.61,0,0,0-.93,8.3,16.08,16.08,0,0,0-4.32.29,16.53,16.53,0,0,0-2.57-10.87c1.29.15,2.57.25,3.86.37a19.13,19.13,0,0,0,.33-7.68q-22.21-5.07-44.62-9.35c.46,3.79,1.33,7.5,2.14,11.22,5.38,1.11,10.85,1.7,16.29,2.52a16,16,0,0,0-4.22,12.3,16.25,16.25,0,0,0,9.45,13.16c-3.42,3-7.9,5.09-10.42,9.1,3.1.09,6.12-.71,9.21-.91,2.87,3.65,6.74,6.34,10.56,8.9,4.14,2.6,8.86,5.21,13.94,4.44C324.8,473.23,334.87,470,343.1,464l5.2.64c-.48,6.35-1,12.67-1.48,19-.16,1.35-.29,2.87-1.36,3.87-1.62,1.53-4,1.38-6,1.53-23.25,0-46.5-.11-69.74,0-5.31-.71-10.43-2.49-15.43-4.19-1.69-.63-3.69-1.3-4.45-3.11a10.75,10.75,0,0,1-.65-4.63c-.5-5.71-1.06-11.45-1.06-17.18a59.87,59.87,0,0,1-.81-9.82c-.68-7.87-1.13-15.78-1.59-23.67-.34-3.86-.49-7.72-.73-11.58-.09-2.3-.23-4.88,1.45-6.68a83.38,83.38,0,0,1,16-8.28l1.59-.82Zm11-31.39h0c-1.35,2.41-2,5.73-.22,8.1,4.35,6.69,8.73,13.37,13,20.14l2.84.08c1.85,0,3.7-.06,5.56-.09-3.4-10.58-6.46-21.26-9.94-31.79a15.16,15.16,0,0,0-2.61-.05,36,36,0,0,0-8.59,3.61Zm29.1-14.31h0c-1.33,1.24-3.45,2.48-3.15,4.59,1.25,12,2.26,24,3.78,35.92,0,.52.11,1.56.14,2.08,2.54-.07,5.11.33,7.62-.07,3.6-12.4,7.07-24.78,10.6-37.18.23-1.36,1.14-3.73-.66-4.38a83.32,83.32,0,0,0-11.59-1.14c-2.23-.15-4.6-.68-6.73.18ZM298.8,358c-.64-3.31,2.8-5.32,5.27-6.64a178,178,0,0,1,20,.88c1.63,0,3.84.93,3,3q-6.21,20.49-12.64,40.94c11.45.31,22.92.57,34.29,2.06,2.08.35,4.43.51,6.07,2,1.43,1.41,1,3.61,1,5.42q-1.8,23.76-3.62,47.55a148.66,148.66,0,0,1,17.69,10.1c1.84,1.25,3.84,2.42,5.09,4.33v.68c-4.09.05-8.06-1-12.08-1.61s-7.76-1.12-11.65-1.62l-1.62,20.83c-.19,1.71-.27,3.72-1.77,4.85-1.79,1.31-4.18,1.14-6.26,1.54H269.46c-5-.4-9.68-2.35-14.43-3.79a51.18,51.18,0,0,1-6.24-2.17c-1.7-.88-2.07-2.86-2.33-4.58a9.64,9.64,0,0,1-8.31,1.64c-2.21-1.94-3.1-4.9-4.29-7.5-.79-2.27-2.28-4.55-1.84-7a12,12,0,0,1,1-.79c4.12-1.35,8.43-2.06,12.64-3.14-.18-2.62-.18-5.26-.52-7.87-4.13-1.38-8.57-1.85-12.83-2.79-2.39-.52-5.86-.53-6.47-3.55V448c1-4.78.81-10,3-14.4a38.82,38.82,0,0,1,9.14-.12c2.44-.07,4.18,1.85,6,3.16q-.78-11.94-1.45-23.9c0-2.07-.18-4.45,1.21-6.16,2-1.55,4.43-2.26,6.62-3.43,4.51-2.05,8.76-5,13.75-5.71,6.93-1.17,14-1.15,21-1.28-4.64-7.46-9.48-14.84-13.72-22.53.22-3.21,1.48-7.19,4.83-8.37,3.52-1.54,7.13-2.86,10.78-4.06,1.56,2.88,2.31,6.09,3.35,9.17,2.77,8.56,5.4,17.17,8.31,25.68l4-.08q-2-19-3.88-37.94Z" transform="translate(-134.16 -257.68)"/><path class="cls-4" d="M320.45,434.94c3.73-1.46,4.75,5.63,1.08,6C318.48,440.86,318.07,436.28,320.45,434.94Z" transform="translate(-134.16 -257.68)"/><path class="cls-4" d="M302.13,435.78a2.53,2.53,0,0,1,3.58-.07,2.18,2.18,0,0,1,.42.54c1.08,1.65,1.06,4.42-.87,5.45C302,442.9,299.83,437.82,302.13,435.78Z" transform="translate(-134.16 -257.68)"/><path class="cls-5" d="M310.87,353.21a83.32,83.32,0,0,1,11.59,1.14c1.8.65.89,3,.66,4.38-3.52,12.4-7,24.82-10.59,37.18-2.51.4-5.08,0-7.62.07,0-.52-.11-1.56-.14-2.08l1.09,1.87c-.2-7.79-1-15.56-1.16-23.35a64.36,64.36,0,0,1,1.67-11.82c.47-1.48,1-3.33,2.69-3.8,3-1.12,6.21-1.33,9.3-2.08A32.43,32.43,0,0,0,310.87,353.21Z" transform="translate(-134.16 -257.68)"/><path class="cls-5" d="M283.63,364.09a15.16,15.16,0,0,1,2.61.05c3.48,10.53,6.54,21.21,9.94,31.79-1.86,0-3.71.13-5.56.09-2.67-6.5-6.69-12.31-9.75-18.62-.82-2.48-2-5.08-1.45-7.74C280.38,367.51,282.13,365.85,283.63,364.09Z" transform="translate(-134.16 -257.68)"/><path class="cls-5" d="M269.37,467.36h0a116.39,116.39,0,0,0,.68,17c.07,1.44,1,3.11,2.61,3.08,3.61.07,7.33.49,10.86-.48-3.49-1.37-8-1.92-10-5.57-2.09-4.4-3.13-9.25-4.13-14ZM325.78,402h0c4.58,1.66,9.53,1.27,14.31,1.66,3.12-.1,6.5.26,9.36-1.23-5.76-1.9-11.91-1.59-17.9-1.57-1.95.15-4.18-.26-5.77,1.14Zm-55-1.69h0c-1.82.23-4.92.88-4.17,3.39,4.21,1.23,9.51,1.58,12.94-1.62-2.17-2.56-5.81-2-8.77-1.77ZM264,399.09c11.84-1,23.75-1,35.63-1.13,15.61,0,31.31,0,46.82,2,2.77.23,6.73,1.38,6.23,5-1,15.62-2.36,31.21-3.48,46.82-3.22-1.43-6.45-2.85-9.8-4a18.38,18.38,0,0,0,2.71-10.19c-.05-3.81-1.88-7.28-4.16-10.23,3.8-.9,7.54-2,11.32-2.93a47.89,47.89,0,0,0,.11-9.87c-11.83,3.44-23.44,7.62-35.08,11.67a24.71,24.71,0,0,0,1.63,6.39,19.68,19.68,0,0,0-.93,8.31,16.08,16.08,0,0,0-4.32.29,16.53,16.53,0,0,0-2.57-10.87c1.29.15,2.57.25,3.86.37a19.13,19.13,0,0,0,.33-7.68q-22.23-5.09-44.62-9.35c.46,3.79,1.33,7.5,2.14,11.22,5.38,1.11,10.85,1.7,16.29,2.52a16,16,0,0,0-4.22,12.3,16.25,16.25,0,0,0,9.45,13.16c-3.46,3-7.9,5.11-10.42,9.1,3.1.12,6.12-.71,9.21-.91,2.87,3.65,6.74,6.34,10.56,8.9,4.14,2.6,8.86,5.21,13.94,4.44C324.71,473.21,334.78,470,343,464l5.2.64c-.45,6.34-1,12.66-1.48,19-.16,1.36-.29,2.89-1.36,3.87-1.57,1.51-3.93,1.38-6,1.53-23.25.06-46.5-.08-69.74,0-1.72-3.14-1.43-6.8-1.77-10.24q-2-32-3.65-64c-.27-5.25-.22-10.51-.22-15.76Z" transform="translate(-134.16 -257.68)"/><path class="cls-5" d="M249.44,408.15c3.06-1.2,6-2.69,8.92-4.18-4.12,10.82-6.57,22.19-8.41,33.6-.9,4.19-1,8.55-2.69,12.55-.68-7.87-1.13-15.78-1.59-23.67C251.13,422.26,251.75,414.2,249.44,408.15Z" transform="translate(-134.16 -257.68)"/><path class="cls-5" d="M230.13,435.58c3.73-.28,8.28-.94,11.27,1.85.94.76,1.85,1.55,2.75,2.35.12,2.41.27,4.83.42,7.24C239.88,443.05,234.44,440,230.13,435.58Z" transform="translate(-134.16 -257.68)"/><path class="cls-5" d="M248.07,459.94c3-7.81,3.7-16.36,6.83-24.14,0,4.2-1,8.29-1.5,12.44-1,6.85-1.8,13.72-2.84,20.57-.35,2.79-.44,5.64-1.43,8.31C248.63,471.41,248.06,465.67,248.07,459.94Z" transform="translate(-134.16 -257.68)"/><path class="cls-5" d="M234.69,470.07c3.53-1.65,7.4-2.26,11.1-3.35v1.42c-3.51,1.73-8.67,1.43-10.29,5.69C235.21,472.58,234.94,471.33,234.69,470.07Z" transform="translate(-134.16 -257.68)"/><path class="cls-6" d="M301,358c-.3-2.11,1.82-3.35,3.15-4.59.39,6.34.16,12.69.56,19,.12,7.79,1,15.56,1.16,23.35l-1.09-1.87C303.25,382,302.24,370,301,358Z" transform="translate(-134.16 -257.68)"/><path class="cls-6" d="M274.82,375.8c-1.78-2.37-1.13-5.69.22-8.1,1.85,3.3,3.82,6.51,5.83,9.7,3.06,6.31,7.08,12.12,9.75,18.62l-2.84-.08C283.55,389.17,279.13,382.51,274.82,375.8Z" transform="translate(-134.16 -257.68)"/><path class="cls-6" d="M262.43,399.91l1.59-.82c0,5.25,0,10.51.22,15.76q1.68,32,3.65,64c.34,3.44.05,7.1,1.77,10.24-5.31-.71-10.38-2.49-15.43-4.19-1.69-.63-3.69-1.3-4.45-3.11a10.75,10.75,0,0,1-.65-4.63c1-2.67,1.08-5.52,1.43-8.31,1-6.85,1.83-13.73,2.84-20.57.53-4.15,1.54-8.24,1.5-12.44-3.13,7.78-3.81,16.33-6.83,24.14a61,61,0,0,1-.81-9.82c1.68-4,1.79-8.36,2.69-12.55,1.84-11.41,4.29-22.78,8.41-33.6A18.41,18.41,0,0,0,262.43,399.91Z" transform="translate(-134.16 -257.68)"/><path class="cls-6" d="M244.94,414.87c-.09-2.3-.23-4.88,1.45-6.68a10.39,10.39,0,0,0,3.05,0c2.31,6.05,1.7,14.11-3.77,18.3C245.33,422.59,245.18,418.73,244.94,414.87Z" transform="translate(-134.16 -257.68)"/><path class="cls-6" d="M228.27,448.24a96.34,96.34,0,0,1,1.86-12.66c4.31,4.41,9.75,7.47,14.44,11.44.14,2.45.27,4.9.41,7.35-4.33-1-8.72-1.72-13.1-2.47C230,451.64,228,450.37,228.27,448.24Z" transform="translate(-134.16 -257.68)"/><path class="cls-6" d="M235.48,473.83c1.62-4.26,6.78-4,10.29-5.69.3,3.95.52,7.91.58,11.87-2.2,1.18-5.14,2.72-7.52,1.28C237.36,479,236.6,476.31,235.48,473.83Z" transform="translate(-134.16 -257.68)"/><path class="cls-7" d="M269.85,415.68c9,1.36,17.78,3.58,26.67,5.36,4.73,1.19,9.6,1.88,14.22,3.46v4.31c-7.31-.54-14.53-1.91-21.81-2.82-5.76-1-11.61-1.55-17.3-2.93A41.56,41.56,0,0,1,269.85,415.68Z" transform="translate(-134.16 -257.68)"/><path class="cls-7" d="M316.22,427.44c10.29-4.09,20.85-7.52,31.38-10.95a22.8,22.8,0,0,1,0,6.39c-8.1,2.26-16.25,4.34-24.42,6.32a37.75,37.75,0,0,1-6.42,1.25C316.55,429.45,316.38,428.44,316.22,427.44Z" transform="translate(-134.16 -257.68)"/><path class="cls-8" d="M306.06,446.86a30.76,30.76,0,0,1,6.41-3.15c2.38-.69,4.78.21,7.12.68a125.57,125.57,0,0,1,41.12,15.92,52.5,52.5,0,0,1,7.74,5.51c-14.09-2.73-28.35-4.47-42.56-6.36-7.54-.84-15.07-1.91-22.66-2.07-5.25.36-10.43,1.32-15.67,1.75a8.76,8.76,0,0,1,2.17-2.29C294.94,453.15,300.55,450.07,306.06,446.86Z" transform="translate(-134.16 -257.68)"/><path class="cls-8" d="M292.78,460.7a46.42,46.42,0,0,1,11.88-.69c11.84.88,23.63,2.33,35.44,3.62-8.17,5.28-17.9,8.86-27.73,8.34-7.55-1-14.32-5.34-19.7-10.55C292.7,461.24,292.75,460.88,292.78,460.7Z" transform="translate(-134.16 -257.68)"/><polygon class="cls-9" points="241.35 130.09 241.29 130.08 240.97 131.28 247.76 133.09 250.45 137.75 251.52 137.13 248.83 132.48 250.64 125.75 250.65 125.69 249.45 125.37 247.96 130.96 246.3 128.08 247.43 123.87 246.23 123.55 245.42 126.56 243.3 122.9 242.23 123.52 244.35 127.18 241.33 126.38 241.01 127.57 245.22 128.7 246.88 131.58 241.35 130.09"/><polygon class="cls-9" points="249.88 139.98 249.88 138.74 244.5 138.74 239.53 133.77 238.66 134.65 242.75 138.74 239.43 138.74 236.34 135.66 235.47 136.53 237.68 138.74 233.44 138.74 233.44 139.98 237.67 139.98 235.47 142.18 236.34 143.06 239.43 139.98 242.75 139.98 238.66 144.07 239.53 144.95 244.5 139.98 249.88 139.98"/><polygon class="cls-9" points="251.49 141.63 251.52 141.59 250.45 140.97 247.76 145.62 240.97 147.44 241.29 148.64 246.88 147.14 245.22 150.01 241.01 151.14 241.33 152.34 244.35 151.53 242.26 155.15 242.23 155.2 243.3 155.82 245.42 152.15 246.23 155.17 247.43 154.85 246.3 150.63 247.96 147.76 249.45 153.35 250.65 153.03 248.83 146.24 251.49 141.63"/><polygon class="cls-9" points="262.83 148.62 262.89 148.64 263.21 147.44 256.42 145.62 253.76 141.01 253.73 140.97 252.66 141.59 255.35 146.24 253.53 153.03 254.73 153.35 256.23 147.76 257.88 150.63 256.76 154.85 257.95 155.17 258.76 152.15 260.85 155.77 260.88 155.82 261.95 155.2 259.83 151.53 262.8 152.33 262.85 152.34 263.17 151.14 258.96 150.01 257.3 147.14 262.83 148.62"/><polygon class="cls-9" points="270.74 138.74 266.51 138.74 268.71 136.53 267.83 135.66 264.75 138.74 261.43 138.74 265.52 134.65 264.65 133.77 259.68 138.74 254.3 138.74 254.3 139.98 259.68 139.98 264.65 144.95 265.52 144.07 261.43 139.98 264.75 139.98 267.83 143.06 268.71 142.18 266.51 139.98 270.74 139.98 270.74 138.74"/><polygon class="cls-9" points="252.66 137.13 253.73 137.75 256.42 133.09 263.15 131.29 263.21 131.28 262.89 130.08 257.3 131.58 258.96 128.7 263.17 127.57 262.85 126.38 259.83 127.18 261.95 123.52 260.88 122.9 258.76 126.56 257.95 123.55 256.76 123.87 257.88 128.08 256.23 130.96 254.74 125.42 254.73 125.37 253.53 125.69 255.35 132.48 252.66 137.13"/><path class="cls-9" d="M386.24,395.14a1.91,1.91,0,0,0-1.65,2.85h0a2,2,0,0,0,1.66,1,1.93,1.93,0,0,0,1.88-1.49,1.9,1.9,0,0,0-1.33-2.34,1.81,1.81,0,0,0-.52-.06l0,0Zm-.64,1.74a.68.68,0,0,1,.31-.41.66.66,0,0,1,.33-.09.67.67,0,0,1,.65.84.74.74,0,0,1-.31.41.9.9,0,0,1-.33.09.7.7,0,0,1-.67-.7S385.59,396.92,385.6,396.88Z" transform="translate(-134.16 -257.68)"/><path class="cls-9" d="M386.25,394.63l2.65-4.43-2.65-4.42-2.66,4.42,2.66,4.43Zm0-2.41-1.21-2,1.21-2,1.2,2Z" transform="translate(-134.16 -257.68)"/><path class="cls-9" d="M379,395.92l5.16-.08-2.51-4.51-5.15.08,2.5,4.51Zm.72-1.25-1.14-2.05h2.35l1.14,2.05Z" transform="translate(-134.16 -257.68)"/><path class="cls-9" d="M379,398.2l-2.5,4.51,5.12.09,2.51-4.51L379,398.2Zm-.42,3.31,1.14-2.06h2.35l-1.14,2.06Z" transform="translate(-134.16 -257.68)"/><path class="cls-9" d="M386.25,399.47l-2.66,4.42,2.66,4.43,2.65-4.43-2.65-4.42Zm0,2.41,1.2,2-1.2,2-1.21-2Z" transform="translate(-134.16 -257.68)"/><path class="cls-9" d="M390.85,402.77l5.16-.09-2.49-4.48-5.16.09,2.49,4.48Zm1.93-3.35,1.14,2.06h-2.35l-1.14-2h2.35Z" transform="translate(-134.16 -257.68)"/><path class="cls-9" d="M393.5,395.92l2.51-4.51-5.16-.08-2.51,4.51,5.16.08Zm.42-3.3-1.14,2.05h-2.35l1.14-2.05Z" transform="translate(-134.16 -257.68)"/><path class="cls-9" d="M348.7,376.76l-1.2-.69,3.25-1.32-.31-.76-3.83,1.52-1.15-.67v-2.58l1.16-.67,3.83,1.56.31-.76-3.28-1.33,1.2-.69,2.57,1,.31-.76-2-.82,1.72-1-.41-.71-1.75,1,.3-2.15-.81-.11-.39,2.78-1.2.69.49-3.5-.81-.12-.57,4.14-1.14.66-2.25-1.3v-1.33l3.29-2.56-.5-.65-2.79,2.17v-1.29l2.22-1.72-.51-.65-1.63,1.37v-2H342v2l-1.72-1.34-.5.65,2.22,1.72v1.38l-2.79-2.17-.5.65L342,369v1.33l-2.24,1.29-1.16-.67-.57-4.13-.81.11.48,3.5-1.19-.69-.38-2.79-.81.11.3,2.15-1.75-1-.41.71,1.75,1-2,.82.31.76,2.6-1.06,1.19.69-3.24,1.32.31.76,3.86-1.57,1.17.68v2.56l-1.18.68L334.4,374l-.31.76,3.28,1.33-1.2.69-2.57-1.05-.31.76,2,.82-1.75,1,.41.71,1.75-1-.3,2.15.81.11.39-2.78,1.19-.69-.48,3.5.81.11.57-4.13,1.18-.68,2.21,1.27v1.38l-3.29,2.56.5.64,2.79-2.17v1.38l-2.22,1.73.51.64,1.71-1.33v2h.82v-2l1.71,1.33.51-.64-2.22-1.73v-1.38l2.79,2.17.5-.64-3.29-2.56v-1.35l2.22-1.29,1.18.68.57,4.14.81-.11-.48-3.51,1.19.69.39,2.79.81-.12-.3-2.15,1.72,1,.41-.71-1.75-1,2-.8-.31-.75-2.66,1Zm-6.81-3.17.25-.44h.51l.26.44-.26.44h-.52l-.25-.44Zm1.33,0,1.42-.82v1.64l-1.42-.82Zm-.4-.72v-1.65l1.43.83-1.43.82Zm-.82,0-1.42-.82,1.42-.82v1.64Zm-.42.71-1.4.81v-1.62l1.4.81Zm.4.71v1.61l-1.39-.8,1.39-.81Zm.82,0,1.4.81-1.4.81Z" transform="translate(-134.16 -257.68)"/><path class="cls-9" d="M254.47,362l-1.57-.91-1,1.69-2.54-1.46,2.37-4.1-1.57-.91-2.37,4.1-2.53-1.46,1.67-2.9-1.57-.9L243.69,358l-2.11-1.21a6.46,6.46,0,0,0,0-4.85l2.11-1.22,1.67,2.9,1.57-.91-1.67-2.89,2.53-1.47,2.37,4.11,1.57-.91-2.37-4.1L251.9,346l1,1.69,1.57-.9-1-1.69L255.4,344l-.91-1.57-1.9,1.1-1-1.69-1.57.9,1,1.69-2.53,1.47-2.36-4.09-1.57.91,2.37,4.1-2.54,1.47-1.67-2.9-1.57.9,1.67,2.9-2.11,1.22a6.41,6.41,0,0,0-4.2-2.43v-2.45h3.35V343.7h-3.35v-2.93h4.74V339h-4.74V336h2v-1.81h-2V332H234.7v2.23h-1.95v1.81h1.95V339H230v1.81h4.74v2.93h-3.34v1.79h3.34v2.43a6.5,6.5,0,0,0-4.19,2.43l-2.11-1.22,1.67-2.9-1.57-.9-1.67,2.9-2.54-1.47,2.37-4.1-1.57-.91-2.37,4.11-2.53-1.47,1-1.69-1.57-.9-1,1.69-1.93-1.12-.91,1.57,1.93,1.12-1,1.69,1.56.9,1-1.69,2.54,1.47-2.37,4.1,1.56.91,2.38-4.11,2.53,1.47-1.67,2.89,1.57.91,1.67-2.9,2.11,1.22a6.56,6.56,0,0,0,0,4.85L227.48,358l-1.67-2.89-1.57.9,1.67,2.9-2.53,1.46-2.38-4.1-1.56.91,2.37,4.1-2.54,1.46-1-1.69-1.56.91,1,1.69-1.93,1.12.91,1.56,1.93-1.11,1,1.69,1.57-.91-1-1.69,2.53-1.46,2.37,4.1,1.57-.9-2.37-4.11,2.54-1.46,1.67,2.9,1.57-.91-1.67-2.9,2.11-1.22a6.54,6.54,0,0,0,4.19,2.43v2.44h-3.34V365h3.34V368H230v1.82h4.74v2.92h-1.95v1.82h1.95v2.23h1.81v-2.23h2v-1.8h-2v-2.92h4.74V368h-4.74v-2.92h3.35v-1.81h-3.35V360.8a6.49,6.49,0,0,0,4.2-2.43l2.11,1.22-1.69,2.92,1.57.91,1.67-2.9,2.54,1.46-2.37,4.11,1.57.9,2.37-4.1,2.53,1.46L250,366l1.57.91,1-1.69,1.93,1.11.91-1.56-1.93-1.12,1-1.71Zm-14.2-7.6a4.67,4.67,0,1,1-4.67-4.67A4.68,4.68,0,0,1,240.27,354.38Z" transform="translate(-134.16 -257.68)"/><path class="cls-9" d="M290.26,340.66l-.77-.44-.48.83-1.24-.72,1.16-2-.77-.45-1.16,2-1.25-.72.82-1.42-.77-.45-.82,1.42-1-.59a2.9,2.9,0,0,0,.23-1.19,2.84,2.84,0,0,0-.23-1.19l1-.6.82,1.42.77-.44-.82-1.43L287,334l1.16,2,.77-.44-1.16-2,1.24-.72.48.83.77-.44-.48-.83,1-.55-.45-.77-.94.55-.48-.83-.77.44.48.83-1.25.72-1.16-2-.77.44,1.16,2-1.24.71-.82-1.42-.77.45.82,1.42-1,.6a3,3,0,0,0-2.06-1.19v-1.2h1.64v-.89h-1.64v-1.43h2.33v-.89h-2.33v-1.44h1V327h-1V326h-.89V327h-.95v.89h.95v1.44h-2.32v.89h2.32v1.43H279v.89h1.64v1.2a3.13,3.13,0,0,0-2.06,1.19l-1-.6.82-1.42-.77-.45-.82,1.42-1.25-.71,1.17-2-.77-.44-1.17,2-1.24-.72.48-.83-.77-.44-.48.83-1-.55-.44.77,1,.55-.48.83.77.44.48-.83,1.24.72-1.16,2,.77.44,1.16-2,1.24.71-.82,1.43.77.44.82-1.42,1,.6a3.19,3.19,0,0,0-.23,1.19,3.27,3.27,0,0,0,.23,1.19l-1,.59-.82-1.42-.77.45.82,1.42-1.24.72-1.16-2-.77.45,1.16,2-1.24.72-.48-.83-.77.44.48.83-1,.55.44.77,1-.55.48.83.77-.44-.48-.83,1.24-.72,1.17,2,.77-.44-1.17-2,1.25-.72.82,1.42.77-.45-.92-1.4,1-.6a3.21,3.21,0,0,0,2.06,1.19v1.2h-1.64v.89h1.64v1.44h-2.32v.88h2.32V346h-.95v.89h.95v1.09h.89v-1.09h1V346h-1v-1.44h2.33v-.88h-2.33v-1.44H283v-.89h-1.64v-1.2a3.12,3.12,0,0,0,2.06-1.19l1,.6-.82,1.42.77.45.82-1.42,1.24.72-1.16,2,.77.44,1.16-2,1.25.72-.48.83.77.44.48-.83.94.55.45-.77-.95-.55.58-.85Zm-7-3.72a2.29,2.29,0,1,1-2.29-2.3A2.29,2.29,0,0,1,283.26,336.94Z" transform="translate(-134.16 -257.68)"/><path class="cls-9" d="M388.6,335.9l-1.53-.88-.95,1.64-2.46-1.42,2.3-4-1.53-.89-2.3,4-2.46-1.43,1.62-2.81-1.52-.89-1.64,2.85-2-1.18a6,6,0,0,0,.46-2.36,5.9,5.9,0,0,0-.46-2.35l2.05-1.19,1.63,2.82,1.52-.88-1.62-2.82,2.46-1.42,2.3,4,1.53-.88-2.3-4,2.46-1.43.95,1.65,1.53-.88-1-1.65,1.88-1.08-.89-1.53L386.76,318l-.95-1.65-1.53.88,1,1.65-2.46,1.42-2.31-4-1.52.88,2.3,4-2.46,1.42-1.65-2.81-1.53.88,1.63,2.82-2.05,1.18a6.26,6.26,0,0,0-4.08-2.36v-2.36h3.25v-1.77h-3.22v-2.84h4.61v-1.76h-4.61v-2.85H373V309h-1.9v-2.17h-1.76V309h-1.9v1.76h1.9v2.85h-4.61v1.76h4.61v2.84h-3.24v1.77h3.26v2.36a6.31,6.31,0,0,0-4.08,2.36l-2.08-1.14,1.63-2.82-1.53-.88-1.62,2.81-2.47-1.42,2.31-4-1.53-.88-2.3,4-2.47-1.42.95-1.65-1.52-.88-.95,1.65-1.88-1.09-.88,1.53,1.88,1.08-1,1.65,1.52.88.95-1.65,2.47,1.43-2.31,4,1.53.88,2.3-4,2.47,1.42L359.15,327l1.53.88L362.3,325l2,1.19a6.47,6.47,0,0,0-.46,2.35,6.65,6.65,0,0,0,.46,2.36l-2,1.18-1.62-2.82-1.53.89,1.63,2.81-2.47,1.43-2.3-4-1.53.89,2.31,4-2.47,1.42-.95-1.64-1.52.88,1,1.64L351,338.69l.88,1.53,1.88-1.08.95,1.64,1.52-.88-.95-1.64,2.47-1.43,2.3,4,1.53-.88-2.31-4,2.47-1.42,1.62,2.82,1.53-.89-1.63-2.81,2.06-1.19a6.33,6.33,0,0,0,4.08,2.36v2.37h-3.24V339h3.26v2.85h-4.61v1.71h4.61v2.84h-1.9v1.76h1.9v2.17h1.74v-2.17H373v-1.76h-1.9v-2.84h4.61v-1.76h-4.61V338.9h3.25v-1.76h-3.25v-2.37a6.3,6.3,0,0,0,4.08-2.36l2.05,1.19-1.63,2.81,1.53.89,1.63-2.82,2.46,1.42-2.3,4,1.52.88,2.31-4,2.46,1.43-.95,1.64,1.53.88.95-1.64,1.87,1.08.89-1.53-1.88-1.08,1-1.66Zm-13.81-7.39a4.54,4.54,0,1,1-4.54-4.54A4.54,4.54,0,0,1,374.79,328.51Z" transform="translate(-134.16 -257.68)"/></svg>