
<svg aria-hidden="true" style="position:absolute;width:0;height:0;overflow:hidden" xmlns="http://www.w3.org/2000/svg">
	<defs>
<symbol id="icon-arrow-left2" viewBox="0 0 18 32">
<path d="M0 15.933c0.080 0.094 0.16 0.179 0.245 0.26l0.001 0.001 0.94 0.982c0.028 0.027 0.036 0.044 0.061 0.070 0.061 0.066 0.135 0.124 0.193 0.193l0.313 0.334c0.044 0.044 0.086 0.081 0.128 0.127l0.437 0.456c0.027 0.027 0.034 0.044 0.059 0.070 0.147 0.157 0.302 0.301 0.443 0.46 0.059 0.067 0.138 0.128 0.196 0.197 0.018 0.024 0.037 0.046 0.057 0.066l-0-0 2.332 2.424 0.066 0.066c0.028 0.027 0.036 0.044 0.061 0.070s0.083 0.083 0.127 0.127c0.023 0.021 0.044 0.042 0.063 0.065l0.001 0.001c0.027 0.030 0.033 0.041 0.063 0.070l0.254 0.263c0.042 0.042 0.085 0.081 0.127 0.127l0.437 0.454c0.027 0.028 0.034 0.045 0.061 0.072 0.147 0.157 0.301 0.301 0.442 0.46 0.061 0.069 0.135 0.128 0.197 0.196l0.442 0.46c0.027 0.027 0.034 0.045 0.061 0.072 0.147 0.157 0.299 0.298 0.437 0.454 0.021 0.024 0.042 0.045 0.065 0.065l0.001 0.001 0.507 0.526 0.061 0.061 0.694 0.725c0.060 0.070 0.122 0.134 0.188 0.194l0.002 0.002 0.564 0.592 0.127 0.127 1.005 1.052c0.045 0.045 0.089 0.086 0.132 0.132l0.376 0.395c0.171 0.171 0.33 0.352 0.503 0.521l0.127 0.136c0.089 0.089 0.164 0.175 0.254 0.263l0.313 0.324c0.027 0.027 0.033 0.044 0.061 0.070l0.503 0.521c0.044 0.044 0.092 0.086 0.132 0.132 0.139 0.157 0.288 0.313 0.437 0.456 0.027 0.027 0.034 0.044 0.061 0.070 0.496 0.418 1.665 2.022 3.33 0.371 1.137-1.081 0.29-2.506-0.501-3.207-0.019-0.022-0.034-0.036-0.056-0.058l-0.371-0.381c-0.022-0.023-0.027-0.036-0.052-0.061l-0.846-0.872c-0.020-0.023-0.024-0.034-0.047-0.058l-0.47-0.493-0.108-0.108-0.099-0.108-0.108-0.108-0.626-0.658-0.108-0.107-0.893-0.93c-0.025-0.025-0.030-0.038-0.052-0.061-0.069-0.080-0.147-0.136-0.213-0.219s-0.147-0.139-0.21-0.215-0.141-0.147-0.211-0.219l-0.626-0.658c-0.019-0.020-0.034-0.033-0.052-0.052l-0.691-0.709c-0.022-0.023-0.025-0.034-0.047-0.056s-0.036-0.036-0.056-0.056l-0.523-0.55c-0.019-0.019-0.034-0.033-0.052-0.052l-0.684-0.716c-0.067-0.083-0.143-0.142-0.213-0.219l-0.681-0.709c-0.022-0.025-0.027-0.036-0.052-0.061l-1.048-1.085c-0.108-0.107-0.208-0.229-0.313-0.334l-0.157-0.157c-0.024-0.025-0.028-0.038-0.052-0.061l-0.211-0.221c-0.067-0.077-0.157-0.135-0.21-0.215s-0.146-0.138-0.213-0.218-0.141-0.147-0.211-0.221l-1.051-1.096c0.034-0.040 0.069-0.075 0.106-0.109l0.001-0.001c0.1-0.114 0.213-0.219 0.313-0.329l1.062-1.096c0.074-0.074 0.157-0.144 0.221-0.221l1.067-1.096c0.070-0.070 0.157-0.144 0.216-0.216 0.020-0.024 0.024-0.033 0.047-0.056l0.381-0.39c0.147-0.147 0.28-0.29 0.428-0.437 0.038-0.038 0.072-0.069 0.108-0.108s0.024-0.033 0.047-0.056 0.036-0.036 0.056-0.056c0.072-0.072 0.147-0.141 0.216-0.216l0.423-0.442c0.149-0.157 0.283-0.293 0.432-0.442l0.211-0.221c0.070-0.070 0.157-0.143 0.216-0.216l0.313-0.329c0.022-0.025 0.027-0.036 0.052-0.061l0.056-0.056c0.147-0.147 0.28-0.29 0.428-0.437l0.157-0.164c0.089-0.092 0.193-0.182 0.277-0.277l0.423-0.442c0.147-0.147 0.28-0.29 0.428-0.437 0.036-0.036 0.075-0.070 0.108-0.108 0.1-0.113 0.221-0.216 0.313-0.329l0.103-0.113 0.108-0.108 0.216-0.226c0.147-0.147 0.28-0.29 0.428-0.437 0.075-0.075 0.136-0.146 0.211-0.221s0.157-0.146 0.221-0.221c0.020-0.024 0.024-0.033 0.047-0.056 0.089-0.091 0.188-0.177 0.273-0.272 0.169-0.193 0.354-0.373 0.536-0.554l0.428-0.437c0.083-0.099 0.343-0.362 0.428-0.446l0.858-0.88c0.351-0.359 1.688-1.723 0.36-3.066-0.93-0.94-2.384-0.564-3.182 0.226l-0.324 0.334c-0.028 0.028-0.034 0.044-0.061 0.072l-0.573 0.581c-0.028 0.028-0.036 0.044-0.061 0.070-0.105 0.114-0.222 0.219-0.324 0.334-0.021 0.024-0.042 0.045-0.065 0.065l-0.001 0.001c-0.143 0.144-0.449 0.445-0.569 0.587l-1.222 1.253c-0.028 0.028-0.036 0.042-0.061 0.070l-0.639 0.658-0.066 0.066c-0.117 0.117-0.489 0.484-0.575 0.592-0.063 0.070-0.127 0.135-0.194 0.195l-0.002 0.002c-0.238 0.238-0.47 0.487-0.705 0.724-0.022 0.021-0.042 0.044-0.060 0.069l-0.001 0.002c-0.097 0.114-0.222 0.207-0.313 0.324s-0.506 0.5-0.642 0.662l-0.578 0.587c-0.021 0.020-0.040 0.041-0.057 0.064l-0.001 0.001-0.581 0.592c-0.047 0.047-0.080 0.089-0.127 0.136-0.090 0.082-0.174 0.168-0.252 0.258l-0.003 0.004c-0.040 0.046-0.081 0.088-0.124 0.127l-0.001 0.001-0.771 0.783c-0.049 0.047-0.080 0.089-0.127 0.136-0.177 0.177-0.341 0.351-0.517 0.526-0.045 0.045-0.077 0.086-0.122 0.132l-0.381 0.377-0.127 0.127-0.897 0.926c-0.089 0.089-0.166 0.174-0.254 0.263-0.047 0.045-0.086 0.086-0.132 0.132s-0.080 0.089-0.127 0.136c-0.175 0.175-0.338 0.346-0.514 0.521z"></path>
</symbol>
<symbol id="icon-arrow-right2" viewBox="0 0 18 32">
<path d="M18.477 15.933c-0.080 0.094-0.161 0.179-0.246 0.26l-0.001 0.001-0.94 0.982c-0.028 0.027-0.036 0.044-0.061 0.070-0.061 0.066-0.135 0.124-0.193 0.193l-0.313 0.334c-0.044 0.044-0.086 0.081-0.127 0.127l-0.437 0.456c-0.028 0.027-0.034 0.044-0.061 0.070-0.147 0.157-0.302 0.301-0.442 0.46-0.059 0.067-0.139 0.128-0.197 0.197-0.018 0.024-0.036 0.046-0.056 0.066l-0 0-2.337 2.424c-0.025 0.023-0.042 0.041-0.066 0.066s-0.036 0.044-0.061 0.070-0.083 0.083-0.127 0.127c-0.023 0.021-0.045 0.042-0.065 0.065l-0.001 0.001c-0.025 0.030-0.033 0.041-0.061 0.070l-0.246 0.263c-0.044 0.042-0.086 0.081-0.127 0.127l-0.437 0.454c-0.028 0.028-0.036 0.045-0.061 0.072-0.147 0.157-0.302 0.301-0.442 0.46-0.061 0.069-0.135 0.128-0.197 0.196l-0.442 0.46c-0.027 0.027-0.034 0.045-0.061 0.072-0.147 0.157-0.299 0.298-0.437 0.454-0.022 0.025-0.044 0.044-0.066 0.066l-0.507 0.526-0.061 0.061-0.695 0.725c-0.060 0.070-0.121 0.134-0.186 0.194l-0.002 0.001-0.564 0.592-0.127 0.127-1.005 1.052c-0.045 0.045-0.089 0.086-0.132 0.132l-0.376 0.395c-0.171 0.171-0.332 0.352-0.503 0.521l-0.127 0.136c-0.089 0.089-0.166 0.175-0.255 0.263l-0.313 0.324c-0.025 0.027-0.033 0.044-0.059 0.070l-0.504 0.521c-0.042 0.044-0.091 0.086-0.132 0.132-0.138 0.157-0.288 0.313-0.437 0.456-0.027 0.027-0.034 0.044-0.059 0.070-0.496 0.418-1.665 2.022-3.331 0.371-1.135-1.081-0.29-2.506 0.503-3.207 0.017-0.022 0.034-0.036 0.055-0.058l0.371-0.381c0.022-0.023 0.027-0.036 0.052-0.061l0.846-0.872c0.022-0.023 0.025-0.034 0.047-0.058l0.47-0.493 0.108-0.108 0.099-0.108 0.108-0.108 0.626-0.658 0.11-0.107 0.893-0.93c0.025-0.025 0.030-0.038 0.052-0.061 0.069-0.080 0.147-0.136 0.213-0.219s0.147-0.139 0.208-0.215 0.143-0.147 0.213-0.219l0.626-0.658c0.019-0.020 0.033-0.033 0.052-0.052l0.681-0.709c0.022-0.023 0.025-0.034 0.047-0.056 0.018-0.020 0.036-0.039 0.056-0.056l0.001-0.001 0.531-0.55c0.019-0.019 0.034-0.033 0.052-0.052l0.684-0.716c0.066-0.083 0.141-0.142 0.213-0.219l0.681-0.709c0.022-0.025 0.027-0.036 0.052-0.061l1.048-1.085c0.107-0.107 0.207-0.229 0.313-0.334l0.157-0.157c0.017-0.023 0.034-0.042 0.052-0.061l0.211-0.221c0.067-0.077 0.147-0.135 0.208-0.215s0.147-0.138 0.215-0.218 0.141-0.147 0.211-0.221l1.049-1.096c-0.033-0.040-0.068-0.075-0.104-0.109l-0.001-0.001c-0.1-0.114-0.215-0.219-0.313-0.329l-1.062-1.096c-0.075-0.074-0.157-0.144-0.221-0.221l-1.066-1.096c-0.070-0.070-0.157-0.144-0.216-0.216-0.020-0.024-0.024-0.033-0.047-0.056l-0.381-0.39c-0.147-0.147-0.282-0.29-0.428-0.437-0.038-0.038-0.074-0.069-0.108-0.108s-0.025-0.033-0.047-0.056-0.036-0.036-0.056-0.056c-0.074-0.072-0.147-0.141-0.216-0.216l-0.423-0.442c-0.157-0.157-0.285-0.293-0.432-0.442l-0.211-0.221c-0.070-0.070-0.157-0.143-0.216-0.216l-0.313-0.329c-0.022-0.025-0.027-0.036-0.052-0.061l-0.056-0.056c-0.147-0.147-0.282-0.29-0.428-0.437l-0.157-0.164c-0.089-0.092-0.194-0.182-0.277-0.277l-0.423-0.442c-0.147-0.147-0.282-0.29-0.429-0.437-0.036-0.036-0.074-0.070-0.106-0.108-0.1-0.113-0.221-0.216-0.313-0.329l-0.105-0.113-0.108-0.108-0.216-0.226c-0.146-0.147-0.28-0.29-0.428-0.437-0.075-0.075-0.136-0.146-0.211-0.221s-0.157-0.146-0.221-0.221c-0.020-0.024-0.023-0.033-0.047-0.056-0.089-0.091-0.188-0.177-0.272-0.272-0.169-0.193-0.354-0.373-0.536-0.554l-0.426-0.437c-0.083-0.099-0.345-0.362-0.429-0.446l-0.858-0.88c-0.349-0.359-1.688-1.723-0.36-3.066 0.932-0.94 2.384-0.564 3.182 0.226l0.326 0.334c0.027 0.028 0.034 0.044 0.059 0.072l0.575 0.581c0.027 0.028 0.036 0.044 0.059 0.070 0.105 0.114 0.224 0.219 0.326 0.334 0.021 0.023 0.042 0.045 0.064 0.065l0.001 0.001c0.144 0.144 0.451 0.445 0.57 0.587l1.222 1.253c0.028 0.028 0.036 0.042 0.061 0.070l0.639 0.658c0.021 0.023 0.042 0.045 0.065 0.065l0.001 0.001c0.116 0.117 0.487 0.484 0.573 0.592 0.063 0.070 0.127 0.134 0.195 0.195l0.002 0.002c0.238 0.238 0.47 0.487 0.705 0.724 0.021 0.021 0.041 0.045 0.060 0.069l0.001 0.002c0.096 0.114 0.222 0.207 0.313 0.324s0.507 0.5 0.644 0.662l0.578 0.587c0.021 0.020 0.039 0.041 0.055 0.064l0.001 0.001 0.583 0.592c0.047 0.047 0.078 0.089 0.127 0.136 0.090 0.083 0.173 0.168 0.252 0.258l0.003 0.004c0.039 0.047 0.080 0.088 0.124 0.127l0.001 0.001 0.771 0.783c0.047 0.047 0.078 0.089 0.127 0.136 0.175 0.177 0.34 0.351 0.517 0.526 0.045 0.045 0.075 0.086 0.122 0.132l0.385 0.395c0.044 0.045 0.081 0.083 0.127 0.127l0.897 0.926c0.089 0.089 0.164 0.174 0.254 0.263l0.132 0.132c0.047 0.047 0.080 0.089 0.127 0.136 0.175 0.175 0.337 0.346 0.512 0.521z"></path>
</symbol>
<symbol id="iconclose2" viewBox="0 0 32 32">
<path d="M31.439 3.166l-3.166-3.166-12.553 12.553-12.553-12.553-3.166 3.166 12.553 12.553-12.553 12.553 3.166 3.166 12.553-12.553 12.553 12.553 3.166-3.166-12.553-12.553 12.553-12.553z"></path>
</symbol>
</defs></svg>
